<svg width="60" height="60" viewBox="0 0 60 60" fill="none" xmlns="http://www.w3.org/2000/svg">
<path d="M46.9549 0C47.2785 0.23095 47.6328 0.446503 47.9255 0.708246C50.6525 3.18711 53.3641 5.69676 56.091 8.17563C56.7227 8.7453 57 9.37656 57 10.2388C56.9846 23.7416 56.9846 37.2445 56.9846 50.7474C56.9846 52.6258 56.0756 53.5342 54.1806 53.5342C44.1663 53.5342 34.1521 53.5342 24.1378 53.5188C23.6602 53.5188 23.3058 53.642 22.9515 53.9499C21.4417 55.2586 19.8702 56.5057 18.3912 57.8452C16.6964 59.3695 14.0157 59.4003 12.2439 57.8299C9.93295 55.7821 7.52953 53.8267 5.14151 51.8713C3.72411 50.7012 3 49.2385 3 47.4063C3 43.3108 3 39.1999 3 35.089C3 34.119 3.35435 33.6725 4.27874 33.4415C5.41883 33.1644 6.09672 32.4562 6.38944 31.3322C6.63595 30.393 7.05193 30.0697 8.03795 30.0697C9.60942 30.0697 11.1809 30.0697 12.814 30.0697C12.8294 29.7617 12.8602 29.5154 12.8602 29.2537C12.8602 20.493 12.8756 11.7323 12.8448 2.98695C12.8448 1.50887 13.3532 0.50809 14.7706 0.0153967C25.4936 0 36.2165 0 46.9549 0ZM25.7247 51.6866C25.7555 51.7328 25.7709 51.7636 25.8017 51.8098C25.9866 51.8098 26.1715 51.8098 26.3718 51.8098C35.6311 51.8098 44.9059 51.8098 54.1652 51.8098C55.1204 51.8098 55.2591 51.6712 55.2591 50.7012C55.2591 37.8758 55.2591 25.035 55.2591 12.2096C55.2591 12.0094 55.2591 11.7938 55.2591 11.5321C54.9971 11.5321 54.7815 11.5321 54.5812 11.5321C51.9466 11.5321 49.3121 11.5321 46.6776 11.5321C45.1832 11.5321 44.6748 11.0086 44.6748 9.51513C44.6748 7.12865 44.6748 4.75757 44.6748 2.37109C44.6748 2.17093 44.6748 1.97077 44.6748 1.75522C44.5053 1.73982 44.4437 1.72443 44.3666 1.72443C34.7375 1.72443 25.1084 1.72443 15.4639 1.72443C14.8014 1.72443 14.6011 1.93998 14.6011 2.64823C14.6011 11.5937 14.6011 20.5545 14.5857 29.5C14.5857 29.9311 14.7244 30.0543 15.1404 30.0543C17.5746 30.0389 20.0243 30.0389 22.4585 30.0389C23.6756 30.0389 23.9991 30.2852 24.3227 31.4708C24.6 32.4562 25.2317 33.0874 26.2177 33.38C27.404 33.7187 27.6659 34.0728 27.6659 35.3045C27.6659 39.0151 27.6351 42.7257 27.6813 46.4209C27.7121 48.4533 27.404 50.3009 25.7247 51.6866ZM4.74094 35.1198C4.74094 39.3077 4.72553 43.434 4.74094 47.5757C4.74094 48.7304 5.23395 49.685 6.12753 50.4395C8.60799 52.5026 11.073 54.5812 13.5535 56.6597C14.0465 57.0754 14.6011 57.291 15.279 57.3064C16.1264 57.3218 16.7427 56.9676 17.3435 56.4595C19.5775 54.5812 21.7806 52.6566 24.0608 50.8398C25.3395 49.8236 25.9558 48.6073 25.9404 46.9752C25.9096 43.1876 25.925 39.4001 25.925 35.6279C25.925 35.4585 25.9096 35.2891 25.8942 35.1198C24.2765 34.6733 23.2134 33.6879 22.6742 32.1328C22.628 31.9789 22.366 31.7941 22.1966 31.7941C17.6054 31.7787 13.0143 31.7787 8.4077 31.7941C8.25364 31.7941 8.02254 31.9173 7.97632 32.0404C7.4679 33.6417 6.38944 34.6579 4.74094 35.1198ZM46.4311 9.77688C49.3429 9.77688 52.2394 9.77688 55.2437 9.77688C52.2856 7.06707 49.4046 4.41884 46.4311 1.69363C46.4311 4.46503 46.4311 7.09786 46.4311 9.77688Z" fill="url(#paint0_radial_583_206)"/>
<path d="M35.6157 17.0749C31.3327 17.0749 27.0496 17.0749 22.7666 17.0749C22.5817 17.0749 22.3352 17.1365 22.1966 17.0441C21.9193 16.8593 21.5957 16.613 21.4879 16.3205C21.3492 15.9201 21.5803 15.566 21.9963 15.4275C22.2428 15.3505 22.5201 15.3351 22.782 15.3351C31.3327 15.3351 39.8833 15.3351 48.4339 15.3351C48.5418 15.3351 48.6651 15.3351 48.7729 15.3351C49.3892 15.3659 49.7743 15.7046 49.7589 16.2281C49.7435 16.7516 49.3737 17.0595 48.7267 17.0595C44.3666 17.0749 39.9912 17.0749 35.6157 17.0749Z" fill="url(#paint1_radial_583_206)"/>
<path d="M35.5849 23.1874C31.3173 23.1874 27.0496 23.1874 22.7974 23.1874C22.5817 23.1874 22.3198 23.249 22.1812 23.1566C21.9039 22.9718 21.5957 22.7101 21.4879 22.4175C21.3492 22.0172 21.6111 21.6631 22.0271 21.5399C22.2582 21.4629 22.5201 21.4629 22.7666 21.4629C31.3327 21.4629 39.8987 21.4629 48.4648 21.4629C49.3429 21.4629 49.7743 21.7401 49.7743 22.3098C49.7897 22.9102 49.3737 23.1874 48.4956 23.1874C44.1971 23.1874 39.8987 23.1874 35.5849 23.1874Z" fill="url(#paint2_radial_583_206)"/>
<path d="M40.7307 29.5308C38.0653 29.5308 35.3846 29.5308 32.7193 29.5308C32.2262 29.5308 31.8411 29.423 31.6562 28.9303C31.5021 28.4838 31.7641 27.9911 32.2571 27.868C32.4728 27.8064 32.7193 27.8064 32.9349 27.8064C38.1116 27.8064 43.2728 27.8064 48.4494 27.8064C48.5418 27.8064 48.6342 27.8064 48.7421 27.8064C49.4046 27.8372 49.7897 28.1759 49.7743 28.7148C49.7589 29.2383 49.3892 29.5308 48.7421 29.5462C46.0613 29.5462 43.396 29.5308 40.7307 29.5308Z" fill="url(#paint3_radial_583_206)"/>
<path d="M45.3526 33.4261C46.693 33.4261 48.0488 33.4261 49.3892 33.4261C50.0825 33.4261 50.4676 33.7341 50.483 34.2576C50.4984 34.8118 50.0825 35.1506 49.3892 35.1506C46.6776 35.1506 43.966 35.1506 41.2699 35.1506C40.5766 35.1506 40.1452 34.7964 40.176 34.2576C40.1914 33.7341 40.592 33.4261 41.2699 33.4261C42.6257 33.4261 43.9969 33.4261 45.3526 33.4261Z" fill="url(#paint4_radial_583_206)"/>
<path d="M13.1067 45.882C15.202 43.7111 17.2665 41.5864 19.3155 39.4616C19.978 38.7842 20.4402 38.6764 20.8716 39.0921C21.303 39.5078 21.1952 40.0005 20.5481 40.6626C18.4066 42.8951 16.2496 45.1122 14.1081 47.3293C13.4611 48.0068 13.1991 48.0222 12.4288 47.4987C11.6585 46.9752 10.9036 46.4671 10.1486 45.9436C9.5632 45.5433 9.40913 45.0506 9.71726 44.6041C10.0254 44.1576 10.5338 44.1268 11.1347 44.5271C11.7663 44.9582 12.4134 45.4048 13.1067 45.882Z" fill="url(#paint5_radial_583_206)"/>
<defs>
<radialGradient id="paint0_radial_583_206" cx="0" cy="0" r="1" gradientTransform="matrix(36.3462 -8.50934 7.78846 39.7102 26.8846 31.2009)" gradientUnits="userSpaceOnUse">
<stop stop-color="#FF6035"/>
<stop offset="0.396225" stop-color="#FF6035"/>
<stop offset="1" stop-color="#FFBDAB"/>
</radialGradient>
<radialGradient id="paint1_radial_583_206" cx="0" cy="0" r="1" gradientTransform="matrix(36.3462 -8.50934 7.78846 39.7102 26.8846 31.2009)" gradientUnits="userSpaceOnUse">
<stop stop-color="#FF6035"/>
<stop offset="0.396225" stop-color="#FF6035"/>
<stop offset="1" stop-color="#FFBDAB"/>
</radialGradient>
<radialGradient id="paint2_radial_583_206" cx="0" cy="0" r="1" gradientTransform="matrix(36.3462 -8.50934 7.78846 39.7102 26.8846 31.2009)" gradientUnits="userSpaceOnUse">
<stop stop-color="#FF6035"/>
<stop offset="0.396225" stop-color="#FF6035"/>
<stop offset="1" stop-color="#FFBDAB"/>
</radialGradient>
<radialGradient id="paint3_radial_583_206" cx="0" cy="0" r="1" gradientTransform="matrix(36.3462 -8.50934 7.78846 39.7102 26.8846 31.2009)" gradientUnits="userSpaceOnUse">
<stop stop-color="#FF6035"/>
<stop offset="0.396225" stop-color="#FF6035"/>
<stop offset="1" stop-color="#FFBDAB"/>
</radialGradient>
<radialGradient id="paint4_radial_583_206" cx="0" cy="0" r="1" gradientTransform="matrix(36.3462 -8.50934 7.78846 39.7102 26.8846 31.2009)" gradientUnits="userSpaceOnUse">
<stop stop-color="#FF6035"/>
<stop offset="0.396225" stop-color="#FF6035"/>
<stop offset="1" stop-color="#FFBDAB"/>
</radialGradient>
<radialGradient id="paint5_radial_583_206" cx="0" cy="0" r="1" gradientTransform="matrix(36.3462 -8.50934 7.78846 39.7102 26.8846 31.2009)" gradientUnits="userSpaceOnUse">
<stop stop-color="#FF6035"/>
<stop offset="0.396225" stop-color="#FF6035"/>
<stop offset="1" stop-color="#FFBDAB"/>
</radialGradient>
</defs>
</svg>
