<svg width="60" height="60" viewBox="0 0 60 60" fill="none" xmlns="http://www.w3.org/2000/svg">
<path d="M31.08 9.46933C31.08 11.5064 31.08 13.5435 31.08 15.6205C31.08 16.6591 30.72 16.9786 29.68 17.0185C23.28 17.0984 17.88 21.9715 17.12 28.3623C16.28 35.3124 20.68 41.3837 27.52 42.7817C34.32 44.1797 41.52 39.3466 42.8 32.4765C42.92 31.7175 43 30.9586 43.04 30.1997C43.12 29.3609 43.44 28.9615 44.28 28.9615C48.44 28.9615 52.64 28.9615 56.8 28.9615C57.6 28.9615 58.04 29.4009 58.04 30.0799C58.04 30.719 57.56 31.1184 56.8 31.1184C55.56 31.1184 54.28 31.1184 53.04 31.1184C52.44 31.1184 52.2 31.3181 52.16 31.9173C51.44 41.2639 44.52 49.4123 35.44 51.729C34.6 51.9287 34.04 51.6491 33.92 50.97C33.76 50.291 34.12 49.8117 34.96 49.612C37.12 49.0528 39.12 48.174 40.96 46.9358C46.12 43.4208 49.12 38.5478 49.96 32.3566C50 32.1969 50 32.0371 50 31.8773C50.04 31.1983 49.92 31.0785 49.28 31.0785C48.16 31.0785 47.04 31.0785 45.92 31.0785C45.4 31.0785 45.16 31.2782 45.08 31.7974C44.12 38.5078 39.56 43.4608 33.04 44.8987C32.72 44.9786 32.36 45.0185 32.04 45.0585C31.16 45.1783 31.12 45.1783 31.12 46.1369C31.12 49.572 31.12 53.0071 31.12 56.4422C31.12 57.5207 30.76 58 30.04 58C29.32 58 29 57.4807 29 56.4422C29 55.4437 29 54.4051 29 53.4066C29 52.408 28.96 52.368 27.96 52.2482C25.28 51.9686 22.72 51.2496 20.32 50.0114C14.24 46.8559 10.32 41.9829 8.60004 35.3524C8.40004 34.5934 8.68004 34.0342 9.28004 33.8745C9.96004 33.6748 10.44 34.0342 10.68 34.873C12.08 40.3053 15.16 44.4993 20 47.4151C22.56 48.9729 25.36 49.8516 28.36 50.1312C28.84 50.1712 29.04 49.9715 29.04 49.4922C29.04 48.2539 29.04 46.9757 29.04 45.7375C29.04 45.2183 28.72 45.0984 28.28 45.0585C25.56 44.7389 23.12 43.7404 20.96 42.0628C17.6 39.5863 15.68 36.311 15.04 32.2767C15.04 32.1569 15 32.077 15 31.9971C14.88 31.1583 14.8 31.1184 13.96 31.1184C11.64 31.1184 9.28004 31.1184 6.96004 31.1184C5.76004 31.1184 4.52004 31.1184 3.32004 31.1184C2.52004 31.1184 2.04004 30.719 2.04004 30.0399C2.04004 29.3609 2.52004 28.9215 3.32004 28.9215C4.48004 28.9215 5.68004 28.9215 6.84004 28.9215C7.84004 28.9215 7.88004 28.8816 7.96004 27.883C8.20004 24.8873 9.04004 22.0514 10.44 19.3752C13.44 13.7832 18.04 10.0285 24.12 8.19116C24.88 7.9515 25.4 8.15121 25.64 8.75036C25.92 9.42939 25.56 10.0685 24.68 10.3081C22.84 10.8274 21.12 11.5464 19.52 12.5849C13.88 16.2596 10.72 21.4522 10.08 28.1227C10 28.7618 10.16 28.9215 10.8 28.9215C11.88 28.9215 13 28.9215 14.08 28.9215C14.6 28.9215 14.84 28.7218 14.92 28.2026C15.84 21.2924 20.84 16.0999 27.72 14.9415C28.92 14.7418 28.92 14.7418 28.92 13.5036C28.92 10.1484 28.92 6.79315 28.92 3.43795C28.92 3.15835 28.92 2.91869 29 2.67903C29.16 2.23966 29.52 2 30 2C30.48 2 30.84 2.23966 30.96 2.67903C31.04 2.91869 31.04 3.19829 31.04 3.43795C31.08 5.47504 31.08 7.47218 31.08 9.46933Z" fill="url(#paint0_radial_484_322)"/>
<path d="M48.28 9.42939C48.28 10.0285 48.28 10.6277 48.28 11.2668C48.28 11.9458 48.48 12.1455 49.12 12.1455C50.32 12.1455 51.52 12.1455 52.72 12.1455C53.28 12.1455 53.72 12.2653 53.96 12.8245C54.16 13.3837 53.92 13.7432 53.52 14.1427C51.08 16.5392 48.68 18.9358 46.28 21.3324C45.88 21.7318 45.44 21.9315 44.88 21.8916C43.48 21.8516 42.04 21.8916 40.64 21.8916C40.16 21.8916 39.8 22.0514 39.48 22.3709C36.68 25.2068 33.88 28.0029 31.08 30.8388C30.92 30.9986 30.72 31.1983 30.52 31.3181C30.04 31.5977 29.6 31.5178 29.24 31.1184C28.88 30.7589 28.8 30.2796 29.08 29.8402C29.2 29.6805 29.32 29.5207 29.48 29.4009C32.36 26.525 35.24 23.6491 38.08 20.7332C38.32 20.4936 38.48 20.0942 38.48 19.7347C38.52 18.2967 38.52 16.8588 38.48 15.4208C38.48 14.8616 38.64 14.4622 39.04 14.0628C41.44 11.6662 43.84 9.30956 46.24 6.91298C46.64 6.51355 47.04 6.19401 47.64 6.47361C48.24 6.71327 48.32 7.19258 48.32 7.75178C48.28 8.27104 48.28 8.83024 48.28 9.42939ZM42.84 19.7347C43.36 19.7347 43.84 19.7347 44.36 19.7347C44.56 19.7347 44.84 19.6947 44.96 19.535C46.4 18.097 47.88 16.6591 49.28 15.1812C49.44 15.0214 49.56 14.7019 49.48 14.5421C49.4 14.3424 49.08 14.1826 48.88 14.1826C48.32 14.1427 47.8 14.1826 47.24 14.1427C46.48 14.1427 46.08 13.7033 46.04 12.9843C46.04 12.505 46.08 12.0656 46.04 11.5863C46 11.3067 45.88 10.9472 45.72 10.8274C45.56 10.7475 45.16 10.9073 44.96 11.107C43.6 12.465 42.24 13.8231 40.92 15.2211C40.72 15.4208 40.6 15.7404 40.6 16.02C40.56 16.9786 40.6 17.9772 40.56 18.9358C40.56 19.535 40.84 19.7347 41.36 19.7347C41.88 19.7347 42.36 19.7347 42.84 19.7347Z" fill="url(#paint1_radial_484_322)"/>
<path d="M30 39.0271C25.28 38.9872 21.28 35.2725 21.04 30.5991C20.76 25.806 24.24 21.6519 29 21.1327C29.32 21.0927 29.64 21.0528 29.96 21.0528C30.56 21.0927 30.96 21.4922 31 22.0514C31.04 22.6106 30.68 23.0499 30.08 23.1698C29.6 23.2496 29.08 23.2496 28.56 23.3695C25.84 23.9287 23.72 26.1655 23.24 29.0014C22.76 31.6776 24.12 34.4736 26.52 35.9116C28.92 37.3495 32.04 37.1897 34.16 35.4722C35.88 34.1141 36.64 32.2368 36.8 30.0799C36.84 29.3609 37.2 28.9615 37.8 28.9215C38.48 28.8417 39 29.321 39 30.0399C39.12 34.2739 35.76 38.2282 31.56 38.9073C31.04 38.9472 30.52 38.9872 30 39.0271Z" fill="url(#paint2_radial_484_322)"/>
<defs>
<radialGradient id="paint0_radial_484_322" cx="0" cy="0" r="1" gradientUnits="userSpaceOnUse" gradientTransform="translate(26.8093 31.6154) rotate(-12.0948) scale(38.548 38.548)">
<stop stop-color="#FF6035"/>
<stop offset="0.396225" stop-color="#FF6035"/>
<stop offset="1" stop-color="#FFBDAB"/>
</radialGradient>
<radialGradient id="paint1_radial_484_322" cx="0" cy="0" r="1" gradientUnits="userSpaceOnUse" gradientTransform="translate(26.8093 31.6154) rotate(-12.0948) scale(38.548 38.548)">
<stop stop-color="#FF6035"/>
<stop offset="0.396225" stop-color="#FF6035"/>
<stop offset="1" stop-color="#FFBDAB"/>
</radialGradient>
<radialGradient id="paint2_radial_484_322" cx="0" cy="0" r="1" gradientUnits="userSpaceOnUse" gradientTransform="translate(26.8093 31.6154) rotate(-12.0948) scale(38.548 38.548)">
<stop stop-color="#FF6035"/>
<stop offset="0.396225" stop-color="#FF6035"/>
<stop offset="1" stop-color="#FFBDAB"/>
</radialGradient>
</defs>
</svg>
