<svg width="60" height="60" viewBox="0 0 60 60" fill="none" xmlns="http://www.w3.org/2000/svg">
<path d="M16.2607 51.1823C15.1869 51.2683 14.1989 51.3542 13.211 51.3542C11.1492 51.3971 9.04446 51.3542 6.98267 51.3542C4.06179 51.3542 2.04295 49.2924 2 46.3715C2 45.0829 2.04295 43.7943 2.42954 42.5486C3.07385 40.7016 4.19066 39.1982 5.82291 38.1243C6.03768 37.9955 6.2095 37.8666 6.42427 37.7377C6.42427 37.7377 6.42426 37.6948 6.46722 37.6948C5.35041 35.0746 5.77995 32.8839 7.71289 31.4664C9.474 30.1349 11.8365 30.2208 13.5546 31.5953C14.9721 32.7551 16.046 35.0746 14.6714 37.6518C15.7023 38.5539 16.6903 39.4559 17.6782 40.3579C19.1816 37.3512 21.5441 35.0746 24.7227 33.6141C23.9495 32.5832 23.3052 31.5524 23.0904 30.3067C22.9616 29.7053 22.8757 29.061 22.8757 28.4167C22.8327 25.7106 22.8757 23.0475 22.8757 20.3414C22.8757 16.7332 20.4702 14.3707 16.8621 14.3278C14.8433 14.3278 12.8244 14.3278 10.8056 14.3278C9.86059 14.3278 9.55991 14.0271 9.55991 13.0821C9.55991 12.6526 9.55991 12.266 9.55991 11.6646C7.79879 13.211 6.12359 14.6714 4.36247 16.2178C6.08063 17.7212 7.75584 19.2245 9.55991 20.7709C9.55991 20.1695 9.55991 19.697 9.55991 19.2245C9.55991 18.4943 9.90354 18.1077 10.6338 18.1077C12.2231 18.1077 13.8124 18.0648 15.4017 18.1077C17.3775 18.1507 19.0527 19.7829 19.0527 21.7588C19.0957 26.1831 19.0527 30.6074 19.0527 35.0316C19.0527 35.6759 18.6662 36.1055 18.1078 36.1055C17.5064 36.1055 17.1628 35.6759 17.1628 34.9887C17.1628 30.7362 17.1628 26.4838 17.1628 22.2313C17.1628 20.642 16.4755 19.9548 14.8862 19.9548C13.7694 19.9548 12.6526 19.9548 11.4928 19.9548C11.4928 20.8138 11.4928 21.63 11.4928 22.4461C11.4928 22.9615 11.4499 23.434 10.8915 23.6918C10.376 23.9065 9.98945 23.6059 9.64582 23.3052C7.28335 21.2434 4.92087 19.1816 2.60136 17.1198C1.82818 16.4325 1.82818 15.9171 2.60136 15.2298C4.96383 13.168 7.3263 11.1062 9.68877 9.00148C10.0324 8.70081 10.419 8.44308 10.8915 8.65785C11.4069 8.87262 11.4928 9.34512 11.4928 9.86057C11.4928 10.6767 11.4928 11.4928 11.4928 12.3949C11.7076 12.3949 11.9224 12.3949 12.1372 12.3949C13.8124 12.3949 15.4446 12.3949 17.1198 12.3949C21.4152 12.3949 24.7656 15.7453 24.7656 20.0407C24.7656 21.1575 24.7656 22.2313 24.7656 23.477C26.3979 21.8447 28.2449 20.9427 30.4785 20.9427C32.6692 20.9427 34.5162 21.8018 36.1485 23.477C36.1485 22.2313 36.1485 21.1145 36.1485 19.9977C36.1485 18.2366 36.7069 16.6473 37.7807 15.2728C39.2841 13.4258 41.217 12.4378 43.5795 12.3949C45.5124 12.3519 47.4024 12.3949 49.4212 12.3949C49.4212 11.5358 49.4212 10.7196 49.4212 9.90352C49.4212 9.38807 49.4642 8.91558 50.0226 8.65785C50.5381 8.44308 50.9246 8.74376 51.2683 9.04444C53.6307 11.1062 55.9932 13.168 58.3127 15.2298C59.0859 15.9171 59.0859 16.4325 58.3127 17.1198C55.9503 19.1816 53.5878 21.2434 51.2253 23.3481C50.8817 23.6488 50.4951 23.9065 50.0226 23.6918C49.5072 23.477 49.4212 23.0045 49.4212 22.4891C49.4212 21.6729 49.4212 20.8568 49.4212 19.9977C49.2494 19.9977 49.1206 19.9548 48.9488 19.9548C47.8749 19.9548 46.8011 19.9548 45.7272 19.9548C44.4386 19.9548 43.7084 20.7279 43.7084 21.9736C43.7084 25.8824 43.7084 29.7912 43.7084 33.743C43.7084 33.9148 43.7084 34.0866 43.7084 34.2585C43.6225 34.7739 43.2359 35.1605 42.7634 35.1175C42.2479 35.0746 41.9473 34.7739 41.8613 34.2585C41.8184 34.0866 41.8613 33.9578 41.8613 33.786C41.8613 29.9201 41.8613 26.0113 41.8613 22.1454C41.8613 19.6111 43.4506 18.0218 45.942 18.0218C47.3595 18.0218 48.734 18.0218 50.1515 18.0218C51.0105 18.0218 51.3112 18.3655 51.3112 19.2245C51.3112 19.6541 51.3112 20.0836 51.3112 20.685C53.0723 19.1386 54.7476 17.6782 56.5087 16.1319C54.7905 14.6285 53.1153 13.1251 51.3112 11.5787C51.3112 12.1801 51.3112 12.6526 51.3112 13.1251C51.3112 13.8982 50.9676 14.2419 50.1944 14.2419C48.1326 14.2419 46.0279 14.2419 43.9661 14.2419C40.4439 14.2419 38.0384 16.6473 38.0384 20.1695C38.0384 22.6179 37.9955 25.0663 38.0384 27.5147C38.0814 29.7053 37.6518 31.6812 36.1485 33.4423C39.327 34.9457 41.7325 37.2223 43.1929 40.2291C44.1809 39.327 45.1688 38.425 46.1997 37.48C45.5983 36.4062 45.3836 35.1605 45.7702 33.8289C46.0708 32.798 46.6292 31.9819 47.4883 31.3376C49.2065 30.049 51.526 30.049 53.2442 31.3805C55.1341 32.798 55.5207 34.9457 54.4898 37.523C55.306 38.2532 56.165 38.9404 56.8953 39.7566C58.2268 41.26 58.8282 43.064 58.8711 45.0399C58.8711 45.856 58.9141 46.6722 58.7852 47.4453C58.3986 49.636 56.5087 51.2683 54.2751 51.2683C51.6549 51.3112 48.9917 51.3112 46.3715 51.2683C45.8131 51.2683 45.2547 51.0964 44.6534 50.9676C44.6534 52.1273 44.6534 53.33 44.6534 54.4898C44.6534 54.9193 44.6534 55.3059 44.6104 55.7355C44.2238 58.1839 42.2479 59.3866 39.5848 58.6993C36.6639 57.9261 33.786 57.153 30.8651 56.3798C30.5644 56.2939 30.1778 56.2939 29.8772 56.3798C26.9992 57.11 24.1643 57.9261 21.2864 58.6563C20.8139 58.7852 20.3414 58.8711 19.8689 58.8711C17.6353 58.9141 16.1748 57.4966 16.1319 55.263C16.2178 53.9314 16.2607 52.5139 16.2607 51.1823ZM23.8636 49.8937C24.0784 49.8508 24.2502 49.8078 24.422 49.7649C25.6677 49.4642 26.8704 49.1206 28.1161 48.8199C31.0369 48.0897 34.0008 47.3594 36.9216 46.6292C37.0505 46.5863 37.1794 46.4574 37.2223 46.3285C37.4371 45.856 37.7807 45.5983 38.2962 45.6842C38.8546 45.7701 39.0693 46.1567 39.1123 46.7151C39.1552 46.9729 39.2841 47.2735 39.4989 47.4024C40.7875 48.4333 41.3029 50.0655 40.8304 51.6119C40.4009 53.0294 39.413 53.8885 37.9955 54.318C36.7928 54.6616 35.5901 54.9623 34.4303 55.3059C36.4921 55.9502 38.5539 56.5516 40.6157 57.0241C42.1191 57.3677 42.8922 56.6375 42.8922 55.1341C42.8922 52.2132 42.9352 49.3353 42.8922 46.4145C42.8493 41.4747 39.7566 37.0075 35.1605 35.1605C34.8169 35.0316 34.5592 35.0316 34.2155 35.2034C31.7671 36.535 29.2758 36.4921 26.8274 35.2034C26.5268 35.0316 26.269 35.0316 25.9683 35.1175C21.4152 36.9216 18.2796 41.4318 18.1937 46.2856C18.1507 49.2494 18.1937 52.1703 18.1937 55.1341C18.1937 56.5946 18.8809 57.1959 20.3414 57.0241C20.5132 57.0241 20.685 56.9811 20.8568 56.9382C26.4408 55.4348 31.9819 53.9314 37.5659 52.428C37.8237 52.3421 38.0814 52.2132 38.2962 52.0844C39.0264 51.526 39.2841 50.538 38.8975 49.679C38.5109 48.8199 37.6089 48.3474 36.7069 48.5622C34.9887 48.9917 33.3135 49.4212 31.5953 49.8508C28.5026 50.6239 25.4529 51.4401 22.3602 52.2132C21.7589 52.3851 21.2864 52.1273 21.1145 51.6548C20.9427 51.1394 21.1575 50.7099 21.7589 50.4521C21.8448 50.4092 21.9307 50.3662 21.9736 50.3662C21.9736 50.2803 22.0166 50.2803 22.0166 50.2374C22.0166 49.1206 22.0166 48.0037 22.0166 46.844C22.0166 46.1138 22.3602 45.6413 22.9616 45.6413C23.5629 45.6413 23.9066 46.0708 23.9066 46.801C23.8636 47.8749 23.8636 48.8628 23.8636 49.8937ZM50.3662 49.4642C51.6549 49.4642 52.9864 49.4642 54.2751 49.4642C55.8214 49.4212 56.9812 48.2615 57.0671 46.7151C57.0671 46.1138 57.11 45.5124 57.0671 44.954C56.8523 42.4627 55.6925 40.5727 53.4589 39.4129C53.2871 39.327 52.9435 39.327 52.7287 39.4129C51.1824 40.1861 49.679 40.1861 48.1326 39.4129C47.9179 39.327 47.6172 39.2841 47.4024 39.4129C46.0279 40.1002 44.997 41.1741 44.3956 42.6345C44.3097 42.8063 44.3097 43.0211 44.3097 43.1929C44.4386 44.7822 44.6104 46.3285 44.7393 47.8749C44.8252 48.9058 44.9111 49.1635 45.942 49.3783C46.2427 49.4642 46.5433 49.4642 46.8011 49.4642C48.0038 49.5071 49.2065 49.5071 50.3662 49.4642ZM10.5049 49.5071C11.7506 49.5071 12.9962 49.5501 14.2419 49.5071C14.7573 49.5071 15.2298 49.2924 15.7023 49.1635C16.0889 49.0346 16.2607 48.734 16.2178 48.3044C16.1748 46.5863 16.2178 44.8681 16.6473 43.1929C16.6903 43.0211 16.6044 42.7634 16.5185 42.5915C15.9171 41.217 14.9292 40.2291 13.5976 39.4989C13.2969 39.327 13.0392 39.327 12.7385 39.4989C11.2351 40.315 9.73173 40.315 8.22833 39.4989C7.8847 39.327 7.66993 39.37 7.36925 39.4989C5.82291 40.3579 4.7061 41.5606 4.23361 43.2788C3.93293 44.3527 3.88998 45.5554 3.84702 46.6722C3.80407 48.3903 5.04974 49.5501 6.7679 49.593C8.05652 49.5071 9.30219 49.5071 10.5049 49.5071ZM30.4785 22.9186C27.3429 22.9186 24.8086 25.4958 24.8086 28.6315C24.8086 31.7671 27.3858 34.3014 30.5215 34.3014C33.6571 34.3014 36.1914 31.7242 36.1914 28.5885C36.1914 25.4529 33.6142 22.8756 30.4785 22.9186ZM50.4092 38.0814C51.9555 38.0814 53.2442 36.8357 53.2442 35.2894C53.2442 33.7001 51.9985 32.4114 50.4092 32.4114C48.8628 32.4114 47.5742 33.7001 47.5742 35.2034C47.5742 36.7927 48.8628 38.0814 50.4092 38.0814ZM13.3828 35.2464C13.3828 33.7001 12.1372 32.4114 10.5479 32.4114C8.95855 32.4114 7.66993 33.7001 7.66993 35.2464C7.66993 36.7927 8.95855 38.0814 10.5049 38.0814C12.0942 38.0814 13.3828 36.7927 13.3828 35.2464Z" fill="url(#paint0_radial_583_199)"/>
<path d="M34.3014 11.4928C34.3014 12.9103 34.3014 14.2419 34.3014 15.5735C34.3014 15.7882 34.3014 16.003 34.3014 16.2178C34.2585 16.7762 33.8719 17.1628 33.3564 17.1628C32.884 17.1628 32.4115 16.8191 32.4115 16.2607C32.3685 14.3278 32.3685 12.3949 32.4115 10.4619C32.4115 9.90352 32.798 9.60284 33.3994 9.55989C33.6571 9.55989 33.9148 9.55989 34.1726 9.55989C34.4303 9.55989 34.6451 9.55989 35.0317 9.55989C33.4853 7.79877 32.0249 6.12357 30.4785 4.36245C28.9751 6.08061 27.5147 7.75582 25.9254 9.55989C26.5268 9.55989 26.9992 9.55989 27.4288 9.55989C28.202 9.55989 28.5456 9.90352 28.5456 10.6767C28.5885 12.3949 28.5885 14.156 28.6315 15.9171C28.6315 16.6903 28.2879 17.1628 27.6865 17.1628C27.0852 17.1628 26.7415 16.7332 26.7415 15.96C26.7415 14.4996 26.7415 12.9962 26.7415 11.4499C25.7965 11.4499 24.9375 11.4499 24.0784 11.4499C23.6059 11.4499 23.1763 11.364 22.9616 10.8915C22.7468 10.376 22.9616 10.0324 23.3052 9.6458C25.4099 7.28332 27.4717 4.8779 29.5335 2.51543C30.2208 1.74225 30.7362 1.74225 31.3806 2.51543C33.4853 4.96381 35.5901 7.32628 37.6518 9.7317C37.9525 10.0753 38.2103 10.4619 37.9955 10.9774C37.7807 11.4499 37.3512 11.5787 36.8787 11.5358C36.0625 11.4928 35.2035 11.4928 34.3014 11.4928Z" fill="url(#paint1_radial_583_199)"/>
<path d="M35.7189 42.8493C35.2464 42.8493 34.7739 42.8493 34.3014 42.8493C33.7001 42.8063 33.3564 42.4197 33.3564 41.9043C33.3564 41.3459 33.7001 40.9593 34.3014 40.9593C35.2894 40.9593 36.2344 40.9163 37.2223 40.9593C37.7807 40.9593 38.1243 41.3459 38.1243 41.8613C38.1243 42.4197 37.7807 42.7634 37.2223 42.8493C37.1794 42.8493 37.1364 42.8493 37.0934 42.8493C36.6209 42.8493 36.1485 42.8493 35.7189 42.8493Z" fill="url(#paint2_radial_583_199)"/>
<defs>
<radialGradient id="paint0_radial_583_199" cx="0" cy="0" r="1" gradientTransform="matrix(38.2931 -8.2147 8.20567 38.3353 27.164 32.0561)" gradientUnits="userSpaceOnUse">
<stop stop-color="#FF6035"/>
<stop offset="0.396225" stop-color="#FF6035"/>
<stop offset="1" stop-color="#FFBDAB"/>
</radialGradient>
<radialGradient id="paint1_radial_583_199" cx="0" cy="0" r="1" gradientTransform="matrix(38.2931 -8.2147 8.20567 38.3353 27.164 32.0561)" gradientUnits="userSpaceOnUse">
<stop stop-color="#FF6035"/>
<stop offset="0.396225" stop-color="#FF6035"/>
<stop offset="1" stop-color="#FFBDAB"/>
</radialGradient>
<radialGradient id="paint2_radial_583_199" cx="0" cy="0" r="1" gradientTransform="matrix(38.2931 -8.2147 8.20567 38.3353 27.164 32.0561)" gradientUnits="userSpaceOnUse">
<stop stop-color="#FF6035"/>
<stop offset="0.396225" stop-color="#FF6035"/>
<stop offset="1" stop-color="#FFBDAB"/>
</radialGradient>
</defs>
</svg>
