<svg width="60" height="60" viewBox="0 0 60 60" fill="none" xmlns="http://www.w3.org/2000/svg">
<path d="M3 28.3214C3.14595 27.2998 3.29189 26.2782 3.43784 25.2566C5.04324 15.1863 13.0703 6.42955 22.9216 3.94846C26.2784 3.07279 29.6351 2.7809 33.1378 3.21873C33.8676 3.29171 34.3054 3.80252 34.2324 4.3863C34.1595 5.04306 33.6486 5.40792 32.9189 5.33495C21.9 4.02144 11.027 10.4431 6.94054 20.8052C3.07297 30.5836 5.48108 41.3106 13.2162 48.389C17.0838 51.9647 21.7541 54.0809 27.0081 54.7377C39.4135 56.2701 50.9432 48.462 54.0811 36.2755C55.9784 28.9052 54.6649 22.0458 50.3595 15.7701C50.2865 15.6241 50.1405 15.4782 49.9216 15.4052C49.9216 15.6971 49.9216 16.062 49.9216 16.3539C49.9216 16.9377 49.4838 17.3755 48.9 17.4485C48.3892 17.4485 47.8784 17.0836 47.8054 16.4998C47.8054 15.1133 47.8054 13.7268 47.8054 12.3404C47.8054 11.7566 48.2432 11.3917 48.827 11.3917C50.1405 11.3917 51.527 11.3917 52.8405 11.3917C53.4243 11.3917 53.8622 11.8295 53.8622 12.4133C53.8622 12.9971 53.4243 13.435 52.8405 13.435C52.5486 13.435 52.3297 13.435 52.0378 13.435C51.7459 13.435 51.527 13.435 51.1622 13.435C51.4541 13.7998 51.673 14.0917 51.8919 14.3836C55.7595 19.9295 57.4378 26.0593 56.7811 32.7728C55.6865 44.8133 46.4189 54.7377 34.5973 56.7079C33.6486 56.8539 32.627 56.9998 31.6054 57.1458C30.5108 57.1458 29.3432 57.1458 28.2486 57.1458C28.1027 57.1458 28.0297 57.0728 27.8838 57.0728C26.6432 56.9268 25.4027 56.7809 24.1622 56.562C13.8 54.2998 5.11622 45.2512 3.43784 34.7431C3.29189 33.7214 3.14595 32.6998 3 31.6782C3 30.5836 3 29.416 3 28.3214Z" fill="url(#paint0_radial_484_309)"/>
<path d="M30 11.9025C26.7162 11.9755 23.7243 12.7782 20.8784 14.4566C20.7324 14.5295 20.5135 14.6755 20.3676 14.7485C19.7838 15.0404 19.2 14.8214 18.9811 14.3836C18.6892 13.8728 18.8351 13.289 19.3459 12.9971C20.2946 12.4863 21.2432 11.9025 22.2649 11.4647C33.7216 6.64846 46.5649 13.216 49.5568 25.2566C52.3297 36.4944 44.9595 47.8052 33.5757 49.8485C22.6297 51.8187 12.1946 44.5944 10.2243 33.7214C9.27568 28.6863 10.2243 23.9431 12.8514 19.4917C13.2892 18.835 13.873 18.616 14.4568 18.9809C14.9676 19.3458 15.0405 19.9295 14.6757 20.5863C13.6541 22.2647 12.9243 24.089 12.4865 25.9863C10.1514 35.8377 16.573 45.762 26.5703 47.6593C36.3486 49.5566 45.8351 43.1349 47.7324 33.3566C49.7027 23.1404 42.6243 13.362 32.3351 12.0485C31.5324 11.9755 30.7297 11.9755 30 11.9025Z" fill="url(#paint1_radial_484_309)"/>
<path d="M26.3514 29.7809C26.4243 29.489 26.4973 29.0512 26.6432 28.6863C26.7892 28.3944 26.7162 28.1755 26.4973 27.9566C25.4027 26.9349 24.3811 25.8404 23.3595 24.8187C22.9946 24.4539 22.8486 24.016 23.1405 23.5052C23.3595 23.0674 23.7243 22.8485 24.2351 22.9944C24.527 23.0674 24.7459 23.2133 24.9649 23.4322C25.9865 24.4539 27.0081 25.4755 28.0297 26.4971C28.2486 26.716 28.4676 26.789 28.8324 26.6431C29.7081 26.2782 30.5838 26.2782 31.3865 26.6431C31.7514 26.789 31.9703 26.716 32.1892 26.4241C34.3784 24.2349 36.5676 22.0458 38.6838 19.9295C39.4135 19.1998 39.9973 19.1268 40.5081 19.6377C41.0189 20.1485 40.873 20.7322 40.2162 21.389C37.9541 23.5052 35.8378 25.6944 33.6486 27.8106C33.3568 28.1025 33.2838 28.3214 33.4297 28.8322C33.9405 30.2917 33.5757 31.6052 32.4811 32.6998C31.4595 33.7214 29.8541 33.9404 28.5405 33.3566C27.0811 32.6268 26.4243 31.5322 26.3514 29.7809ZM30 28.4674C29.1243 28.4674 28.4676 29.1241 28.4676 29.9268C28.4676 30.8025 29.1243 31.4593 29.927 31.4593C30.8027 31.4593 31.4595 30.8025 31.4595 29.9268C31.5324 29.1241 30.8757 28.4674 30 28.4674Z" fill="url(#paint2_radial_484_309)"/>
<path d="M44.3757 31.0214C44.1568 31.0214 43.9378 31.0214 43.7189 31.0214C43.1351 31.0214 42.6973 30.5836 42.6973 29.9998C42.6973 29.489 43.0622 28.9782 43.573 28.9052C44.1568 28.8322 44.6676 28.8322 45.2514 28.9052C45.7622 28.9782 46.127 29.489 46.0541 29.9998C46.0541 30.5106 45.6162 30.9485 45.0324 30.9485C44.8135 31.0944 44.5946 31.0214 44.3757 31.0214Z" fill="url(#paint3_radial_484_309)"/>
<path d="M28.9054 44.3025C28.9054 44.0836 28.9054 43.8647 28.9054 43.6458C28.9054 43.062 29.3432 42.6241 29.8541 42.6241C30.4378 42.6241 30.8757 42.989 30.9486 43.4998C31.0216 44.0106 31.0216 44.5214 30.9486 45.1052C30.8757 45.689 30.4378 46.0539 29.8541 45.9809C29.2703 45.9809 28.9054 45.5431 28.9054 44.9593C28.9054 44.7404 28.9054 44.5214 28.9054 44.3025Z" fill="url(#paint4_radial_484_309)"/>
<path d="M31.0216 15.6241C31.0216 15.8431 31.0216 16.062 31.0216 16.2809C30.9486 16.8647 30.5838 17.2295 30.073 17.3025C29.5622 17.3755 29.0513 16.9377 28.9784 16.4268C28.9054 15.916 28.9054 15.4052 28.9784 14.8214C29.0513 14.2377 29.4892 13.8728 30.073 13.9458C30.6568 13.9458 31.0216 14.3836 31.0946 14.9674C31.0946 15.1863 31.0216 15.4052 31.0216 15.6241Z" fill="url(#paint5_radial_484_309)"/>
<path d="M15.6243 28.9052C15.8432 28.9052 16.0622 28.9052 16.2811 28.9052C16.8649 28.9052 17.3027 29.3431 17.3027 29.9268C17.3027 30.5106 16.9378 30.9485 16.3541 31.0214C15.8432 31.0944 15.3324 31.0944 14.8216 31.0214C14.2378 30.9485 13.873 30.5106 13.873 29.9268C13.873 29.3431 14.3108 28.9782 14.8946 28.9052C15.1865 28.9052 15.4054 28.9052 15.6243 28.9052Z" fill="url(#paint6_radial_484_309)"/>
<path d="M38.3189 5.11603C38.3189 5.69982 37.8811 6.13765 37.2973 6.13765C36.7135 6.13765 36.2757 5.62684 36.2757 5.11603C36.2757 4.53225 36.7865 4.02144 37.3703 4.02144C37.8811 4.09441 38.3189 4.53225 38.3189 5.11603Z" fill="url(#paint7_radial_484_309)"/>
<path d="M16.5 17.5214C15.9162 17.5214 15.4784 17.0836 15.4054 16.4998C15.4054 15.916 15.9162 15.4052 16.5 15.4052C17.0838 15.4052 17.5216 15.916 17.5216 16.4268C17.5216 17.0836 17.0838 17.5214 16.5 17.5214Z" fill="url(#paint8_radial_484_309)"/>
<defs>
<radialGradient id="paint0_radial_484_309" cx="0" cy="0" r="1" gradientTransform="matrix(36.2923 -7.80695 7.77693 36.4324 26.8492 31.6431)" gradientUnits="userSpaceOnUse">
<stop stop-color="#FF6035"/>
<stop offset="0.396225" stop-color="#FF6035"/>
<stop offset="1" stop-color="#FFBDAB"/>
</radialGradient>
<radialGradient id="paint1_radial_484_309" cx="0" cy="0" r="1" gradientTransform="matrix(36.2923 -7.80695 7.77693 36.4324 26.8492 31.6431)" gradientUnits="userSpaceOnUse">
<stop stop-color="#FF6035"/>
<stop offset="0.396225" stop-color="#FF6035"/>
<stop offset="1" stop-color="#FFBDAB"/>
</radialGradient>
<radialGradient id="paint2_radial_484_309" cx="0" cy="0" r="1" gradientTransform="matrix(36.2923 -7.80695 7.77693 36.4324 26.8492 31.6431)" gradientUnits="userSpaceOnUse">
<stop stop-color="#FF6035"/>
<stop offset="0.396225" stop-color="#FF6035"/>
<stop offset="1" stop-color="#FFBDAB"/>
</radialGradient>
<radialGradient id="paint3_radial_484_309" cx="0" cy="0" r="1" gradientTransform="matrix(36.2923 -7.80695 7.77693 36.4324 26.8492 31.6431)" gradientUnits="userSpaceOnUse">
<stop stop-color="#FF6035"/>
<stop offset="0.396225" stop-color="#FF6035"/>
<stop offset="1" stop-color="#FFBDAB"/>
</radialGradient>
<radialGradient id="paint4_radial_484_309" cx="0" cy="0" r="1" gradientTransform="matrix(36.2923 -7.80695 7.77693 36.4324 26.8492 31.6431)" gradientUnits="userSpaceOnUse">
<stop stop-color="#FF6035"/>
<stop offset="0.396225" stop-color="#FF6035"/>
<stop offset="1" stop-color="#FFBDAB"/>
</radialGradient>
<radialGradient id="paint5_radial_484_309" cx="0" cy="0" r="1" gradientTransform="matrix(36.2923 -7.80695 7.77693 36.4324 26.8492 31.6431)" gradientUnits="userSpaceOnUse">
<stop stop-color="#FF6035"/>
<stop offset="0.396225" stop-color="#FF6035"/>
<stop offset="1" stop-color="#FFBDAB"/>
</radialGradient>
<radialGradient id="paint6_radial_484_309" cx="0" cy="0" r="1" gradientTransform="matrix(36.2923 -7.80695 7.77693 36.4324 26.8492 31.6431)" gradientUnits="userSpaceOnUse">
<stop stop-color="#FF6035"/>
<stop offset="0.396225" stop-color="#FF6035"/>
<stop offset="1" stop-color="#FFBDAB"/>
</radialGradient>
<radialGradient id="paint7_radial_484_309" cx="0" cy="0" r="1" gradientTransform="matrix(36.2923 -7.80695 7.77693 36.4324 26.8492 31.6431)" gradientUnits="userSpaceOnUse">
<stop stop-color="#FF6035"/>
<stop offset="0.396225" stop-color="#FF6035"/>
<stop offset="1" stop-color="#FFBDAB"/>
</radialGradient>
<radialGradient id="paint8_radial_484_309" cx="0" cy="0" r="1" gradientTransform="matrix(36.2923 -7.80695 7.77693 36.4324 26.8492 31.6431)" gradientUnits="userSpaceOnUse">
<stop stop-color="#FF6035"/>
<stop offset="0.396225" stop-color="#FF6035"/>
<stop offset="1" stop-color="#FFBDAB"/>
</radialGradient>
</defs>
</svg>
