<svg width="60" height="60" viewBox="0 0 60 60" fill="none" xmlns="http://www.w3.org/2000/svg">
<g clip-path="url(#clip0_484_338)">
<path d="M43.5022 20.8797C43.1928 21.4278 42.9178 21.9759 42.5568 22.4726C42.2303 22.918 42.2646 23.2263 42.5053 23.723C43.0553 24.8535 43.485 26.0353 43.9319 27.2C44.0523 27.5083 44.1554 27.7139 44.5164 27.7481C44.9117 27.7995 45.3071 27.9023 45.7024 27.9879C46.4931 28.1763 46.8884 28.6217 46.9228 29.4267C46.9572 30.3516 46.9572 31.2594 46.9228 32.1843C46.9056 32.9551 46.5103 33.5032 45.754 33.5546C44.4132 33.6402 43.8288 34.2911 43.5538 35.5586C43.3647 36.4321 42.8491 37.2371 42.4193 38.0421C42.2303 38.3847 42.2303 38.6074 42.4537 38.8986C42.7115 39.2411 42.935 39.6008 43.1585 39.9776C43.5194 40.5942 43.485 41.1766 43.0038 41.6904C42.3506 42.3927 41.663 43.0778 40.9583 43.7287C40.4254 44.2254 39.7551 44.3453 39.205 43.8486C38.1737 42.9408 37.2627 43.0264 36.1626 43.7287C35.4579 44.174 34.5984 44.3967 33.7734 44.6194C33.2921 44.7564 33.0514 44.9619 32.9999 45.4586C32.9655 45.8012 32.8796 46.1266 32.7936 46.4692C32.6045 47.24 32.1404 47.6511 31.3326 47.6682C30.4387 47.6853 29.5277 47.6853 28.6339 47.6682C27.8432 47.6511 27.2588 47.2571 27.2073 46.4692C27.1213 45.1675 26.5025 44.5851 25.2305 44.3111C24.3195 44.1055 23.4945 43.5232 22.6007 43.1463C22.4116 43.0607 22.1194 43.0607 21.9303 43.1635C21.5349 43.3519 21.174 43.6431 20.7958 43.8829C20.1255 44.2768 19.541 44.2425 18.9738 43.6944C18.3035 43.0607 17.6503 42.4098 17.0143 41.7418C16.4814 41.1766 16.3611 40.5257 16.8596 39.9434C17.7362 38.9328 17.7018 38.0593 16.9971 36.9631C16.4986 36.1923 16.3439 35.216 15.983 34.3425C15.897 34.1369 15.6736 33.9143 15.4673 33.8457C15.072 33.7087 14.625 33.6573 14.2125 33.5717C13.4734 33.4004 13.0609 32.938 13.0265 32.1843C12.9921 31.2423 12.9921 30.3002 13.0265 29.3582C13.0609 28.6216 13.439 28.0735 14.1781 28.0222C15.5532 27.9365 16.1377 27.2685 16.4127 25.9668C16.6018 25.0932 17.1346 24.2882 17.5643 23.4832C17.7362 23.1749 17.7362 22.9694 17.53 22.6782C17.2549 22.3185 17.0315 21.9417 16.7908 21.5477C16.4471 20.9654 16.4814 20.383 16.9455 19.8863C17.6159 19.1669 18.3206 18.4646 19.0426 17.7966C19.5582 17.2999 20.1942 17.1972 20.7443 17.6596C21.7928 18.5845 22.721 18.516 23.8554 17.7795C24.5602 17.3342 25.4368 17.1286 26.2447 16.8888C26.7088 16.7518 26.9322 16.5634 26.9838 16.101C27.0182 15.7584 27.1041 15.433 27.1901 15.0904C27.3791 14.3025 27.8089 13.8914 28.6167 13.8743C29.5449 13.84 30.4559 13.84 31.3841 13.8743C32.192 13.9085 32.742 14.3025 32.7936 15.0904C32.8796 16.375 33.4812 16.9402 34.7188 17.2143C35.6126 17.4027 36.4548 17.9337 37.2799 18.3619C37.6065 18.5332 37.8299 18.5845 38.1393 18.3447C38.4831 18.0878 38.8441 17.8652 39.2222 17.6425C39.8582 17.2657 40.4082 17.2999 40.9411 17.7795C41.663 18.4475 42.3506 19.1498 43.0209 19.8692C43.21 20.1432 43.296 20.4858 43.5022 20.8797ZM39.927 19.0299C39.3597 19.3896 38.8097 19.7321 38.294 20.0918C37.8815 20.3659 37.5033 20.3659 37.108 20.0918C35.6985 19.1498 34.1687 18.516 32.5186 18.1906C32.0201 18.1049 31.7795 17.7966 31.6935 17.3342C31.5904 16.8375 31.5216 16.3236 31.3669 15.8269C31.3154 15.6556 31.0575 15.4501 30.8685 15.4158C30.3872 15.3644 29.8887 15.433 29.3902 15.3816C28.823 15.3131 28.5824 15.5357 28.5308 16.101C28.4964 16.4949 28.3589 16.8889 28.2901 17.2828C28.2042 17.7795 27.9292 18.0707 27.4135 18.1735C25.7806 18.4818 24.268 19.1155 22.8757 20.0404C22.446 20.3316 22.0506 20.3316 21.6381 20.0404C21.1052 19.6807 20.5724 19.3382 20.0739 19.0299C19.4379 19.6636 18.8363 20.2288 18.2003 20.8626C18.5269 21.3593 18.8535 21.8903 19.1973 22.387C19.5239 22.8495 19.5239 23.2605 19.1973 23.7401C18.2863 25.0761 17.6847 26.5491 17.3753 28.1421C17.2721 28.7073 16.9627 28.9813 16.3955 29.0841C15.7939 29.1869 15.1923 29.341 14.5563 29.4781C14.5563 30.2488 14.5391 30.9853 14.5735 31.7047C14.5907 31.8589 14.8141 32.0815 14.986 32.1329C15.4845 32.2871 15.983 32.3556 16.4986 32.4584C16.9971 32.544 17.2721 32.8352 17.3753 33.349C17.6847 34.9591 18.3034 36.4492 19.2316 37.8195C19.541 38.2648 19.541 38.6759 19.2316 39.1212C18.8707 39.6351 18.5441 40.1832 18.2175 40.6799C18.8535 41.3308 19.4551 41.9131 20.0567 42.5297C20.5552 42.2043 21.088 41.8789 21.6037 41.5192C22.0678 41.1937 22.4803 41.2109 22.9616 41.5192C24.3023 42.427 25.7806 43.0264 27.3791 43.3348C27.9464 43.4375 28.2214 43.763 28.3245 44.3111C28.4277 44.9105 28.5824 45.51 28.7199 46.1266C29.459 46.1266 30.1465 46.1095 30.8341 46.1438C31.2294 46.1609 31.3669 45.9896 31.4185 45.6471C31.5045 45.1675 31.6076 44.6879 31.7107 44.2083C31.7967 43.7458 32.0545 43.4375 32.5358 43.3519C34.2031 43.0436 35.7329 42.3927 37.1424 41.4678C37.5549 41.1937 37.9331 41.1937 38.3284 41.4678C38.8784 41.8275 39.4285 42.1872 39.927 42.4955C40.5801 41.8617 41.1646 41.2794 41.8005 40.6628C41.474 40.166 41.1646 39.6351 40.8036 39.1212C40.4942 38.6759 40.477 38.2819 40.7692 37.8195C41.6974 36.4321 42.3334 34.9248 42.6428 33.2976C42.7287 32.8181 43.0038 32.544 43.485 32.4584C44.0179 32.3556 44.5336 32.27 45.0492 32.1329C45.2039 32.0815 45.393 31.876 45.4274 31.739C45.7024 29.598 45.6508 29.5466 43.571 29.0841C43.5538 29.0841 43.5366 29.0841 43.5022 29.067C43.0209 28.9813 42.7459 28.7244 42.6428 28.2448C42.3334 26.6177 41.6974 25.0932 40.7692 23.723C40.4598 23.2777 40.477 22.8666 40.7864 22.4212C41.1474 21.9074 41.474 21.3593 41.8005 20.8797C41.1302 20.246 40.563 19.6636 39.927 19.0299Z" fill="url(#paint0_radial_484_338)"/>
<path d="M43.0038 56.9174C43.1928 57.26 43.3991 57.6368 43.5882 58.0136C43.9491 58.733 43.6741 59.2468 42.8662 59.2982C39.4629 59.4695 36.1454 59.0927 33.0171 57.6368C31.7279 57.0373 30.4731 56.335 29.2183 55.6157C28.9605 55.4786 28.6683 55.0847 28.6855 54.8449C28.7199 54.5708 29.0121 54.194 29.2871 54.057C32.1748 52.6525 34.8391 50.9054 37.2627 48.8158C37.8987 48.2677 38.3284 48.3533 38.7409 49.0898C39.016 49.5865 39.291 50.1004 39.6004 50.6656C40.0129 50.4772 40.4254 50.3059 40.8208 50.1004C50.4293 44.9962 56.1704 37.1001 57.9064 26.395C58.1643 24.7678 58.1643 23.0721 58.2502 21.4107C58.2846 20.9654 58.3877 20.5885 58.8862 20.52C59.4191 20.4344 59.6769 20.7427 59.7972 21.2052C61.3098 27.1829 61.5161 33.1606 59.6425 39.087C57.597 45.5957 53.5233 50.5629 47.7994 54.2112C46.2868 55.1875 44.6539 55.9925 43.0038 56.9174ZM59.3331 28.005C59.2987 28.005 59.2815 28.005 59.2472 28.005C59.1956 28.262 59.1269 28.5189 59.0753 28.7758C56.4798 39.7207 50.0684 47.5654 39.8066 52.2585C39.1363 52.5668 38.8441 52.4641 38.4831 51.8303C38.2425 51.385 38.0018 50.9397 37.7955 50.58C35.561 52.0701 33.378 53.526 31.2122 54.9819C34.3922 56.9003 37.8471 57.8937 41.663 57.7738C41.5599 57.534 41.474 57.3627 41.388 57.2086C40.9067 56.2837 40.9927 56.0096 41.9552 55.5985C42.1099 55.53 42.2646 55.4615 42.4193 55.393C47.1806 53.2691 51.2716 50.2888 54.3827 46.0581C58.2158 40.8512 59.6941 34.9591 59.4191 28.5703C59.4019 28.3647 59.3675 28.1763 59.3331 28.005Z" fill="url(#paint1_radial_484_338)"/>
<path d="M43.8288 12.1786C41.3708 10.4144 38.7925 9.02702 36.0079 8.08497C26.726 4.95051 17.7878 5.77266 9.26214 10.6199C9.1762 10.6713 9.07307 10.7227 8.98712 10.7741C8.59178 10.9968 8.16206 10.9625 7.99017 10.5686C7.86985 10.3116 7.88704 9.78066 8.07612 9.60938C13.0781 4.67646 18.9051 1.26795 25.9697 0.27452C33.6874 -0.804556 40.5801 1.42211 46.8884 5.75554C47.0947 5.89256 47.301 6.04671 47.5416 6.20087C47.7994 5.78979 48.0057 5.4301 48.2463 5.07041C48.6932 4.40241 49.2777 4.38528 49.7246 5.03615C52.5264 9.18117 53.6092 13.7715 53.3686 18.7216C53.3342 19.5951 52.7326 19.9034 52.0107 19.4238C49.3292 17.5911 46.4587 16.1352 43.3647 15.1075C42.6428 14.8677 42.5053 14.4224 42.8834 13.7544C43.0381 13.4975 43.1928 13.2406 43.3475 12.9836C43.485 12.7438 43.6397 12.4869 43.8288 12.1786ZM44.6711 13.7887C47.0775 14.9705 49.4324 16.1181 51.7872 17.2828C51.856 13.566 51.0137 10.089 48.9683 6.86887C48.7964 7.12579 48.6761 7.3142 48.5557 7.51974C48.1088 8.22199 47.7479 8.29051 47.0775 7.82805C46.5275 7.45123 46.0118 7.04015 45.4446 6.68046C40.8723 3.59739 35.8532 1.73041 30.3012 1.57626C24.9899 1.42211 20.1083 2.878 15.5704 5.60138C15.0891 5.89256 14.625 6.20087 14.161 6.49205C14.3157 6.54343 14.4188 6.5263 14.5219 6.49205C19.7473 4.71072 25.1102 4.26538 30.5591 5.12179C35.9048 5.96107 40.752 8.01645 45.1008 11.2023C45.7196 11.6648 45.7712 11.9388 45.3586 12.6068C45.1352 13.035 44.8773 13.4461 44.6711 13.7887Z" fill="url(#paint2_radial_484_338)"/>
<path d="M1.14903 27.5426C0.788066 27.5426 0.375535 27.5597 -0.0198078 27.5426C-0.948003 27.5083 -1.22302 26.9945 -0.810492 26.1723C1.26935 22.0102 4.4149 18.8586 8.52303 16.6662C8.74648 16.5463 8.95275 16.3579 9.19339 16.3065C9.50279 16.238 9.91532 16.1352 10.1388 16.2722C10.3622 16.4093 10.4825 16.8375 10.4825 17.1458C10.4997 18.4818 10.345 19.8349 10.431 21.1709C10.5341 22.9351 10.7748 24.6993 11.0326 26.4464C11.1873 27.5254 10.981 27.8166 9.89813 27.7995C9.38247 27.7995 8.8668 27.7995 8.28238 27.7995C8.23082 28.3133 8.14487 28.8443 8.14487 29.3582C7.9558 41.9816 13.2156 51.6248 24.0101 58.2534C24.1476 58.339 24.3023 58.4247 24.457 58.5103C24.8352 58.733 25.0071 59.0756 24.8352 59.4866C24.6461 59.932 24.2852 60.069 23.8211 59.9148C22.5835 59.5209 21.3287 59.1441 20.1083 58.6816C13.8 56.2151 8.62616 52.3613 5.05089 46.5206C2.7304 42.7353 1.44124 38.5903 1.16622 34.1883C1.0459 32.0302 1.14903 29.8206 1.14903 27.5426ZM9.24496 26.2237C9.07307 23.6031 8.90118 20.9996 8.72929 18.3619C5.46342 20.1432 2.86791 22.6268 1.0459 26.0353C1.37249 26.0353 1.61313 26.0353 1.83658 26.0353C2.62727 26.0696 2.86791 26.3265 2.81634 27.0972C2.79916 27.2857 2.78197 27.4741 2.76478 27.6796C2.43819 30.6257 2.47257 33.5717 3.00542 36.4835C4.62117 45.4415 9.67467 51.8303 17.719 55.9753C17.8737 56.0439 18.0284 56.0952 18.1831 56.1638C18.1144 56.0096 18.0112 55.924 17.9253 55.8383C9.4856 48.0964 5.68687 38.556 6.80415 27.1315C6.8729 26.3779 7.13073 26.2066 7.90423 26.2066C8.36833 26.2237 8.83242 26.2237 9.24496 26.2237Z" fill="url(#paint3_radial_484_338)"/>
<path d="M29.9403 41.5363C23.9929 41.5192 19.1629 36.6548 19.1801 30.7284C19.1973 24.8192 24.0961 19.989 30.0434 20.0233C35.9563 20.0576 40.7864 24.9048 40.7692 30.7969C40.7692 36.7233 35.9048 41.5534 29.9403 41.5363ZM29.9575 39.9948C35.0453 39.9948 39.2222 35.8669 39.2222 30.7969C39.2222 25.727 35.0625 21.5648 29.9918 21.5648C24.904 21.5648 20.7271 25.7099 20.7271 30.7627C20.7271 35.8326 24.8696 39.9948 29.9575 39.9948Z" fill="url(#paint4_radial_484_338)"/>
<path d="M28.3417 32.938C30.1637 31.1224 31.9342 29.3582 33.6874 27.6111C33.8249 27.4741 33.9624 27.337 34.1 27.2C34.5984 26.7204 35.0282 26.6519 35.3891 26.9945C35.7501 27.3542 35.7157 27.7824 35.2172 28.2791C34.3234 29.1698 33.4296 30.0604 32.5358 30.9511C31.4185 32.0644 30.3012 33.1949 29.1668 34.3082C28.5308 34.9248 28.2042 34.9419 27.6026 34.3253C26.64 33.3833 25.6946 32.4241 24.7321 31.4649C24.268 31.0025 24.2336 30.5914 24.5774 30.2317C24.9211 29.872 25.3509 29.9063 25.815 30.3687C26.64 31.208 27.4651 32.0473 28.3417 32.938Z" fill="url(#paint5_radial_484_338)"/>
</g>
<defs>
<radialGradient id="paint0_radial_484_338" cx="0" cy="0" r="1" gradientTransform="matrix(41.7219 -8.64964 8.94041 40.365 26.4202 31.7202)" gradientUnits="userSpaceOnUse">
<stop stop-color="#FF6035"/>
<stop offset="0.396225" stop-color="#FF6035"/>
<stop offset="1" stop-color="#FFBDAB"/>
</radialGradient>
<radialGradient id="paint1_radial_484_338" cx="0" cy="0" r="1" gradientTransform="matrix(41.7219 -8.64964 8.94041 40.365 26.4202 31.7202)" gradientUnits="userSpaceOnUse">
<stop stop-color="#FF6035"/>
<stop offset="0.396225" stop-color="#FF6035"/>
<stop offset="1" stop-color="#FFBDAB"/>
</radialGradient>
<radialGradient id="paint2_radial_484_338" cx="0" cy="0" r="1" gradientTransform="matrix(41.7219 -8.64964 8.94041 40.365 26.4202 31.7202)" gradientUnits="userSpaceOnUse">
<stop stop-color="#FF6035"/>
<stop offset="0.396225" stop-color="#FF6035"/>
<stop offset="1" stop-color="#FFBDAB"/>
</radialGradient>
<radialGradient id="paint3_radial_484_338" cx="0" cy="0" r="1" gradientTransform="matrix(41.7219 -8.64964 8.94041 40.365 26.4202 31.7202)" gradientUnits="userSpaceOnUse">
<stop stop-color="#FF6035"/>
<stop offset="0.396225" stop-color="#FF6035"/>
<stop offset="1" stop-color="#FFBDAB"/>
</radialGradient>
<radialGradient id="paint4_radial_484_338" cx="0" cy="0" r="1" gradientTransform="matrix(41.7219 -8.64964 8.94041 40.365 26.4202 31.7202)" gradientUnits="userSpaceOnUse">
<stop stop-color="#FF6035"/>
<stop offset="0.396225" stop-color="#FF6035"/>
<stop offset="1" stop-color="#FFBDAB"/>
</radialGradient>
<radialGradient id="paint5_radial_484_338" cx="0" cy="0" r="1" gradientTransform="matrix(41.7219 -8.64964 8.94041 40.365 26.4202 31.7202)" gradientUnits="userSpaceOnUse">
<stop stop-color="#FF6035"/>
<stop offset="0.396225" stop-color="#FF6035"/>
<stop offset="1" stop-color="#FFBDAB"/>
</radialGradient>
<clipPath id="clip0_484_338">
<rect width="60" height="60" fill="white"/>
</clipPath>
</defs>
</svg>
