<svg width="60" height="60" viewBox="0 0 60 60" fill="none" xmlns="http://www.w3.org/2000/svg">
<path d="M21.1148 58.0001C20.6764 57.6787 20.5595 57.2698 20.5595 56.7439C20.5887 52.9171 20.5595 49.0903 20.5887 45.2635C20.5887 44.4456 20.2965 43.8321 19.6827 43.3355C18.572 42.4299 17.4906 41.4659 16.38 40.5603C15.4447 39.7716 14.977 38.7784 14.977 37.5515C14.977 33.9291 14.977 30.336 14.977 26.7137C14.977 24.2891 16.6138 22.6824 19.0397 22.6824C19.5365 22.6824 20.0334 22.6824 20.618 22.6824C20.618 22.0689 20.5887 21.4847 20.618 20.8712C20.7056 19.3814 21.3779 18.2421 22.7516 17.6287C24.096 17.0152 25.382 17.1613 26.5511 18.0376C26.6681 18.1253 26.8142 18.2421 26.9311 18.3298C26.9311 18.3298 26.9603 18.3298 26.9896 18.3298C28.334 16.5478 31.0814 16.1388 32.9812 18.3006C33.8288 17.4826 34.8518 17.0444 36.0501 17.1905C37.2192 17.3073 38.1253 17.9208 38.7975 18.914C39.6159 18.2421 40.4927 17.8624 41.5449 17.9208C43.357 18.0084 44.8476 19.469 44.9937 21.251C45.023 21.4847 45.023 21.7184 45.023 21.9521C45.023 27.444 45.023 32.9651 45.023 38.457C45.023 39.5963 44.6722 40.5311 43.9708 41.4075C42.0418 43.7445 42.3925 42.9265 42.334 45.7893C42.2756 48.2724 42.2463 50.7554 42.1879 53.2093C42.1587 54.1441 42.0125 54.3485 41.0772 54.4946C35.2025 55.517 29.3278 56.5395 23.4238 57.5911C22.8977 57.6787 22.4008 57.7956 21.904 57.9124C21.6409 58.0001 21.3779 58.0001 21.1148 58.0001ZM22.2839 56.1305C28.3925 55.0496 34.4134 53.998 40.4927 52.9464C40.4927 52.7419 40.4927 52.5666 40.4927 52.3621C40.5219 49.8206 40.6096 47.2499 40.6096 44.7085C40.6096 43.3939 40.9311 42.2839 41.8664 41.3199C42.1879 40.9693 42.4509 40.5895 42.7724 40.239C43.1816 39.7716 43.357 39.2458 43.357 38.6323C43.357 36.4998 43.357 34.3673 43.357 32.2348C43.357 32.0888 43.3278 31.9719 43.3278 31.8259C41.3111 32.7606 39.8497 32.2932 38.6221 31.1248C37.0731 32.9067 34.5303 33.1112 32.7182 31.0663C30.643 33.082 27.1357 32.3809 26.3173 29.1967C25.0021 29.1967 23.6868 29.1967 22.3424 29.1967C22.3424 29.4597 22.3424 29.6641 22.3424 29.8686C22.3424 30.8618 22.3424 31.8259 22.3424 32.8191C22.3424 33.4325 21.9916 33.8123 21.4948 33.8123C20.9687 33.8123 20.6472 33.4325 20.6472 32.8191C20.6472 31.8551 20.6472 30.8911 20.6472 29.9271C20.6472 29.6934 20.6472 29.4597 20.6472 29.2552C20.3257 29.2552 20.1211 29.2552 19.9165 29.226C19.4781 29.1383 19.215 28.8462 19.2443 28.3788C19.2735 27.9406 19.5073 27.6777 19.9457 27.5901C20.1211 27.5609 20.2964 27.5609 20.501 27.5609C21.9916 27.5609 23.453 27.5609 24.9436 27.5609C25.8497 27.5609 26.7265 27.3856 27.4864 26.8598C28.334 26.2755 28.8894 25.4868 29.1524 24.4351C29.0063 24.4059 28.9478 24.4059 28.8601 24.4059C25.5574 24.4059 22.2547 24.3767 18.952 24.4059C17.5783 24.4059 16.7599 25.3407 16.7599 26.7429C16.7599 30.3068 16.7599 33.8999 16.7599 37.4638C16.7599 38.2234 17.023 38.8076 17.6075 39.275C18.6889 40.1806 19.7411 41.1154 20.8518 41.9625C21.9624 42.8389 22.4593 43.9782 22.4593 45.3804C22.4301 48.7398 22.4593 52.0992 22.4593 55.4294C22.2839 55.6339 22.2839 55.8384 22.2839 56.1305ZM33.6827 24.8441C33.6534 24.8441 33.6534 24.8441 33.6827 24.8441C33.6827 26.1879 33.6534 27.5316 33.6827 28.8754C33.7119 30.0147 34.5887 30.8618 35.6701 30.8326C36.7808 30.8326 37.6576 29.9563 37.6576 28.7878C37.6576 26.1587 37.6576 23.5003 37.6576 20.8712C37.6576 20.5207 37.5407 20.1409 37.3946 19.8196C37.0146 19.0601 36.1086 18.6803 35.3194 18.8556C34.4134 19.0309 33.7411 19.7027 33.7119 20.6083C33.6242 22.0397 33.6827 23.4419 33.6827 24.8441ZM43.3278 25.1362C43.3278 23.997 43.3278 22.8285 43.3278 21.6892C43.3278 20.5207 42.4509 19.6443 41.3695 19.6151C40.2589 19.5859 39.382 20.4623 39.3528 21.6308C39.3236 23.9677 39.3236 26.3047 39.3528 28.6417C39.3528 29.8394 40.2589 30.6866 41.3987 30.6574C42.5094 30.6281 43.3278 29.7518 43.3278 28.5833C43.3278 27.4148 43.3278 26.2755 43.3278 25.1362ZM28.0125 22.6532C28.6263 22.6532 29.2109 22.6532 29.7662 22.6532C30.5553 22.6532 30.8768 23.0037 30.8184 23.8217C30.6722 25.6621 29.8539 27.1227 28.334 28.1743C27.9541 28.4372 27.9248 28.6709 28.0418 29.0507C28.3048 29.9855 29.2109 30.6281 30.1461 30.5113C31.1399 30.3944 31.8998 29.6057 31.929 28.6125C31.9582 27.8238 31.929 27.0058 31.929 26.2171C31.929 24.3183 31.929 22.3903 31.929 20.4915C31.929 19.4106 31.1106 18.5927 30.0292 18.5343C29.0355 18.4758 28.071 19.2353 27.9833 20.1994C27.9541 20.9881 28.0125 21.7768 28.0125 22.6532ZM22.3132 22.6532C23.6576 22.6532 24.9436 22.6532 26.2589 22.6532C26.2589 21.9813 26.3173 21.3678 26.2589 20.7252C26.1712 19.732 25.2944 18.9724 24.3006 18.9724C23.3361 18.9724 22.4593 19.7027 22.3716 20.6083C22.2547 21.2802 22.3132 21.9521 22.3132 22.6532Z" fill="url(#paint0_radial_484_330)"/>
<path d="M58 29.781C57.737 30.2776 57.357 30.4529 56.8017 30.4237C54.8434 30.3945 52.9144 30.4237 50.9562 30.4237C50.8392 30.4237 50.7223 30.4237 50.6347 30.4237C50.1378 30.3652 49.8163 30.0439 49.8163 29.5765C49.8163 29.1091 50.1086 28.7586 50.6347 28.7294C51.0438 28.7001 51.4823 28.7294 51.8914 28.7294C53.5282 28.7294 55.1357 28.7586 56.7724 28.7294C57.3278 28.7294 57.7662 28.8754 58.0585 29.372C58 29.4889 58 29.6349 58 29.781Z" fill="url(#paint1_radial_484_330)"/>
<path d="M16.263 5.8269C16.38 5.91453 16.6722 6.0606 16.8184 6.29429C17.8998 8.13467 18.952 9.97505 20.0334 11.8154C20.2965 12.2828 20.1795 12.7502 19.7704 13.0131C19.3612 13.276 18.8643 13.1592 18.6013 12.6918C17.5198 10.8514 16.4384 8.98183 15.3862 7.11224C15.0063 6.52799 15.4154 5.8269 16.263 5.8269Z" fill="url(#paint2_radial_484_330)"/>
<path d="M47.595 20.2286C47.3612 20.0533 47.0104 19.9072 46.9228 19.6735C46.8351 19.4106 46.9812 19.0309 47.0689 18.7387C47.0981 18.6219 47.3027 18.5635 47.4196 18.505C49.1733 17.4826 50.9269 16.4894 52.6514 15.467C53.2359 15.1164 53.7328 15.2041 53.9958 15.6422C54.2589 16.0804 54.0835 16.577 53.5282 16.8984C51.7453 17.9208 49.9624 18.9432 48.1795 19.9949C48.0334 20.0533 47.858 20.1117 47.595 20.2286Z" fill="url(#paint3_radial_484_330)"/>
<path d="M40.142 12.7502C39.382 12.7502 38.9729 12.2244 39.1482 11.6694C39.1774 11.5233 39.2651 11.4064 39.3236 11.2896C40.3173 9.56607 41.3111 7.81333 42.334 6.08981C42.4802 5.85611 42.714 5.56399 42.9478 5.53477C43.2109 5.47635 43.5908 5.5932 43.8246 5.76847C44.1461 6.03138 44.0877 6.41114 43.9123 6.76169C42.8601 8.60207 41.8079 10.4424 40.6973 12.2828C40.5511 12.5165 40.2589 12.6334 40.142 12.7502Z" fill="url(#paint4_radial_484_330)"/>
<path d="M54.5219 43.0142C54.4927 43.8905 53.8205 44.2119 53.1482 43.8321C51.5699 42.9265 49.9916 42.021 48.4134 41.1154C48.1503 40.9693 47.858 40.8232 47.6242 40.648C47.215 40.3559 47.0981 39.9177 47.3319 39.5087C47.5658 39.0997 48.0334 38.9537 48.4718 39.1874C50.3424 40.2682 52.2422 41.3491 54.0835 42.4299C54.3173 42.576 54.4342 42.8973 54.5219 43.0142Z" fill="url(#paint5_radial_484_330)"/>
<path d="M12.7557 19.878C12.7557 20.696 12.0543 21.0465 11.3528 20.6668C9.80376 19.7904 8.2547 18.8848 6.73486 17.9792C6.50104 17.8332 6.26722 17.7163 6.0334 17.5702C5.47808 17.2489 5.30271 16.7523 5.56576 16.3141C5.82881 15.8759 6.29645 15.7883 6.85177 16.1096C8.63466 17.1321 10.4175 18.1545 12.2004 19.1769C12.3173 19.2353 12.4342 19.2938 12.4927 19.4106C12.6096 19.5859 12.6973 19.7904 12.7557 19.878Z" fill="url(#paint6_radial_484_330)"/>
<path d="M13.1357 40.794C13.048 40.9109 12.9019 41.203 12.6681 41.3491C10.8267 42.4299 8.95616 43.5108 7.08559 44.5624C6.61795 44.8253 6.12109 44.6793 5.91649 44.2411C5.7119 43.8321 5.82881 43.3647 6.26722 43.1018C8.13779 42.0209 10.0084 40.9109 11.8789 39.8592C12.5219 39.5671 13.1649 39.9469 13.1357 40.794Z" fill="url(#paint7_radial_484_330)"/>
<path d="M30.4384 6.11902C30.4384 7.14145 30.4384 8.16388 30.4384 9.18631C30.4384 9.79977 30.1169 10.1795 29.62 10.2087C29.1232 10.2087 28.7724 9.8582 28.7724 9.24474C28.7724 7.17066 28.7724 5.09659 28.7724 3.02252C28.7724 2.40906 29.1232 2.0293 29.62 2.0293C30.1169 2.0293 30.4384 2.40906 30.4676 3.02252C30.4384 4.04495 30.4384 5.06738 30.4384 6.11902Z" fill="url(#paint8_radial_484_330)"/>
<path d="M6.06263 31.2124C5.03967 31.2124 4.0167 31.2124 2.99374 31.2124C2.37996 31.2124 2 30.8911 2 30.3652C2 29.8686 2.37996 29.5181 2.99374 29.5181C5.06889 29.5181 7.14405 29.5181 9.21921 29.5181C9.86221 29.5181 10.2129 29.8394 10.1837 30.3652C10.1837 30.8618 9.83298 31.1832 9.21921 31.1832C8.16701 31.2124 7.11482 31.2124 6.06263 31.2124Z" fill="url(#paint9_radial_484_330)"/>
<defs>
<radialGradient id="paint0_radial_484_330" cx="0" cy="0" r="1" gradientTransform="matrix(37.7317 -8.07271 8.08536 37.6726 26.7951 31.6292)" gradientUnits="userSpaceOnUse">
<stop stop-color="#FF6035"/>
<stop offset="0.396225" stop-color="#FF6035"/>
<stop offset="1" stop-color="#FFBDAB"/>
</radialGradient>
<radialGradient id="paint1_radial_484_330" cx="0" cy="0" r="1" gradientTransform="matrix(37.7317 -8.07271 8.08536 37.6726 26.7951 31.6292)" gradientUnits="userSpaceOnUse">
<stop stop-color="#FF6035"/>
<stop offset="0.396225" stop-color="#FF6035"/>
<stop offset="1" stop-color="#FFBDAB"/>
</radialGradient>
<radialGradient id="paint2_radial_484_330" cx="0" cy="0" r="1" gradientTransform="matrix(37.7317 -8.07271 8.08536 37.6726 26.7951 31.6292)" gradientUnits="userSpaceOnUse">
<stop stop-color="#FF6035"/>
<stop offset="0.396225" stop-color="#FF6035"/>
<stop offset="1" stop-color="#FFBDAB"/>
</radialGradient>
<radialGradient id="paint3_radial_484_330" cx="0" cy="0" r="1" gradientTransform="matrix(37.7317 -8.07271 8.08536 37.6726 26.7951 31.6292)" gradientUnits="userSpaceOnUse">
<stop stop-color="#FF6035"/>
<stop offset="0.396225" stop-color="#FF6035"/>
<stop offset="1" stop-color="#FFBDAB"/>
</radialGradient>
<radialGradient id="paint4_radial_484_330" cx="0" cy="0" r="1" gradientTransform="matrix(37.7317 -8.07271 8.08536 37.6726 26.7951 31.6292)" gradientUnits="userSpaceOnUse">
<stop stop-color="#FF6035"/>
<stop offset="0.396225" stop-color="#FF6035"/>
<stop offset="1" stop-color="#FFBDAB"/>
</radialGradient>
<radialGradient id="paint5_radial_484_330" cx="0" cy="0" r="1" gradientTransform="matrix(37.7317 -8.07271 8.08536 37.6726 26.7951 31.6292)" gradientUnits="userSpaceOnUse">
<stop stop-color="#FF6035"/>
<stop offset="0.396225" stop-color="#FF6035"/>
<stop offset="1" stop-color="#FFBDAB"/>
</radialGradient>
<radialGradient id="paint6_radial_484_330" cx="0" cy="0" r="1" gradientTransform="matrix(37.7317 -8.07271 8.08536 37.6726 26.7951 31.6292)" gradientUnits="userSpaceOnUse">
<stop stop-color="#FF6035"/>
<stop offset="0.396225" stop-color="#FF6035"/>
<stop offset="1" stop-color="#FFBDAB"/>
</radialGradient>
<radialGradient id="paint7_radial_484_330" cx="0" cy="0" r="1" gradientTransform="matrix(37.7317 -8.07271 8.08536 37.6726 26.7951 31.6292)" gradientUnits="userSpaceOnUse">
<stop stop-color="#FF6035"/>
<stop offset="0.396225" stop-color="#FF6035"/>
<stop offset="1" stop-color="#FFBDAB"/>
</radialGradient>
<radialGradient id="paint8_radial_484_330" cx="0" cy="0" r="1" gradientTransform="matrix(37.7317 -8.07271 8.08536 37.6726 26.7951 31.6292)" gradientUnits="userSpaceOnUse">
<stop stop-color="#FF6035"/>
<stop offset="0.396225" stop-color="#FF6035"/>
<stop offset="1" stop-color="#FFBDAB"/>
</radialGradient>
<radialGradient id="paint9_radial_484_330" cx="0" cy="0" r="1" gradientTransform="matrix(37.7317 -8.07271 8.08536 37.6726 26.7951 31.6292)" gradientUnits="userSpaceOnUse">
<stop stop-color="#FF6035"/>
<stop offset="0.396225" stop-color="#FF6035"/>
<stop offset="1" stop-color="#FFBDAB"/>
</radialGradient>
</defs>
</svg>
