<svg width="60" height="60" viewBox="0 0 60 60" fill="none" xmlns="http://www.w3.org/2000/svg">
<path d="M6.6129 48.0489C6.84332 48.0489 7.07373 48.0489 7.30415 48.0489C13.0645 48.0489 18.5945 48.0489 24.3548 48.0489C25.2765 48.0489 25.5069 48.2844 25.7373 48.9911C25.7373 49.6978 25.2765 49.9333 24.3548 49.9333C18.5945 49.9333 13.0645 49.9333 7.30415 49.9333C7.07373 49.9333 6.84332 49.9333 6.6129 49.9333C6.6129 50.1689 6.6129 50.4044 6.6129 50.8756C6.6129 52.5244 6.6129 54.4089 6.6129 56.0578C6.6129 56.2933 6.38249 56.7644 6.15207 57C5.92166 57.2356 5.46083 57 5.23041 57C5.23041 56.5289 5 56.0578 5 55.8222C5 52.2889 5 48.7556 5.23041 45.2222C5.23041 41.9244 5.46083 38.6267 5.69124 35.3289C5.92166 30.1467 6.15207 24.9644 6.38249 19.7822C6.6129 16.72 6.6129 13.4222 6.84332 10.36C6.6129 6.59111 9.14747 4 12.8341 4C23.6636 4 34.4931 4 45.3226 4C49.0092 4 51.5438 6.59111 51.7742 10.36C52.0046 15.7778 52.235 21.1956 52.4654 26.3778C52.4654 28.0267 52.6959 29.6756 52.6959 31.3244C52.6959 32.0311 52.4654 32.2667 52.0046 32.2667C51.5438 32.2667 51.083 32.0311 51.083 31.3244C51.083 28.9689 50.8525 26.8489 50.8525 24.4933C50.6221 19.5467 50.3917 14.6 50.3917 9.65333C50.3917 7.29778 48.318 5.41333 46.2442 5.41333C35.1843 5.41333 23.894 5.41333 12.8341 5.41333C10.53 5.41333 8.68664 7.29778 8.68664 9.65333C7.99539 17.6622 7.53456 25.2 7.30415 32.9733C7.07373 37.92 6.84332 42.8667 6.6129 47.5778C6.6129 47.8133 6.6129 47.8133 6.6129 48.0489Z" fill="url(#paint0_radial_483_215)"/>
<path d="M26.1982 36.0356C26.8894 38.3911 27.5806 40.7467 28.0415 43.3378C28.7327 46.6356 30.1152 49.4622 31.9585 52.0533C32.6498 52.9956 33.341 53.9378 34.2627 54.4089C34.7235 54.6444 34.9539 55.1156 35.1843 55.5867C35.4147 56.0578 35.1843 56.5289 34.9539 56.7644C34.4931 57 34.0323 56.7644 33.8018 56.5289C33.5714 56.2933 33.5714 56.0578 33.341 56.0578C31.9585 55.1156 31.0369 53.9378 30.1152 52.5244C29.1935 50.8756 28.0415 48.9911 27.3502 47.1067C26.659 45.6933 26.4286 44.0444 26.1982 42.6311C25.7373 40.5111 25.0461 38.3911 24.5853 36.2711C24.3548 35.5644 24.5853 35.3289 25.0461 35.0933C27.5806 33.68 29.8848 34.3867 31.0369 36.9778C31.4977 37.92 31.9585 38.8622 32.4194 39.8044C32.4194 39.5689 32.4194 39.3333 32.4194 39.3333C32.4194 34.1511 32.4194 28.9689 32.4194 23.7867C32.4194 22.1378 33.5714 20.7244 34.9539 20.2533C37.2581 19.7822 39.1014 21.4311 39.1014 23.7867C39.1014 26.6133 39.1014 29.44 39.1014 32.2667C39.1014 32.5022 39.1014 32.7378 39.1014 32.9733C40.9447 32.0311 42.5576 32.5022 43.7097 34.1511C45.553 32.7378 48.0876 33.2089 49.2396 35.5644C49.9309 35.0933 50.8525 34.8578 51.7742 35.0933C53.3871 35.3289 54.5392 36.7422 54.5392 38.3911C54.5392 43.1022 54.5392 48.0489 54.5392 52.76C54.5392 55.1156 52.6959 57 50.3917 57C47.6267 57 44.6313 57 41.8664 57C41.1751 57 40.9447 56.5289 40.9447 56.0578C40.9447 55.5867 41.4055 55.1156 41.8664 55.1156C44.6313 55.1156 47.3963 55.1156 50.1613 55.1156C52.0046 55.1156 52.9263 53.9378 52.9263 52.2889C52.9263 47.8133 52.9263 43.1022 52.9263 38.6267C52.9263 37.92 52.6959 37.4489 52.0046 36.9778C51.5438 36.7422 50.8525 36.7422 50.1613 36.9778C49.7005 37.2133 49.47 37.6844 49.2396 38.3911C49.2396 39.0978 48.7788 39.3333 48.318 39.3333C47.8571 39.3333 47.3963 38.8622 47.3963 38.1556C47.3963 37.6844 47.3963 37.2133 47.3963 36.5067C47.3963 35.5644 46.7051 34.8578 45.7834 34.6222C44.8618 34.6222 43.9401 35.3289 43.9401 36.2711C43.9401 36.9778 43.4793 37.2133 43.0184 37.2133C42.5576 37.2133 42.3272 36.7422 42.3272 36.0356C42.3272 35.8 42.3272 35.5644 42.3272 35.3289C42.3272 34.3867 41.6359 33.68 40.7143 33.68C39.7926 33.68 39.1014 34.3867 38.871 35.3289V35.5644C38.871 36.0356 38.4101 36.2711 37.9493 36.2711C37.4885 36.2711 37.2581 36.0356 37.0276 35.5644C37.0276 35.3289 37.0276 35.0933 37.0276 35.0933C37.0276 31.0889 37.0276 27.32 37.0276 23.3156C37.0276 22.3733 36.3364 21.6667 35.6452 21.4311C34.7235 21.1956 34.0323 21.9022 33.8018 22.8444C33.8018 23.08 33.8018 23.3156 33.8018 23.5511C33.8018 29.9111 33.8018 36.5067 33.8018 42.8667C33.8018 43.1022 33.8018 43.1022 33.8018 43.3378C33.8018 44.0444 33.5714 44.28 33.1106 44.5156C32.6498 44.5156 32.4194 44.28 32.1889 43.8089C31.7281 42.8667 31.4977 42.16 31.0369 41.2178C30.3456 40.04 29.8848 38.6267 29.1935 37.4489C28.7327 36.5067 28.0415 35.8 26.8894 35.8C26.8894 35.8 26.659 36.0356 26.1982 36.0356Z" fill="url(#paint1_radial_483_215)"/>
<path d="M10.53 26.1422C10.7604 22.3733 10.7604 18.84 10.9908 15.0711C10.9908 13.4222 11.2212 12.0089 11.2212 10.36C11.2212 8.47556 12.6037 7.53333 14.2166 7.53333C23.4332 7.53333 32.6498 7.53333 41.8664 7.53333C42.788 7.53333 43.9401 7.53333 44.8618 7.53333C46.4747 7.53333 47.3963 8.47556 47.6267 10.1244C47.8571 12.7156 47.8571 15.3067 47.8571 18.1333C48.0876 21.9022 48.0876 25.9067 48.318 29.6756C48.318 29.9111 48.318 30.1467 48.318 30.3822C48.318 30.8533 47.8571 31.3244 47.3963 31.3244C46.9355 31.3244 46.4747 30.8533 46.4747 30.3822C46.4747 28.7333 46.2442 26.8489 46.2442 25.2C46.0138 20.4889 46.0138 15.7778 45.7834 10.8311C45.7834 10.5956 45.7834 10.36 45.7834 10.1244C45.7834 9.41778 45.3226 9.18222 44.8618 9.18222H44.6313C34.4931 9.18222 24.3548 9.18222 14.2166 9.18222C13.2949 9.18222 12.8341 9.41778 12.8341 10.36C12.6037 16.0133 12.3733 21.9022 12.3733 27.5556C11.9124 32.5022 11.682 36.9778 11.682 41.6889C11.682 42.6311 11.9124 42.8667 12.8341 42.8667C16.0599 42.8667 19.5161 42.8667 22.7419 42.8667C22.9723 42.8667 23.2028 42.8667 23.2028 42.8667C23.6636 42.8667 23.894 43.3378 23.894 43.8089C23.894 44.28 23.6636 44.5156 23.2028 44.7511C22.9723 44.7511 22.9723 44.7511 22.7419 44.7511C19.2857 44.7511 16.0599 44.7511 12.6037 44.7511C10.7604 44.7511 9.60829 43.5733 9.83871 41.6889C10.0691 36.2711 10.2995 31.3244 10.53 26.1422Z" fill="url(#paint2_radial_483_215)"/>
<path d="M18.8249 55.1156C16.7512 55.1156 14.9078 55.1156 12.8341 55.1156C12.1429 55.1156 11.9124 54.88 11.9124 54.1733C11.9124 53.7022 12.3733 53.4667 12.8341 53.4667C13.0645 53.4667 13.0645 53.4667 13.2949 53.4667C16.7512 53.4667 20.2074 53.4667 23.6636 53.4667C23.894 53.4667 24.3548 53.4667 24.5853 53.4667C25.2765 53.4667 25.7373 53.7022 25.7373 54.1733C25.7373 54.6444 25.2765 55.1156 24.8157 55.1156C22.7419 55.1156 20.6682 55.1156 18.8249 55.1156Z" fill="url(#paint3_radial_483_215)"/>
<defs>
<radialGradient id="paint0_radial_483_215" cx="0" cy="0" r="1" gradientTransform="matrix(33.3437 -7.65933 7.14507 35.7435 26.9116 32.0842)" gradientUnits="userSpaceOnUse">
<stop stop-color="#FF6035"/>
<stop offset="0.396225" stop-color="#FF6035"/>
<stop offset="1" stop-color="#FFBDAB"/>
</radialGradient>
<radialGradient id="paint1_radial_483_215" cx="0" cy="0" r="1" gradientTransform="matrix(33.3437 -7.65933 7.14507 35.7435 26.9116 32.0842)" gradientUnits="userSpaceOnUse">
<stop stop-color="#FF6035"/>
<stop offset="0.396225" stop-color="#FF6035"/>
<stop offset="1" stop-color="#FFBDAB"/>
</radialGradient>
<radialGradient id="paint2_radial_483_215" cx="0" cy="0" r="1" gradientTransform="matrix(33.3437 -7.65933 7.14507 35.7435 26.9116 32.0842)" gradientUnits="userSpaceOnUse">
<stop stop-color="#FF6035"/>
<stop offset="0.396225" stop-color="#FF6035"/>
<stop offset="1" stop-color="#FFBDAB"/>
</radialGradient>
<radialGradient id="paint3_radial_483_215" cx="0" cy="0" r="1" gradientTransform="matrix(33.3437 -7.65933 7.14507 35.7435 26.9116 32.0842)" gradientUnits="userSpaceOnUse">
<stop stop-color="#FF6035"/>
<stop offset="0.396225" stop-color="#FF6035"/>
<stop offset="1" stop-color="#FFBDAB"/>
</radialGradient>
</defs>
</svg>
