<svg width="60" height="60" viewBox="0 0 60 60" fill="none" xmlns="http://www.w3.org/2000/svg">
<path d="M4 56.9851V55.6544L5.13593 55.2657C5.10603 55.0116 5.09109 54.7425 5.0612 54.4883C4.98646 53.7258 4.91173 52.9185 4.85195 52.1261C4.59786 48.3884 4.37366 44.7405 4.17936 41.6606C4.13452 40.8533 4.37366 40.1207 4.86689 39.5975C5.36012 39.0742 6.07755 38.7752 6.88466 38.7752C9.08178 38.7752 11.2789 38.7752 13.476 38.7752H21.7115C21.7264 38.6705 21.7414 38.5659 21.7713 38.4612C21.846 38.0575 21.9208 37.624 22.0403 37.2203L22.1151 36.9661C22.3243 36.2934 22.5485 35.6056 22.9371 35.0226C23.3257 34.4544 23.4004 33.8415 23.4752 33.1836C23.4901 33.0042 23.52 32.8398 23.5499 32.6604C23.8488 30.657 24.1478 28.6237 24.4318 26.6502C24.9549 23.0621 25.4929 19.3543 26.1058 15.7213C26.9428 10.7278 31.3071 7.10973 36.4935 7.10973C36.5832 7.10973 36.6729 7.10973 36.7625 7.10973C42.0237 7.24429 46.3581 11.1464 47.0905 16.409C47.5389 19.6832 48.0471 22.9873 48.5254 26.2017C48.7496 27.6519 48.9588 29.1021 49.183 30.5523C49.2129 30.7915 49.2578 31.0158 49.2876 31.255C49.3624 31.7783 49.4371 32.3315 49.5268 32.8697C49.5417 32.9893 49.5866 33.079 49.6165 33.1089C51.6641 34.4843 52.2769 36.5774 52.6058 38.4463C53.3232 42.453 54.0854 46.5196 54.8178 50.4516C55.1018 51.9915 55.4007 53.5315 55.6847 55.0714C55.6997 55.1162 55.6997 55.1611 55.7146 55.191C55.7594 55.2059 55.8192 55.2059 55.879 55.2209C56.163 55.2657 56.4619 55.3255 56.7011 55.5049C56.8804 55.6395 56.9851 55.8039 57 55.9983C57.0299 56.3571 56.7758 56.6561 56.6114 56.8505L56.5217 56.9552L4 56.9851ZM15.5835 40.4945C12.6988 40.4945 9.81416 40.4945 6.94444 40.4945C6.58573 40.4945 6.30175 40.5842 6.13734 40.7786C5.95798 40.9729 5.88325 41.257 5.8982 41.6457L5.94303 42.4231C5.97293 42.9165 6.00282 43.4099 6.03271 43.8883L6.19712 46.4598C6.36153 48.9566 6.52594 51.543 6.7053 54.0996C6.76509 55.0415 7.01918 55.2807 8.00564 55.2807H26.0759L26.031 54.578C25.9862 53.8753 25.9413 53.1876 25.8965 52.4999L25.6873 49.3154C25.5079 46.7289 25.3435 44.1275 25.1641 41.541C25.1193 40.8384 24.7755 40.5244 24.073 40.5244C21.2332 40.4945 18.4083 40.4945 15.5835 40.4945ZM36.8971 55.2508C36.6131 54.4135 35.7761 53.8454 34.7896 53.8305C33.8181 53.8305 32.8615 53.8155 31.89 53.8155C31.1128 53.8155 30.3356 53.8155 29.5584 53.8155C28.9605 53.8155 28.3477 53.8155 27.7499 53.8155C27.7349 53.8155 27.7349 53.8155 27.72 53.8155L27.8096 55.2358H36.8971V55.2508ZM46.4329 55.2508L45.8051 51.0795C45.6706 50.1676 45.5361 49.2705 45.3866 48.3585C45.297 47.8203 45.551 47.4166 46.0293 47.312C46.1041 47.297 46.1788 47.2821 46.2535 47.2821C46.6571 47.2821 46.956 47.5512 47.0457 47.9997C47.0905 48.1791 47.1055 48.3585 47.1354 48.523L48.1517 55.2508H53.9509C53.6221 53.5315 53.3082 51.8121 52.9794 50.0928C52.2321 46.1159 51.4698 42.0045 50.7076 37.9529C50.3339 35.9495 49.2578 34.6638 47.4193 34.0209C45.8948 33.4827 44.6244 33.0939 43.3988 32.765C42.7262 32.5856 42.0536 32.481 41.3212 32.3464C41.112 32.3165 40.9027 32.2716 40.6935 32.2417C40.7233 33.2733 40.6187 34.3946 39.8714 35.3814C39.0792 36.4279 38.018 36.9961 36.7476 37.0858C36.6579 37.0858 36.5533 37.1007 36.4636 37.1007C35.5519 37.1007 34.6999 36.8166 33.9676 36.2635C32.8017 35.3814 32.2487 34.1405 32.2786 32.481C32.2637 32.481 32.2637 32.481 32.2637 32.481C31.7107 32.6454 31.1576 32.7949 30.6196 32.9444C29.3342 33.2883 28.0189 33.6621 26.7634 34.1106C24.7456 34.8282 23.7442 36.2485 23.4752 38.82C23.52 38.82 23.5649 38.82 23.5948 38.82C23.6844 38.82 23.7592 38.82 23.819 38.8051C23.9236 38.7901 24.0133 38.7901 24.1179 38.7901C25.6873 38.7901 26.8082 39.9563 26.883 41.6906C26.9726 43.679 27.1221 45.7123 27.2566 47.6708C27.3164 48.4333 27.3612 49.1808 27.421 49.9433C27.4509 50.4965 27.4958 51.0496 27.5406 51.6028C27.5556 51.7673 27.5705 51.9467 27.5854 52.1111H27.9741C28.6466 52.1111 29.3043 52.1111 29.9769 52.1111C30.6495 52.1111 31.3071 52.1111 31.9797 52.1111C32.8914 52.1111 33.8032 52.1111 34.7298 52.1111C36.5533 52.1261 38.0778 53.2175 38.6159 54.9219C38.6458 55.0265 38.6757 55.1461 38.7056 55.2508H46.4329ZM34.0274 31.1952C34.0124 31.868 34.0124 32.4959 34.0423 33.1238C34.117 34.3647 35.1782 35.3515 36.4786 35.3664H36.5085C37.7789 35.3664 38.8849 34.3797 38.9597 33.1687C39.0045 32.481 38.9896 31.7932 38.9896 31.0756C38.9896 30.8962 38.9896 30.7168 38.9746 30.5374C38.1077 30.9111 37.2109 31.1055 36.3291 31.1055C35.5818 31.1055 34.8046 30.9709 34.0274 30.7018C34.0423 30.8663 34.0423 31.0307 34.0274 31.1952ZM36.4786 8.82905C35.7163 8.82905 34.9391 8.93371 34.1768 9.12807C30.6196 10.0401 28.1684 12.9554 27.6153 16.9024C27.2118 19.8626 26.7484 22.8527 26.315 25.7532C26.1207 27.0838 25.9114 28.4144 25.7171 29.745C25.5976 30.5523 25.478 31.3746 25.3584 32.1969L25.2688 32.8547C25.5378 32.7202 25.7919 32.6006 26.0759 32.481C27.9591 31.7035 29.947 31.1354 32.159 30.7317H32.174C32.2188 30.7168 32.2936 30.7168 32.3384 30.7018C32.3982 30.4776 32.2637 29.73 32.1292 29.5805C30.2758 28.1154 29.2146 26.411 28.9755 24.5123C28.7812 22.9425 28.7662 21.3427 28.7662 19.7879C28.7662 19.2048 28.7662 18.6068 28.7513 18.0087C28.7513 17.7845 28.826 17.5901 28.9605 17.4406C29.1249 17.2762 29.3491 17.1865 29.6331 17.1865C30.1413 17.1865 30.6196 17.1865 31.1128 17.1865H32.6971C32.5626 16.2296 32.6373 15.3326 32.9512 14.4804C33.0409 14.2561 33.295 13.5684 33.8779 13.5684C33.9975 13.5684 34.132 13.5983 34.2515 13.6581C34.9989 14.0319 34.7149 14.6897 34.5654 15.0485L34.5206 15.1532C34.5056 15.1831 34.5056 15.198 34.4907 15.2279C33.9676 16.723 34.5804 18.0685 36.075 18.6666C36.5832 18.8759 37.1213 18.9805 37.6593 18.9805C38.0629 18.9805 38.4963 18.9207 38.9447 18.8011C39.5426 18.6516 40.1404 18.4872 40.7383 18.3227C41.5006 18.1134 42.2778 17.919 43.04 17.7247C43.2045 17.6798 43.339 17.6649 43.4735 17.6649C43.8621 17.6649 44.3105 17.8443 44.3105 18.7264C44.3105 19.2197 44.3105 19.7131 44.3105 20.2065C44.3105 20.8494 44.3105 21.5072 44.3105 22.165C44.3404 25.1402 43.1746 27.5921 40.8728 29.431C40.7981 29.4908 40.7383 29.5955 40.7383 29.6254C40.7084 29.8795 40.7233 30.1487 40.7233 30.4327C40.7233 30.4626 40.7233 30.4925 40.7233 30.5224C43.1148 30.8214 45.4016 31.3896 47.6884 32.2417C47.6884 32.2118 47.6884 32.1819 47.6734 32.167C47.4193 30.5075 47.1802 28.833 46.9261 27.1735C46.403 23.7199 45.8649 20.1616 45.3717 16.6482C44.714 12.1182 40.9774 8.82905 36.4786 8.82905ZM30.4253 18.9058C30.4253 19.3244 30.4253 19.743 30.4253 20.1616C30.4253 21.1783 30.4253 22.2248 30.4701 23.2415C30.5149 24.4674 30.9633 25.6784 31.8003 26.8147C33.011 28.4592 34.5953 29.3712 36.2843 29.3712C36.9569 29.3712 37.6294 29.2217 38.2871 28.9526C39.8714 28.2798 41.0522 27.1585 41.8294 25.6336C42.3226 24.6618 42.5767 23.6302 42.5917 22.5687C42.5917 21.8062 42.5917 21.0587 42.5917 20.2812V19.6234C42.2927 19.6982 42.0087 19.7729 41.7098 19.8626C40.7981 20.1018 39.9162 20.341 39.0344 20.5653C38.4365 20.7148 37.8686 20.7896 37.3305 20.7896C35.8209 20.7896 34.5355 20.1915 33.5042 18.9955C33.4743 18.9506 33.4295 18.9357 33.4146 18.9207C32.7569 18.9207 32.0993 18.9058 31.5612 18.9058H30.4253Z" fill="url(#paint0_radial_483_172)"/>
<path d="M4.29893 55.8787C4.71743 55.7292 5.12098 55.5946 5.4498 55.475C5.34518 54.3986 5.22561 53.2623 5.15087 52.1111C4.91173 48.6276 4.68754 45.1441 4.47829 41.6457C4.38861 40.1656 5.39002 39.0742 6.88466 39.0742C11.6974 39.0742 16.4952 39.0742 21.308 39.0742C21.5172 39.0742 21.7115 39.0742 21.9656 39.0742C22.0852 38.4762 22.145 37.8781 22.3243 37.31C22.5485 36.5924 22.7727 35.8149 23.1912 35.202C23.7293 34.4245 23.7143 33.5574 23.8488 32.7202C24.7008 27.0838 25.4631 21.4175 26.4047 15.7961C27.2566 10.7876 31.6808 7.30409 36.7625 7.43865C41.9191 7.5732 46.0891 11.3856 46.7916 16.4838C47.4343 21.2082 48.1816 25.9176 48.8841 30.642C49.0037 31.4195 49.1083 32.1969 49.2279 32.9594C49.2578 33.1089 49.3175 33.3032 49.4371 33.3929C51.2755 34.6189 51.9332 36.4578 52.3068 38.536C53.2933 44.0826 54.3545 49.6144 55.4007 55.1611C55.4157 55.2807 55.4605 55.3853 55.4755 55.475C55.8342 55.5647 56.2527 55.5797 56.5217 55.774C56.8954 56.0581 56.6263 56.402 56.3872 56.686C39.0344 56.686 21.6667 56.686 4.31387 56.686C4.29893 56.4169 4.29893 56.1478 4.29893 55.8787ZM54.2947 55.5498C54.2947 55.49 54.2947 55.4451 54.2947 55.4152C53.2036 49.5695 52.0976 43.7388 51.0214 37.8931C50.6478 35.8299 49.5118 34.4245 47.5389 33.7368C46.2087 33.2733 44.8635 32.8398 43.5034 32.481C42.5169 32.2118 41.4856 32.0922 40.4095 31.8979C40.4842 33.1537 40.3945 34.2601 39.6622 35.2169C38.9298 36.1738 37.9732 36.7269 36.7476 36.8017C35.791 36.8615 34.9241 36.6073 34.1619 36.0243C32.8914 35.0674 32.5178 33.7069 32.6074 32.167C32.4281 32.1819 32.2936 32.167 32.1889 32.1969C30.3505 32.7351 28.4673 33.1836 26.6588 33.8265C24.073 34.7385 23.3257 36.7718 23.1464 39.119C23.3855 39.119 23.6246 39.134 23.8638 39.119C25.3285 38.9845 26.5243 39.9563 26.599 41.7205C26.7335 44.4714 26.9428 47.2372 27.1371 49.9882C27.1968 50.7955 27.2566 51.6028 27.3164 52.455C27.5556 52.455 27.7349 52.455 27.9292 52.455C30.2011 52.455 32.458 52.4401 34.7298 52.455C36.4188 52.47 37.8387 53.5016 38.3319 55.0564C38.3917 55.2358 38.4365 55.4152 38.4814 55.5946C41.2465 55.5946 43.9817 55.5946 46.7766 55.5946C46.5823 54.2939 46.388 53.0082 46.1937 51.7374C46.0293 50.6161 45.85 49.4798 45.6856 48.3585C45.6258 48.0147 45.7304 47.7306 46.1041 47.6559C46.4628 47.5811 46.7019 47.7456 46.7766 48.1044C46.8215 48.2838 46.8364 48.4781 46.8663 48.6576C47.2101 50.9599 47.5688 53.2623 47.9126 55.5946C50.0499 55.5498 52.1574 55.5498 54.2947 55.5498ZM26.4047 55.5647C26.3299 54.4883 26.2552 53.4717 26.1954 52.455C25.9563 48.7921 25.7022 45.1441 25.4631 41.4812C25.4033 40.6141 24.9399 40.1805 24.073 40.1805C18.3635 40.1805 12.654 40.1805 6.94444 40.1805C6.01777 40.1805 5.53948 40.7188 5.59927 41.6457C5.64411 42.3932 5.68895 43.1408 5.74873 43.8883C5.97293 47.297 6.19712 50.6908 6.43627 54.0996C6.511 55.2209 6.91455 55.5498 8.03553 55.5498C13.9693 55.5498 19.903 55.5498 25.8367 55.5498C25.9862 55.5647 26.1805 55.5647 26.4047 55.5647ZM48.0023 32.6903C47.9873 32.4511 47.9873 32.2866 47.9574 32.1221C47.1802 26.9492 46.388 21.7763 45.6557 16.6034C44.8635 11.0268 39.5426 7.43865 34.1021 8.84401C30.3804 9.80085 27.8844 12.8059 27.3164 16.8575C26.7186 21.1484 26.0609 25.4243 25.4182 29.7001C25.2389 30.9111 25.0595 32.1221 24.8801 33.363C25.3435 33.1388 25.747 32.9295 26.1655 32.7501C28.1086 31.9427 30.1263 31.3896 32.1889 31.0158C32.3085 30.9859 32.4729 30.9709 32.5477 30.8812C32.742 30.642 32.5477 29.5357 32.2936 29.3413C30.6943 28.0855 29.4986 26.4858 29.2445 24.4674C28.9755 22.3295 29.0651 20.1467 29.0054 17.9938C28.9904 17.6499 29.2445 17.4855 29.5883 17.4855C30.0815 17.4855 30.5747 17.4855 31.068 17.4855C31.7107 17.4855 32.3384 17.4855 33.011 17.4855C32.8017 16.4539 32.8615 15.512 33.1904 14.585C33.4145 13.9721 33.7135 13.7329 34.0722 13.9272C34.5953 14.1963 34.3861 14.6 34.2366 14.9887C34.2217 15.0336 34.1918 15.0784 34.1768 15.1233C33.5939 16.7828 34.2964 18.2928 35.9255 18.9506C36.927 19.3543 37.9433 19.3693 38.9896 19.1001C40.3646 18.7413 41.7248 18.3825 43.0849 18.0237C43.7126 17.8592 43.9817 18.0685 43.9817 18.7264C43.9817 19.8626 43.9817 21.0138 43.9817 22.1501C44.0116 25.0355 42.9055 27.3828 40.6486 29.1769C40.529 29.2666 40.4095 29.431 40.3945 29.5805C40.3646 29.9693 40.3796 30.358 40.3796 30.7766C43.04 31.0756 45.5361 31.7185 48.0023 32.6903ZM30.1712 18.6068C30.1562 18.7413 30.1263 18.831 30.1263 18.9058C30.1413 20.356 30.1114 21.8062 30.1712 23.2564C30.231 24.6319 30.7391 25.8728 31.5612 26.9941C33.3398 29.446 35.9255 30.2832 38.4067 29.2217C40.0508 28.519 41.2913 27.3678 42.0984 25.7681C42.6066 24.7664 42.8906 23.7049 42.8906 22.5687C42.8906 21.4773 42.8906 20.3709 42.8906 19.2347C41.5305 19.5935 40.26 19.9374 38.9746 20.2663C36.9419 20.7896 35.1633 20.4307 33.7284 18.7862C33.6537 18.7114 33.5341 18.6068 33.4444 18.6068C32.3534 18.6068 31.2623 18.6068 30.1712 18.6068ZM39.2885 30.0739C37.465 30.9859 35.6416 31.0457 33.7434 30.2683C33.7434 31.2849 33.6985 32.2118 33.7583 33.1537C33.848 34.574 35.0587 35.6654 36.4786 35.6804C37.8985 35.6953 39.1689 34.6189 39.2735 33.2135C39.3333 32.1819 39.2885 31.1504 39.2885 30.0739ZM27.5406 55.5498C30.8288 55.5498 34.0572 55.5498 37.2857 55.5498C37.1063 54.4135 36.0601 53.5464 34.8046 53.5315C32.458 53.5165 30.1114 53.5315 27.7648 53.5315C27.6602 53.5315 27.5705 53.5464 27.421 53.5614C27.4509 54.2341 27.4808 54.8621 27.5406 55.5498Z" fill="url(#paint1_radial_483_172)"/>
<path d="M12.2803 20.2663C8.17005 20.2663 4.73237 17.3958 4.10462 13.4488C4.08968 13.374 4.07473 13.2993 4.04484 13.2245C4.02989 13.1797 4.01495 13.1348 4.01495 13.09L4 13.0451V11.2212L4.01495 11.1913C4.04484 11.0567 4.07473 10.9371 4.10462 10.8025C4.16441 10.5185 4.23914 10.2344 4.31387 9.95035C5.28539 6.4519 8.49887 4 12.1309 4C12.6241 4 13.1173 4.04485 13.6105 4.13456C17.7358 4.91199 20.6503 8.76925 20.2318 12.9405C19.8283 16.9323 16.4504 20.1467 12.5344 20.2513C12.4447 20.2663 12.37 20.2663 12.2803 20.2663ZM12.1458 5.71932C10.427 5.71932 8.81275 6.3921 7.60209 7.6031C6.39143 8.8141 5.71884 10.4288 5.71884 12.1481C5.71884 15.6764 8.6035 18.547 12.1458 18.547H12.1607C15.6881 18.532 18.5429 15.6615 18.5429 12.1331C18.5429 8.6048 15.6732 5.73427 12.1458 5.71932Z" fill="url(#paint2_radial_483_172)"/>
<path d="M4.29893 11.266C4.40355 10.8474 4.47829 10.4437 4.59786 10.0251C5.674 6.13794 9.58996 3.68604 13.5657 4.43357C17.5564 5.1811 20.3514 8.88886 19.9478 12.9106C19.5443 16.7529 16.3009 19.8477 12.5344 19.9673C8.43909 20.0869 5.0313 17.321 4.40355 13.389C4.38861 13.2544 4.34377 13.1348 4.29893 13.0003C4.29893 12.4172 4.29893 11.8491 4.29893 11.266ZM18.8418 12.1331C18.8418 8.42539 15.8376 5.43526 12.1458 5.43526C8.42414 5.43526 5.41991 8.44034 5.41991 12.163C5.41991 15.8858 8.43909 18.8759 12.1607 18.8609C15.8675 18.831 18.8418 15.8409 18.8418 12.1331Z" fill="url(#paint3_radial_483_172)"/>
<path d="M16.3457 28.1602C16.0917 28.1602 15.8226 28.1154 15.5536 28.0257C14.5671 27.7117 13.9842 26.9791 13.8497 25.9027C13.7152 24.8561 14.1486 24.0189 15.1052 23.4807C16.5699 22.6584 18.1842 22.4341 19.5742 22.3145H19.6041C19.6937 22.3145 19.7685 22.3145 19.8283 22.3145C19.888 22.3145 19.9329 22.3145 19.9777 22.3145C20.0375 22.3145 20.0973 22.3145 20.1571 22.3145C20.5158 22.3444 20.8147 22.5238 20.9343 22.8079C21.0688 23.092 21.024 23.4059 20.8147 23.69L20.6802 23.8843C19.888 24.9907 19.051 26.1419 18.1991 27.2183C17.6909 27.8463 17.0632 28.1602 16.3457 28.1602ZM18.2589 24.2133C17.2724 24.3777 16.54 24.6319 15.8824 25.0206C15.5835 25.2 15.4788 25.4392 15.5386 25.798C15.5835 26.112 15.7479 26.3063 16.0468 26.3811C16.1365 26.411 16.2411 26.426 16.3158 26.426C16.5251 26.426 16.7045 26.3363 16.839 26.1718C17.2575 25.6186 17.661 25.0505 18.0945 24.4375C18.1543 24.3628 18.1991 24.288 18.2589 24.2133Z" fill="url(#paint4_radial_483_172)"/>
<path d="M19.5891 22.6135C19.8432 22.6135 19.9777 22.5986 20.1122 22.6135C20.6204 22.6584 20.8596 23.1069 20.5606 23.5255C19.7087 24.7066 18.8567 25.9027 17.945 27.0539C17.3621 27.7865 16.555 28.0257 15.6582 27.7416C14.7465 27.4575 14.2682 26.7698 14.1486 25.8578C14.029 24.9159 14.4177 24.2133 15.2547 23.7348C16.6297 22.9574 18.1393 22.7331 19.5891 22.6135ZM18.9016 23.8096C17.7059 23.9591 16.6746 24.1983 15.7329 24.7515C15.3144 24.9907 15.165 25.3645 15.2397 25.8429C15.2995 26.2764 15.5536 26.5605 15.9721 26.6801C16.4055 26.7997 16.8091 26.71 17.0781 26.3661C17.676 25.5588 18.2439 24.7365 18.9016 23.8096Z" fill="url(#paint5_radial_483_172)"/>
<path d="M54.5039 20.6849C53.9958 20.6849 53.5025 20.5205 53.0691 20.2214C51.8285 19.3394 50.7225 18.5171 49.6912 17.7247C49.4819 17.5752 49.183 17.1267 49.3175 16.7977C49.4371 16.5137 49.751 16.1848 50.0947 16.11C50.8869 15.9456 51.6791 15.811 52.3965 15.6914C52.6356 15.6465 52.8598 15.6166 53.0691 15.5718L53.1139 15.5568H53.1588C53.3979 15.5867 53.6221 15.6017 53.8314 15.6316C54.2499 15.6764 54.6086 15.7063 54.9673 15.7811C56.0285 15.9755 56.7907 16.7529 56.9552 17.7994C57.1046 18.8011 56.731 19.6533 55.8641 20.2513C55.4605 20.5354 54.9822 20.6849 54.5039 20.6849ZM52.3816 17.5453C52.9495 17.9788 53.4876 18.3825 54.0257 18.8011C54.1751 18.9207 54.3246 18.9656 54.4741 18.9656C54.6086 18.9656 54.7431 18.9207 54.8776 18.846C55.1765 18.6666 55.311 18.4124 55.2513 18.0835C55.1915 17.7396 54.9972 17.5453 54.6385 17.4855C54.2349 17.3958 53.8314 17.3659 53.383 17.3659C53.0242 17.3659 52.6506 17.3958 52.2321 17.4406L52.3816 17.5453Z" fill="url(#paint6_radial_483_172)"/>
<path d="M53.1139 15.8708C53.8613 15.9605 54.3844 15.9904 54.9075 16.0801C55.8491 16.2595 56.5068 16.9173 56.6562 17.8443C56.7907 18.7563 56.447 19.4889 55.6997 20.0121C54.9673 20.5205 54.0107 20.5205 53.2485 19.9822C52.1125 19.1749 50.9915 18.3377 49.8706 17.4855C49.7062 17.3659 49.5417 17.0519 49.5866 16.9173C49.6763 16.708 49.9303 16.4539 50.1396 16.409C51.2008 16.1848 52.262 16.0203 53.1139 15.8708ZM51.4997 17.2463C52.3218 17.8742 53.084 18.4573 53.8463 19.0403C54.22 19.3244 54.6385 19.3394 55.042 19.1001C55.4456 18.8609 55.6399 18.4872 55.5502 18.0237C55.4605 17.5602 55.1765 17.2762 54.7132 17.1865C53.652 16.9622 52.6207 17.037 51.4997 17.2463Z" fill="url(#paint7_radial_483_172)"/>
<path d="M53.7566 28.4592C52.8598 28.4144 52.1125 27.8762 51.7239 26.9642C51.1111 25.5439 50.6179 24.3628 50.1844 23.2415C50.0649 22.9574 50.0798 22.4939 50.2891 22.2547C50.4535 22.0604 50.7673 21.9856 51.0065 21.9856C51.0962 21.9856 51.1858 22.0006 51.2606 22.0155C53.1588 22.5537 54.5338 23.2863 55.6249 24.3329C56.3723 25.0654 56.5666 25.9625 56.1779 26.9492C55.8192 27.8911 54.9224 28.4592 53.7566 28.4592ZM52.5908 24.4824C52.83 25.1103 53.0691 25.7083 53.3082 26.3063C53.4278 26.6054 53.6371 26.7399 53.9659 26.7399H53.9958C54.2947 26.7399 54.489 26.6054 54.5936 26.3362C54.7132 26.0372 54.6684 25.7831 54.4143 25.5588C53.9061 25.0654 53.3082 24.6767 52.531 24.3179C52.546 24.3628 52.5609 24.4226 52.5908 24.4824Z" fill="url(#paint8_radial_483_172)"/>
<path d="M53.7716 28.1602C53.0392 28.1303 52.3666 27.6968 52.0079 26.8595C51.4698 25.6336 50.9616 24.3927 50.4684 23.1518C50.3937 22.9574 50.3937 22.6135 50.5133 22.464C50.6328 22.3295 50.9766 22.2697 51.1858 22.3145C52.7552 22.7481 54.2349 23.4059 55.4157 24.5571C56.0733 25.2 56.2377 25.9774 55.9089 26.8446C55.595 27.6519 54.8328 28.1602 53.7716 28.1602ZM51.978 23.7647C52.3517 24.7066 52.6805 25.5738 53.0243 26.411C53.1887 26.8296 53.5175 27.0389 53.9808 27.0389C54.3993 27.024 54.6833 26.8296 54.8477 26.4409C55.0271 26.0073 54.9224 25.6336 54.5936 25.3196C53.8762 24.6319 53.0093 24.1535 51.978 23.7647Z" fill="url(#paint9_radial_483_172)"/>
<path d="M18.6176 35.3664C17.7806 35.3664 17.0034 34.9179 16.555 34.1704C16.1215 33.4378 16.0917 32.5707 16.4803 31.853C17.4368 30.0889 19.0361 28.9975 20.3065 28.2499C20.4411 28.1752 20.5905 28.1303 20.725 28.1303C20.9492 28.1303 21.1734 28.235 21.3378 28.4144C21.5023 28.6087 21.577 28.8629 21.5471 29.132L21.5322 29.2815C21.3528 30.6719 21.1734 32.0922 20.9343 33.4976C20.7699 34.5591 19.7535 35.3664 18.6176 35.3664ZM19.5443 30.8962C18.9464 31.3896 18.498 31.8979 18.1244 32.4511C17.8703 32.8248 17.8553 33.0939 18.0795 33.378C18.214 33.5574 18.3785 33.6471 18.5728 33.6471C18.6475 33.6471 18.7222 33.6322 18.797 33.6172C19.1258 33.5275 19.2752 33.3182 19.3201 32.8996C19.3799 32.2866 19.4546 31.6886 19.5293 31.0457L19.5443 30.8962Z" fill="url(#paint10_radial_483_172)"/>
<path d="M18.6176 35.0674C17.0781 35.0674 16.0169 33.363 16.7493 32.0025C17.6012 30.4477 18.9614 29.4011 20.471 28.519C20.8745 28.2798 21.3229 28.6237 21.2631 29.1021C21.0838 30.5523 20.8895 32.0025 20.6503 33.4527C20.5008 34.3797 19.5592 35.0824 18.6176 35.0674ZM19.9179 30.2234C19.0809 30.8364 18.4083 31.4793 17.8703 32.2717C17.5863 32.6903 17.4966 33.1089 17.8254 33.5425C18.0945 33.8863 18.4532 33.991 18.8717 33.8863C19.3649 33.7518 19.5742 33.3929 19.619 32.8996C19.7236 32.0474 19.8133 31.1952 19.9179 30.2234Z" fill="url(#paint11_radial_483_172)"/>
<path d="M15.9123 51.558C14.9408 51.558 14.029 51.1692 13.3415 50.4666C12.654 49.7639 12.2654 48.837 12.2803 47.8353C12.2953 45.8319 13.9394 44.2172 15.9422 44.2172C17.945 44.2172 19.5891 45.8618 19.6041 47.8652C19.6041 48.8369 19.2304 49.7489 18.5279 50.4516C17.8254 51.1543 16.9137 51.543 15.9422 51.543H15.9123V51.558ZM15.9422 45.9365C14.866 45.9365 14.0141 46.7738 13.9992 47.8502C13.9842 48.9416 14.8212 49.8087 15.9123 49.8237H15.9422C16.9884 49.8237 17.8703 48.9566 17.8852 47.8951C17.9002 47.3867 17.7059 46.8934 17.3322 46.5196C16.9585 46.1458 16.4803 45.9216 15.9571 45.9216L15.9422 45.9365Z" fill="url(#paint12_radial_483_172)"/>
<path d="M15.9422 44.5162C17.7806 44.5162 19.2902 46.0262 19.2902 47.8652C19.3051 49.719 17.7656 51.259 15.9123 51.244C14.0589 51.2291 12.5643 49.7041 12.5643 47.8353C12.5942 45.9963 14.1038 44.5162 15.9422 44.5162ZM13.7002 47.8502C13.6853 49.0911 14.6717 50.1078 15.8973 50.1227C17.123 50.1377 18.1543 49.136 18.1692 47.91C18.1991 46.6841 17.1827 45.6525 15.9571 45.6375C14.7166 45.6226 13.7152 46.6093 13.7002 47.8502Z" fill="url(#paint13_radial_483_172)"/>
<path d="M14.6717 15.0635C14.3728 15.0635 14.1187 14.8841 13.9543 14.7495C13.7152 14.5402 13.4611 14.3458 13.2219 14.1515C12.7287 13.7628 12.2355 13.3441 11.7572 12.9255C11.5031 12.7013 11.3237 12.3126 11.2939 11.9537C11.249 11.4604 11.264 10.952 11.264 10.4736C11.264 10.2793 11.264 10.0849 11.264 9.89055V9.29252C11.264 8.79915 11.264 8.30578 11.264 7.79746C11.264 7.46855 11.3536 7.22934 11.518 7.04993C11.6227 6.94527 11.817 6.82567 12.1159 6.82567H12.1458C12.654 6.84062 12.9828 7.21439 12.9828 7.79746V8.33568C12.9828 9.36728 12.9679 10.4288 12.9977 11.4604C12.9977 11.6099 13.1024 11.8192 13.2219 11.9238C13.7301 12.3873 14.2831 12.8209 14.8063 13.2544L15.0454 13.4488C15.3144 13.6731 15.4639 13.8973 15.4938 14.1515C15.5087 14.3757 15.434 14.585 15.2696 14.7944C15.0604 15.0186 14.8212 15.0635 14.6717 15.0635Z" fill="url(#paint14_radial_483_172)"/>
<path d="M11.5629 9.8756C11.5629 9.17292 11.5629 8.48519 11.5629 7.78251C11.5629 7.37884 11.7273 7.09478 12.1458 7.10973C12.5344 7.12468 12.6839 7.39379 12.6839 7.78251C12.6839 9.00846 12.6689 10.2344 12.6988 11.4604C12.6988 11.6846 12.8483 11.9836 13.0127 12.1331C13.6105 12.6714 14.2383 13.1647 14.8511 13.6581C15.1799 13.9272 15.3144 14.2262 15.0305 14.5701C14.7465 14.899 14.4326 14.7645 14.1337 14.5252C13.4013 13.9123 12.639 13.3292 11.9365 12.7013C11.7422 12.5219 11.5928 12.1929 11.5629 11.9238C11.533 11.2511 11.5629 10.5633 11.5629 9.8756Z" fill="url(#paint15_radial_483_172)"/>
<defs>
<radialGradient id="paint0_radial_483_172" cx="0" cy="0" r="1" gradientTransform="matrix(35.6747 -7.64208 7.64458 35.663 27.4434 32.0209)" gradientUnits="userSpaceOnUse">
<stop stop-color="#FF6035"/>
<stop offset="0.396225" stop-color="#FF6035"/>
<stop offset="1" stop-color="#FFBDAB"/>
</radialGradient>
<radialGradient id="paint1_radial_483_172" cx="0" cy="0" r="1" gradientTransform="matrix(35.6747 -7.64208 7.64458 35.663 27.4434 32.0209)" gradientUnits="userSpaceOnUse">
<stop stop-color="#FF6035"/>
<stop offset="0.396225" stop-color="#FF6035"/>
<stop offset="1" stop-color="#FFBDAB"/>
</radialGradient>
<radialGradient id="paint2_radial_483_172" cx="0" cy="0" r="1" gradientTransform="matrix(35.6747 -7.64208 7.64458 35.663 27.4434 32.0209)" gradientUnits="userSpaceOnUse">
<stop stop-color="#FF6035"/>
<stop offset="0.396225" stop-color="#FF6035"/>
<stop offset="1" stop-color="#FFBDAB"/>
</radialGradient>
<radialGradient id="paint3_radial_483_172" cx="0" cy="0" r="1" gradientTransform="matrix(35.6747 -7.64208 7.64458 35.663 27.4434 32.0209)" gradientUnits="userSpaceOnUse">
<stop stop-color="#FF6035"/>
<stop offset="0.396225" stop-color="#FF6035"/>
<stop offset="1" stop-color="#FFBDAB"/>
</radialGradient>
<radialGradient id="paint4_radial_483_172" cx="0" cy="0" r="1" gradientTransform="matrix(35.6747 -7.64208 7.64458 35.663 27.4434 32.0209)" gradientUnits="userSpaceOnUse">
<stop stop-color="#FF6035"/>
<stop offset="0.396225" stop-color="#FF6035"/>
<stop offset="1" stop-color="#FFBDAB"/>
</radialGradient>
<radialGradient id="paint5_radial_483_172" cx="0" cy="0" r="1" gradientTransform="matrix(35.6747 -7.64208 7.64458 35.663 27.4434 32.0209)" gradientUnits="userSpaceOnUse">
<stop stop-color="#FF6035"/>
<stop offset="0.396225" stop-color="#FF6035"/>
<stop offset="1" stop-color="#FFBDAB"/>
</radialGradient>
<radialGradient id="paint6_radial_483_172" cx="0" cy="0" r="1" gradientTransform="matrix(35.6747 -7.64208 7.64458 35.663 27.4434 32.0209)" gradientUnits="userSpaceOnUse">
<stop stop-color="#FF6035"/>
<stop offset="0.396225" stop-color="#FF6035"/>
<stop offset="1" stop-color="#FFBDAB"/>
</radialGradient>
<radialGradient id="paint7_radial_483_172" cx="0" cy="0" r="1" gradientTransform="matrix(35.6747 -7.64208 7.64458 35.663 27.4434 32.0209)" gradientUnits="userSpaceOnUse">
<stop stop-color="#FF6035"/>
<stop offset="0.396225" stop-color="#FF6035"/>
<stop offset="1" stop-color="#FFBDAB"/>
</radialGradient>
<radialGradient id="paint8_radial_483_172" cx="0" cy="0" r="1" gradientTransform="matrix(35.6747 -7.64208 7.64458 35.663 27.4434 32.0209)" gradientUnits="userSpaceOnUse">
<stop stop-color="#FF6035"/>
<stop offset="0.396225" stop-color="#FF6035"/>
<stop offset="1" stop-color="#FFBDAB"/>
</radialGradient>
<radialGradient id="paint9_radial_483_172" cx="0" cy="0" r="1" gradientTransform="matrix(35.6747 -7.64208 7.64458 35.663 27.4434 32.0209)" gradientUnits="userSpaceOnUse">
<stop stop-color="#FF6035"/>
<stop offset="0.396225" stop-color="#FF6035"/>
<stop offset="1" stop-color="#FFBDAB"/>
</radialGradient>
<radialGradient id="paint10_radial_483_172" cx="0" cy="0" r="1" gradientTransform="matrix(35.6747 -7.64208 7.64458 35.663 27.4434 32.0209)" gradientUnits="userSpaceOnUse">
<stop stop-color="#FF6035"/>
<stop offset="0.396225" stop-color="#FF6035"/>
<stop offset="1" stop-color="#FFBDAB"/>
</radialGradient>
<radialGradient id="paint11_radial_483_172" cx="0" cy="0" r="1" gradientTransform="matrix(35.6747 -7.64208 7.64458 35.663 27.4434 32.0209)" gradientUnits="userSpaceOnUse">
<stop stop-color="#FF6035"/>
<stop offset="0.396225" stop-color="#FF6035"/>
<stop offset="1" stop-color="#FFBDAB"/>
</radialGradient>
<radialGradient id="paint12_radial_483_172" cx="0" cy="0" r="1" gradientTransform="matrix(35.6747 -7.64208 7.64458 35.663 27.4434 32.0209)" gradientUnits="userSpaceOnUse">
<stop stop-color="#FF6035"/>
<stop offset="0.396225" stop-color="#FF6035"/>
<stop offset="1" stop-color="#FFBDAB"/>
</radialGradient>
<radialGradient id="paint13_radial_483_172" cx="0" cy="0" r="1" gradientTransform="matrix(35.6747 -7.64208 7.64458 35.663 27.4434 32.0209)" gradientUnits="userSpaceOnUse">
<stop stop-color="#FF6035"/>
<stop offset="0.396225" stop-color="#FF6035"/>
<stop offset="1" stop-color="#FFBDAB"/>
</radialGradient>
<radialGradient id="paint14_radial_483_172" cx="0" cy="0" r="1" gradientTransform="matrix(35.6747 -7.64208 7.64458 35.663 27.4434 32.0209)" gradientUnits="userSpaceOnUse">
<stop stop-color="#FF6035"/>
<stop offset="0.396225" stop-color="#FF6035"/>
<stop offset="1" stop-color="#FFBDAB"/>
</radialGradient>
<radialGradient id="paint15_radial_483_172" cx="0" cy="0" r="1" gradientTransform="matrix(35.6747 -7.64208 7.64458 35.663 27.4434 32.0209)" gradientUnits="userSpaceOnUse">
<stop stop-color="#FF6035"/>
<stop offset="0.396225" stop-color="#FF6035"/>
<stop offset="1" stop-color="#FFBDAB"/>
</radialGradient>
</defs>
</svg>
