<svg width="60" height="60" viewBox="0 0 60 60" fill="none" xmlns="http://www.w3.org/2000/svg">
<g clip-path="url(#clip0_483_180)">
<path d="M16.5631 53.1841C16.8198 53.6525 17.0765 54.0886 17.3012 54.5408C17.975 55.849 17.606 57.238 16.3385 57.9971C15.3758 58.5785 14.3971 59.1276 13.4184 59.6606C12.1028 60.3712 10.707 59.9674 9.96893 58.6592C7.09701 53.5556 4.22509 48.452 1.36921 43.3483C0.631173 42.0078 1.03228 40.5865 2.33186 39.8113C3.26243 39.2622 4.20904 38.7292 5.15565 38.2124C6.48733 37.4695 7.88318 37.8732 8.66935 39.1814C8.9421 39.6337 9.18276 40.0859 9.47156 40.5865C9.68013 40.4735 9.87267 40.3766 10.0492 40.2797C12.6323 38.7777 15.1994 37.2756 17.7985 35.7898C19.2586 34.9499 20.7988 34.2716 22.4995 34.3847C23.5745 34.4654 24.6655 34.7561 25.6923 35.1114C28.8049 36.2097 31.9014 37.3241 35.1424 38.0024C37.3565 38.4708 38.64 41.0065 37.8699 43.1868C37.7897 43.3968 37.7095 43.5906 37.533 43.9944C38.2068 43.6713 38.7684 43.4614 39.2818 43.1545C42.6992 41.168 46.0846 39.1653 49.502 37.1626C50.8176 36.3874 52.1974 35.7575 53.7056 35.4668C56.2406 34.9984 58.3263 36.242 58.8718 38.5193C59.305 40.3604 58.583 42.1855 56.9947 43.1707C50.8337 46.9984 44.6566 50.7938 38.5117 54.6538C36.2494 56.0751 33.907 56.3981 31.3399 55.6713C27.2807 54.5246 23.2054 53.4587 19.1302 52.3443C18.5526 52.1828 18.0552 52.1666 17.5579 52.5542C17.2691 52.8127 16.9161 52.9742 16.5631 53.1841ZM15.6005 51.5044C16.2422 51.133 16.8359 50.81 17.4135 50.4547C17.8306 50.1801 18.2478 50.1478 18.7291 50.277C23.1092 51.4721 27.4893 52.6189 31.8693 53.8302C33.923 54.4116 35.7841 54.1209 37.5971 52.9903C43.694 49.1787 49.8068 45.3995 55.9197 41.604C56.9305 40.9742 57.3155 39.9244 56.9786 38.7938C56.6738 37.8086 55.9037 37.3079 54.6843 37.3402C53.3205 37.3726 52.1172 37.9217 50.962 38.5839C47.336 40.6835 43.7421 42.7992 40.1321 44.9149C38.7523 45.7225 37.2602 46.1424 35.6558 45.9647C34.5327 45.8517 33.3936 45.674 32.2865 45.4156C30.3612 44.9473 28.468 44.382 26.5587 43.849C25.8848 43.6552 25.564 43.1545 25.7244 42.6054C25.8848 42.0563 26.3983 41.814 27.0882 41.9755C27.1684 41.9917 27.2326 42.024 27.3128 42.0563C29.3825 42.6054 31.4362 43.1707 33.5059 43.7036C34.5969 43.9782 35.4954 43.639 35.9285 42.8638C36.6345 41.604 35.9285 40.1182 34.4685 39.7952C33.6503 39.6175 32.816 39.4721 32.0137 39.2137C29.3825 38.3739 26.7673 37.4856 24.1681 36.5812C22.9808 36.1612 21.8096 36.1451 20.6544 36.5812C19.9645 36.8396 19.2746 37.1303 18.6328 37.5018C16.0016 39.0038 13.4024 40.5381 10.7872 42.0563C10.6909 42.1209 10.5947 42.1855 10.4503 42.2824C12.167 45.3833 13.8677 48.4197 15.6005 51.5044ZM6.5515 39.6983C6.27875 39.8275 6.10227 39.8921 5.95787 39.9728C5.12357 40.4412 4.28926 40.9096 3.45496 41.3941C2.87737 41.7332 2.81319 41.9755 3.15012 42.5731C5.95787 47.5637 8.74957 52.5542 11.5573 57.5448C11.8782 58.1101 12.1028 58.1747 12.6644 57.8678C13.4826 57.4156 14.3009 56.9473 15.1191 56.4789C15.809 56.0913 15.8572 55.8813 15.4561 55.1868C14.1404 52.845 12.8248 50.5031 11.5092 48.1451C10.0492 45.5448 8.60517 42.9607 7.1291 40.3766C6.9847 40.1182 6.74404 39.9244 6.5515 39.6983Z" fill="url(#paint0_radial_483_180)"/>
<path d="M28.7086 3.47215C29.1739 3.66596 29.6392 3.77901 30.0082 4.02127C31.003 4.65115 31.9496 4.7319 32.9604 4.02127C33.3935 3.71441 33.9391 3.5206 34.4525 3.42369C35.1905 3.29449 35.5435 2.87457 35.72 2.19624C35.8644 1.69556 36.0729 1.21104 36.2655 0.72652C36.458 0.241998 36.7949 -0.0164135 37.3244 -0.000262792C38.8646 -0.000262792 40.4049 -0.000262792 41.9451 -0.000262792C42.4425 -0.000262792 42.7794 0.225848 42.9559 0.694219C43.2126 1.37255 43.4533 2.05088 43.7421 2.71306C43.8384 2.93917 44.079 3.13298 44.3036 3.24604C45.2984 3.69826 46.3252 4.11818 47.336 4.52194C47.5446 4.6027 47.8334 4.61885 48.042 4.53809C48.6998 4.29583 49.3255 3.98897 49.9673 3.68211C50.4646 3.43984 50.8978 3.50445 51.2829 3.89207C52.3579 4.97416 53.4328 6.05627 54.5078 7.13836C54.8929 7.52598 54.9731 7.96205 54.7485 8.46273C54.4276 9.18951 53.85 9.93244 53.85 10.6754C53.85 11.4022 54.5399 12.1128 54.7003 12.8719C54.9891 14.2931 55.8395 14.9553 57.1551 15.3429C58.4226 15.7144 58.4226 15.8598 58.4226 17.1518C58.4226 18.4439 58.4066 19.7359 58.4226 21.028C58.4386 21.7063 58.1819 22.1909 57.5241 22.3362C55.9678 22.6915 54.8608 23.4829 54.6201 25.1787C54.588 25.421 54.4597 25.6956 54.2992 25.8894C53.6575 26.7131 53.866 27.4721 54.2832 28.3281C55.2298 30.2662 55.1175 30.0563 53.7377 31.4452C52.9515 32.2528 52.1493 33.028 51.3631 33.8355C50.946 34.2716 50.4967 34.3685 49.9512 34.1101C49.3255 33.8032 48.6837 33.5125 48.0259 33.2703C47.8334 33.1895 47.5606 33.2057 47.3681 33.2864C46.3252 33.6902 45.2984 34.1263 44.2716 34.5785C44.063 34.6754 43.8384 34.8692 43.7581 35.0791C43.4693 35.7252 43.2287 36.3874 42.988 37.0495C42.7955 37.5664 42.4586 37.8409 41.9131 37.8409C40.3888 37.8409 38.8646 37.8409 37.3565 37.8409C36.811 37.8409 36.458 37.5825 36.2655 37.0657C35.9767 36.3066 35.8644 35.4022 35.351 34.8692C34.8696 34.3524 33.8909 34.3524 33.2652 33.9324C32.0298 33.1088 30.9388 33.2218 29.6873 33.9324C28.6124 34.5462 28.484 34.4493 27.6176 33.561C26.687 32.6242 25.7565 31.6713 24.8099 30.7346C24.3606 30.2985 24.2483 29.8463 24.5371 29.2649C24.874 28.5704 25.3875 27.8759 25.3875 27.1653C25.4035 26.4708 24.8741 25.7763 24.6013 25.0818C24.489 24.8073 24.3285 24.5327 24.2965 24.242C24.1841 23.386 23.6707 22.9822 22.9006 22.7723C22.4193 22.6431 21.97 22.417 21.5048 22.2393C21.1036 22.0616 20.879 21.7548 20.879 21.3026C20.879 19.7036 20.879 18.1209 20.879 16.5219C20.879 16.0051 21.1518 15.6983 21.601 15.5206C22.2588 15.2622 22.9166 15.0361 23.5584 14.7454C23.783 14.6485 23.9916 14.4223 24.0879 14.1962C24.5371 13.1949 24.9543 12.1612 25.3393 11.1276C25.4196 10.9015 25.4356 10.5785 25.3393 10.3524C25.0987 9.69018 24.7938 9.0603 24.505 8.41427C24.2804 7.92975 24.3606 7.52598 24.7296 7.15452C25.8207 6.05626 26.9117 4.95801 28.0027 3.87591C28.1792 3.71441 28.468 3.6175 28.7086 3.47215ZM28.9974 5.6848C28.9012 5.76555 28.7728 5.84631 28.6605 5.95936C28.0829 6.52464 27.5534 7.12221 26.9598 7.65519C26.5747 7.99435 26.4464 8.30122 26.7352 8.78574C27.0079 9.25411 27.1684 9.78709 27.409 10.2716C27.6176 10.7077 27.5534 11.0953 27.3609 11.5314C26.7994 12.8073 26.2539 14.1155 25.7565 15.4237C25.58 15.8759 25.3554 16.1828 24.9061 16.3443C24.3285 16.5542 23.7349 16.7642 23.1734 17.0388C22.9969 17.1195 22.8043 17.3941 22.8043 17.5879C22.7562 18.4116 22.8204 19.2353 22.7722 20.059C22.7562 20.5273 22.8685 20.8019 23.3498 20.9311C23.8793 21.0926 24.3927 21.3349 24.9222 21.5287C25.3875 21.6902 25.596 22.0132 25.7565 22.4654C26.2539 23.7736 26.7994 25.0657 27.3609 26.3577C27.5374 26.7777 27.6176 27.1491 27.409 27.569C27.1363 28.1343 26.9117 28.7158 26.6389 29.281C26.5106 29.5717 26.4785 29.7656 26.7512 30.024C27.409 30.6377 28.0508 31.2837 28.6605 31.9459C28.8851 32.1882 29.0616 32.172 29.3344 32.0428C29.8478 31.7844 30.4093 31.5906 30.9227 31.316C31.4361 31.0415 31.8854 31.1222 32.3988 31.3806C33.4417 31.8974 34.4846 32.4466 35.5756 32.7534C36.5222 33.028 37.0196 33.5125 37.3244 34.417C37.8539 35.9674 37.8859 35.9513 39.4904 35.9513C40.1161 35.9513 40.8702 36.1451 41.3034 35.8544C41.7366 35.5637 41.8168 34.7723 42.0574 34.1909C42.1216 34.0455 42.1377 33.8517 42.25 33.7548C42.5227 33.4641 42.7955 33.1249 43.1324 32.9634C44.3999 32.382 45.7155 31.8974 46.983 31.3322C47.4162 31.1384 47.8013 31.0738 48.2345 31.2676C48.8121 31.5421 49.3897 31.8167 49.9833 32.0428C50.1438 32.1074 50.4486 32.0428 50.577 31.9298C51.2348 31.316 51.8444 30.6377 52.5023 30.024C52.759 29.7817 52.7429 29.5717 52.6146 29.2972C52.3418 28.7319 52.053 28.1828 51.8765 27.5852C51.7803 27.2137 51.7963 26.7454 51.9247 26.39C52.422 25.0657 52.9675 23.7413 53.5451 22.4493C53.6895 22.1101 53.9783 21.7709 54.2992 21.6094C54.8608 21.3026 55.4705 21.1088 56.0801 20.8988C56.401 20.7857 56.5133 20.6404 56.5133 20.2851C56.4973 19.3968 56.5294 18.5085 56.4812 17.6202C56.4652 17.4264 56.2887 17.1518 56.1122 17.0711C55.5346 16.7965 54.8929 16.6511 54.3474 16.3443C54.0104 16.1666 53.7056 15.8113 53.5612 15.456C52.9836 14.1639 52.4381 12.8396 51.9247 11.5152C51.7963 11.176 51.7642 10.7238 51.8605 10.3847C52.037 9.77093 52.3418 9.18951 52.6146 8.60808C52.759 8.30122 52.7429 8.12356 52.4862 7.8813C51.8444 7.26757 51.2187 6.65384 50.6251 5.99166C50.3844 5.73325 50.1919 5.73325 49.9031 5.87861C49.3415 6.15317 48.764 6.37928 48.2184 6.65384C47.8013 6.84765 47.4483 6.7992 47.0151 6.60539C45.7316 6.02396 44.3999 5.53944 43.1164 4.94186C42.7794 4.78036 42.4265 4.47349 42.25 4.13433C41.9451 3.56905 41.7847 2.93917 41.528 2.35775C41.4478 2.19624 41.2071 2.00243 41.0306 1.98628C40.1161 1.95398 39.1855 1.95398 38.271 1.98628C38.0945 1.98628 37.8378 2.16394 37.7576 2.32544C37.5009 2.89072 37.2763 3.47215 37.0837 4.06972C36.9072 4.5704 36.5703 4.81266 36.0729 4.99032C34.8857 5.42639 33.6984 5.84631 32.5913 6.41158C31.9175 6.7669 31.3559 6.84765 30.6981 6.47618C30.1687 6.15317 29.6071 5.95936 28.9974 5.6848Z" fill="url(#paint1_radial_483_180)"/>
<path d="M6.08622 44.2205C5.50863 44.2205 5.01126 43.7036 5.04334 43.1384C5.05939 42.5892 5.54072 42.1209 6.10227 42.1209C6.67986 42.1209 7.17723 42.6377 7.14514 43.2191C7.11305 43.7521 6.64777 44.2205 6.08622 44.2205Z" fill="url(#paint2_radial_483_180)"/>
<path d="M29.9761 18.9446C29.9601 13.5664 34.276 9.20566 39.6027 9.18951C44.9615 9.17336 49.3255 13.5664 49.3095 18.9284C49.2934 24.2743 44.9454 28.6511 39.6348 28.6511C34.3241 28.6673 29.9922 24.3066 29.9761 18.9446ZM31.9014 18.9123C31.9014 23.2245 35.383 26.7292 39.6508 26.7131C43.8865 26.6969 47.3681 23.2084 47.4002 18.9446C47.4162 14.6646 43.9346 11.1276 39.6669 11.1114C35.367 11.1276 31.9014 14.6 31.9014 18.9123Z" fill="url(#paint3_radial_483_180)"/>
<path d="M40.6295 24.1451C40.5172 25.0657 40.2284 25.4049 39.6348 25.421C39.0251 25.421 38.7523 25.0818 38.6079 24.0966C37.7415 23.8382 36.9393 23.4183 36.4259 22.6269C36.2173 22.2878 36.0409 21.9163 35.9285 21.5448C35.7681 21.0441 36.0569 20.5435 36.5222 20.382C36.9875 20.2205 37.4688 20.4304 37.7095 20.9149C38.3352 22.1909 39.5064 22.6431 40.7739 22.0132C41.0467 21.884 41.3996 21.5125 41.3996 21.2541C41.3836 20.9149 41.1269 20.495 40.8541 20.3012C40.4691 20.0428 39.9717 19.9782 39.5064 19.849C39.0732 19.7198 38.6079 19.639 38.1747 19.4775C36.8591 18.9769 36.1692 18.024 36.1692 16.7642C36.1532 15.5691 36.9072 14.4546 38.1106 13.9701C38.4796 13.8248 38.6882 13.6794 38.7042 13.2272C38.7363 12.7104 39.1213 12.4035 39.6508 12.4197C40.1803 12.4358 40.5332 12.7427 40.5493 13.2756C40.5653 13.6471 40.7097 13.7925 41.0306 13.9055C41.9131 14.2285 42.5709 14.8261 42.972 15.6821C43.2608 16.2958 43.1164 16.8288 42.635 17.0872C42.1377 17.3456 41.6243 17.168 41.2873 16.5865C40.6937 15.5852 39.6027 15.246 38.6882 15.8436C38.4154 16.0213 38.1266 16.4412 38.1266 16.7481C38.1266 17.0388 38.4475 17.4425 38.7363 17.5879C39.1695 17.814 39.6989 17.8463 40.1642 18.0078C40.7739 18.2016 41.3996 18.3793 41.9451 18.6861C42.9559 19.2514 43.4052 20.1882 43.357 21.3672C43.3089 22.4977 42.6832 23.2245 41.7205 23.709C41.3836 23.8867 41.0306 23.9997 40.6295 24.1451Z" fill="url(#paint4_radial_483_180)"/>
</g>
<defs>
<radialGradient id="paint0_radial_483_180" cx="0" cy="0" r="1" gradientTransform="matrix(39.0342 -8.65508 8.36448 40.3904 26.653 31.7343)" gradientUnits="userSpaceOnUse">
<stop stop-color="#FF6035"/>
<stop offset="0.396225" stop-color="#FF6035"/>
<stop offset="1" stop-color="#FFBDAB"/>
</radialGradient>
<radialGradient id="paint1_radial_483_180" cx="0" cy="0" r="1" gradientTransform="matrix(39.0342 -8.65508 8.36448 40.3904 26.653 31.7343)" gradientUnits="userSpaceOnUse">
<stop stop-color="#FF6035"/>
<stop offset="0.396225" stop-color="#FF6035"/>
<stop offset="1" stop-color="#FFBDAB"/>
</radialGradient>
<radialGradient id="paint2_radial_483_180" cx="0" cy="0" r="1" gradientTransform="matrix(39.0342 -8.65508 8.36448 40.3904 26.653 31.7343)" gradientUnits="userSpaceOnUse">
<stop stop-color="#FF6035"/>
<stop offset="0.396225" stop-color="#FF6035"/>
<stop offset="1" stop-color="#FFBDAB"/>
</radialGradient>
<radialGradient id="paint3_radial_483_180" cx="0" cy="0" r="1" gradientTransform="matrix(39.0342 -8.65508 8.36448 40.3904 26.653 31.7343)" gradientUnits="userSpaceOnUse">
<stop stop-color="#FF6035"/>
<stop offset="0.396225" stop-color="#FF6035"/>
<stop offset="1" stop-color="#FFBDAB"/>
</radialGradient>
<radialGradient id="paint4_radial_483_180" cx="0" cy="0" r="1" gradientTransform="matrix(39.0342 -8.65508 8.36448 40.3904 26.653 31.7343)" gradientUnits="userSpaceOnUse">
<stop stop-color="#FF6035"/>
<stop offset="0.396225" stop-color="#FF6035"/>
<stop offset="1" stop-color="#FFBDAB"/>
</radialGradient>
<clipPath id="clip0_483_180">
<rect width="60" height="60" fill="white"/>
</clipPath>
</defs>
</svg>
