<svg width="60" height="60" viewBox="0 0 60 60" fill="none" xmlns="http://www.w3.org/2000/svg">
<g clip-path="url(#clip0_483_223)">
<path d="M45.5481 60C41.7002 60 38.2998 58.4328 35.3915 55.3433C34.9888 54.8955 34.5414 54.7164 33.915 54.7164C28.3221 54.7164 22.7293 54.7164 17.0917 54.7164C13.557 54.7164 10.0224 54.7164 6.4877 54.7164C3.48993 54.7164 1.11857 53.1045 0.313199 50.4627C0.0894854 49.8358 0 49.0746 0 48.2687C0 36.9403 0 24.9851 0 11.6418C0 7.8806 2.63982 5.23881 6.39821 5.23881C6.84564 5.23881 7.29306 5.23881 7.74049 5.23881H10.4698L10.5145 4.83582C10.5145 4.56716 10.5593 4.34328 10.5593 4.1194C10.5593 3.62687 10.604 3.22388 10.6935 2.77612C11.0067 1.1194 12.3937 0 14.1387 0C14.2729 0 14.4072 0 14.4966 0C16.1969 0.134328 17.5391 1.65672 17.5839 3.44776C17.5839 3.71642 17.5839 4.02985 17.5839 4.34328V5.23881H37.0022V4.38806C37.0022 4.1194 37.0022 3.80597 37.0022 3.53731C37.0917 1.65672 38.3893 0.179104 40.1342 0.0447761C40.2685 0.0447761 40.4027 0.0447761 40.4922 0.0447761C42.2371 0.0447761 43.6242 1.1194 43.9821 2.77612C44.0716 3.1791 44.0716 3.67164 44.1163 4.1194C44.1163 4.34328 44.1163 4.61194 44.1611 4.8806L44.2058 5.28358C44.2058 5.28358 45.9955 5.28358 46.3087 5.28358C46.6667 5.28358 47.0246 5.28358 47.3378 5.28358C47.5168 5.28358 47.6957 5.28358 47.9195 5.28358C48.5906 5.28358 49.2617 5.28358 49.8881 5.41791C52.8859 6.04478 54.7651 8.46269 54.7651 11.7313C54.7651 19.6119 54.7651 26.8657 54.7651 33.8955C54.7651 34.5224 54.9441 34.9701 55.4362 35.4627C59.6868 39.5821 61.0291 44.4179 59.4183 49.8806C57.8076 55.3881 53.915 58.791 48.2327 59.7761C47.2483 59.9552 46.3982 60 45.5481 60ZM45.8613 33.5373C39.0604 33.5373 33.5123 39.0896 33.5123 45.8955C33.5123 52.7015 39.0157 58.2985 45.8613 58.2985C52.7069 58.2985 58.2103 52.7463 58.255 45.9403C58.255 42.6269 56.9575 39.5373 54.6309 37.209C52.2595 34.8358 49.1723 33.5373 45.8613 33.5373ZM1.74497 20.597C1.74497 29.8657 1.74497 39.1791 1.74497 48.4478C1.74497 48.7612 1.74497 49.0299 1.78971 49.2537C2.19239 51.5373 3.9821 52.9254 6.44295 52.9254H33.4228L33.1544 52.2985C30.5145 45.8507 31.4541 40.3433 35.8837 35.9104C38.6577 33.1343 41.8792 31.7015 45.4586 31.7015C47.5615 31.7015 49.8434 32.194 52.2148 33.1791L52.8412 33.4478V17.6866H1.74497V20.597ZM7.60626 7.02985C7.06935 7.02985 6.57718 7.02985 6.08501 7.02985C3.6689 7.07463 1.83445 9 1.78971 11.4179C1.78971 12.3582 1.78971 13.2985 1.78971 14.2388V14.9104C1.78971 15.0448 1.78971 15.1791 1.83445 15.2687V15.403L1.87919 15.806H52.9306V14.3284C52.9306 13.4328 52.9306 12.5821 52.9306 11.6866C52.9306 11.3731 52.9306 11.0597 52.8859 10.7463C52.6622 8.8209 51.0067 7.16418 49.1723 7.02985C48.6353 6.98507 48.0984 6.98507 47.3825 6.98507C46.9351 6.98507 46.443 6.98507 45.9955 6.98507C45.5481 6.98507 45.0559 6.98507 44.6085 6.98507H44.2058L44.1611 7.38806C44.1611 7.65672 44.1163 7.8806 44.1163 8.10448C44.1163 8.59702 44.0716 9.04478 43.9821 9.44776C43.6242 11.1045 42.2819 12.1791 40.5369 12.1791C40.4027 12.1791 40.2685 12.1791 40.1342 12.1791C38.434 12 37.1365 10.5672 37.047 8.73134C37.047 8.41791 37.047 8.14925 37.047 7.83582C37.047 7.70149 37.047 7.56716 37.047 7.43284V6.98507H17.6286V7.8806C17.6286 8.19403 17.6286 8.46269 17.6286 8.77612C17.5839 10.7015 16.0179 12.2239 14.094 12.2239C12.17 12.2239 10.604 10.7015 10.5593 8.8209C10.5593 8.50746 10.5593 8.23881 10.5593 7.92537V6.98507H10.1119C9.66443 6.98507 9.26175 6.98507 8.81432 6.98507C8.41163 7.02985 8.00895 7.02985 7.60626 7.02985ZM40.5369 1.74627C39.5526 1.74627 38.8367 2.50746 38.7919 3.53731C38.7919 4.1194 38.7919 4.74627 38.7919 5.32836C38.7919 5.59701 38.7919 5.86567 38.7919 6.13433V6.89552C38.7919 7.47761 38.7919 8.0597 38.7919 8.68657C38.7919 9.76119 39.5078 10.5672 40.5369 10.5672C41.566 10.5672 42.3266 9.76119 42.3266 8.73134C42.3266 6.98507 42.3266 5.28358 42.3266 3.58209C42.3266 2.55224 41.566 1.74627 40.5369 1.74627ZM14.094 1.74627C13.0201 1.74627 12.349 2.55224 12.3042 3.71642C12.3042 5.41791 12.3042 7.07463 12.3042 8.59702C12.3042 9.76119 13.0201 10.5672 14.094 10.5672C15.1678 10.5672 15.8389 9.76119 15.8837 8.64179C15.8837 8.10448 15.8837 7.52239 15.8837 6.98507V5.46269C15.8837 4.8806 15.8837 4.29851 15.8837 3.71642C15.8837 2.55224 15.1678 1.74627 14.094 1.74627Z" fill="url(#paint0_radial_483_223)"/>
<path d="M11.4541 38.8657C11.0067 38.8657 10.5593 38.8209 10.1119 38.7761C8.81432 38.6418 7.96421 37.7015 7.96421 36.3582C7.96421 36.1343 7.96421 35.9104 7.96421 35.6866V35.2388C7.96421 35.1045 7.96421 34.9701 7.96421 34.8358C7.96421 34.5224 7.96421 34.2537 7.96421 33.9851C8.05369 32.8209 8.99329 31.8358 10.1566 31.791C10.5145 31.791 10.9172 31.7463 11.4094 31.7463C11.8121 31.7463 12.17 31.7463 12.5727 31.7463C13.915 31.791 14.8546 32.6418 14.9888 33.9851C15.0783 34.8358 15.0783 35.6866 14.9888 36.5821C14.8546 37.8358 14.0492 38.6866 12.7964 38.7761C12.3042 38.8209 11.9016 38.8657 11.4541 38.8657ZM11.1857 33.5373C10.6488 33.5373 10.2461 33.5373 9.97763 33.8507C9.66443 34.1642 9.66443 34.5672 9.70917 35.3284C9.70917 35.5522 9.70917 35.6866 9.70917 35.8657C9.70917 36.3134 9.70917 36.6269 9.93289 36.8507C10.1566 37.0746 10.5145 37.0746 10.8277 37.0746H11.4541C13.0201 37.0746 13.2438 36.8955 13.2438 35.3284V35.2836C13.2438 35.1045 13.2438 34.9701 13.2438 34.8358C13.2438 34.3433 13.2438 34.0299 13.0201 33.806C12.7964 33.5821 12.528 33.5821 12.2595 33.5821H12.0358C11.9463 33.5821 11.8121 33.5821 11.6331 33.5821L11.1857 33.5373Z" fill="url(#paint1_radial_483_223)"/>
<path d="M11.4094 28.209C11.2752 28.209 10.783 28.209 10.6488 28.209C10.5145 28.209 10.3803 28.209 10.2461 28.209C8.94855 28.1642 7.96421 27.1791 7.91946 25.8806C7.87472 25.209 7.87472 24.4925 7.91946 23.6866C7.96421 22.209 8.9038 21.2239 10.3803 21.1791C10.7383 21.1791 11.0962 21.1343 11.4541 21.1343C11.8121 21.1343 12.17 21.1343 12.528 21.1791C13.8702 21.2239 14.8546 22.1194 14.9441 23.4179C15.0336 24.3134 15.0336 25.209 14.9441 26.0597C14.8098 27.3134 13.8702 28.1642 12.528 28.209C12.3937 28.209 12.2595 28.209 12.1253 28.209H11.4094ZM12.2148 26.4627C12.4832 26.4627 12.7964 26.4627 13.0201 26.2388C13.2438 26.0149 13.2438 25.7015 13.2438 25.1642C13.2438 25.0299 13.2438 24.8955 13.2438 24.7612C13.2438 23.9552 13.2438 23.5522 12.9306 23.2388C12.6622 22.9701 12.2595 22.9254 11.6779 22.9254H10.7383C10.4698 22.9254 10.1119 22.9254 9.88814 23.1493C9.66443 23.3731 9.66443 23.6866 9.66443 24.1343C9.66443 24.2687 9.66443 24.4478 9.66443 24.6269C9.66443 25.3881 9.66443 25.8358 9.93289 26.1493C10.2461 26.4627 10.6488 26.4627 11.4094 26.4627H12.2148Z" fill="url(#paint2_radial_483_223)"/>
<path d="M32.7069 28.209C32.349 28.209 31.991 28.209 31.5884 28.209C30.2461 28.1642 29.2617 27.3134 29.1275 26.0149C29.038 25.1642 29.038 24.2687 29.1275 23.3731C29.2617 22.1642 30.1119 21.3134 31.3647 21.1791C31.8121 21.1343 32.2148 21.1343 32.6622 21.1343C33.0649 21.1343 33.5123 21.1343 33.915 21.1791C35.2573 21.3134 36.1521 22.2537 36.1521 23.6418C36.1521 23.8209 36.1521 24.0448 36.1521 24.2239V24.6716C36.1521 24.806 36.1521 24.9403 36.1521 25.0746C36.1521 25.3433 36.1521 25.6119 36.1521 25.8806C36.1074 27.1343 35.123 28.1194 33.8702 28.1642C33.4676 28.209 33.0649 28.209 32.7069 28.209ZM33.3333 26.4627C33.6018 26.4627 33.9597 26.4627 34.1834 26.2388C34.4072 26.0149 34.4072 25.7015 34.4072 25.209C34.4072 25.0746 34.4072 24.8955 34.4072 24.7164V24.6269C34.4072 24.4478 34.4072 24.2687 34.4072 24.1343C34.4072 23.6866 34.4072 23.3731 34.1834 23.1493C33.9597 22.9254 33.6465 22.9254 33.3333 22.9254H32.3937C31.8568 22.9254 31.3647 22.9254 31.0962 23.2836C30.8725 23.597 30.8725 24 30.8725 24.7164C30.8725 26.2836 31.0515 26.4627 32.6174 26.4627H33.3333Z" fill="url(#paint3_radial_483_223)"/>
<path d="M43.6689 28.209H43.2215C43.0872 28.209 42.953 28.209 42.8188 28.209C42.6846 28.209 42.5503 28.209 42.4161 28.209C42.2819 28.209 42.1029 28.209 41.9687 28.209C40.8054 28.1194 39.821 27.1791 39.7315 25.9701C39.6868 25.1642 39.6868 24.3582 39.7315 23.6418C39.7763 22.2985 40.6264 21.3134 41.9239 21.1791C42.3266 21.1343 42.774 21.1343 43.2215 21.1343C43.6689 21.1343 44.1163 21.1343 44.5638 21.1791C45.7718 21.3134 46.6219 22.1642 46.7561 23.4179C46.8456 24.2687 46.8456 25.1194 46.7561 25.9254C46.6219 27.2687 45.6823 28.1194 44.2953 28.1642C44.1611 28.1642 44.0268 28.1642 43.9374 28.1642L43.6689 28.209ZM43.2662 22.9254C42.4608 22.9254 42.0582 22.9254 41.745 23.2388C41.4318 23.5522 41.4318 23.9552 41.4765 24.7164C41.4765 24.8955 41.4765 25.0746 41.4765 25.209C41.4765 25.7015 41.4765 26.0149 41.7002 26.2388C41.9239 26.4627 42.2371 26.4627 42.5056 26.4627H43.5347C44.0716 26.4627 44.4743 26.4627 44.7427 26.1493C45.0559 25.8358 45.0559 25.4328 45.0559 24.6269C45.0559 24.4478 45.0559 24.2687 45.0559 24.1343C45.0559 23.6418 45.0559 23.3731 44.8322 23.1045C44.6085 22.8806 44.2953 22.8806 44.0268 22.8806H43.5794L43.2662 22.9254Z" fill="url(#paint4_radial_483_223)"/>
<path d="M22.5056 28.209H21.2975C21.1633 28.209 21.0291 28.209 20.8949 28.209C19.5526 28.1642 18.5682 27.1343 18.5235 25.791C18.5235 25.1194 18.5235 24.4478 18.5235 23.6866C18.5235 22.2985 19.4183 21.3134 20.7159 21.1791C21.1633 21.1343 21.6107 21.1343 22.0134 21.1343C22.4608 21.1343 22.9083 21.1343 23.311 21.1791C24.6085 21.3134 25.5034 22.2985 25.5034 23.6866C25.5034 24.3582 25.5034 24.9851 25.5034 25.6567C25.5034 27.1343 24.4743 28.1194 23.0425 28.1642C22.9083 28.1642 22.774 28.1642 22.6846 28.1642L22.5056 28.209ZM22.8188 26.4627C23.0872 26.4627 23.4004 26.4627 23.5794 26.2388C23.8031 26.0149 23.8031 25.6567 23.8031 25.0746V24.7612C23.8031 23.9552 23.8031 23.5075 23.4899 23.194C23.2215 22.9254 22.8188 22.8806 22.2371 22.8806H21.8344C21.7002 22.8806 21.2528 22.8806 21.2528 22.8806C21.0291 22.8806 20.6711 22.8806 20.4474 23.1045C20.2237 23.3284 20.2237 23.6418 20.2237 24.2239C20.2237 24.3582 20.2237 24.4925 20.2237 24.6269C20.2237 24.7612 20.2237 24.9403 20.2237 25.0299C20.2237 25.6119 20.2237 25.9254 20.4474 26.194C20.6711 26.4179 20.9843 26.4179 21.2528 26.4179H22.2371C22.3714 26.4627 22.8188 26.4627 22.8188 26.4627Z" fill="url(#paint5_radial_483_223)"/>
<path d="M22.0582 38.8209C21.566 38.8209 21.0291 38.7761 20.5369 38.7313C19.3736 38.597 18.5235 37.6119 18.4787 36.403C18.4787 35.7313 18.4787 35.0149 18.4787 34.209C18.5235 32.8657 19.5078 31.8358 20.8949 31.791C21.0291 31.791 21.1633 31.791 21.2975 31.791H22.6846C22.8188 31.791 22.9083 31.791 23.0425 31.791C24.519 31.8358 25.5034 32.8209 25.5481 34.2985C25.5481 35.0149 25.5481 35.6866 25.5481 36.3134C25.5481 37.6567 24.6532 38.6418 23.4004 38.7761C22.9978 38.8209 22.5503 38.8209 22.0582 38.8209ZM22.774 37.0746C23.0425 37.0746 23.3557 37.0746 23.5794 36.8507C23.8031 36.6269 23.8031 36.3134 23.8031 35.7761V35.4179C23.8031 35.2388 23.8031 35.0597 23.8031 34.9254C23.8031 34.3433 23.8031 34.0299 23.5794 33.7612C23.3557 33.5373 23.0872 33.5373 22.8188 33.5373C22.7293 33.5373 22.6398 33.5373 22.5056 33.5373C22.3714 33.5373 22.1924 33.5373 22.0134 33.5373C21.7897 33.5373 21.6555 33.5373 21.5213 33.5373C21.4318 33.5373 21.2975 33.5373 21.2081 33.5373C20.9843 33.5373 20.6711 33.5373 20.4922 33.7612C20.2685 33.9851 20.2685 34.3433 20.2685 34.9254V35.2836C20.2685 36.0448 20.2685 36.4925 20.5817 36.806C20.8949 37.1194 21.2975 37.1194 22.0582 37.1194H22.2819L22.774 37.0746Z" fill="url(#paint6_radial_483_223)"/>
<path d="M11.4541 49.4328C11.0962 49.4328 10.6935 49.4328 10.3356 49.4328C8.99329 49.3881 8.00895 48.403 7.9642 47.0597C7.91946 46.2985 7.91946 45.5373 7.9642 44.7761C8.00895 43.4328 9.03803 42.403 10.3803 42.403C10.5145 42.403 10.6488 42.403 10.783 42.403H12.2148C12.349 42.403 12.4832 42.403 12.6174 42.403C13.8255 42.4478 14.8098 43.2985 14.9441 44.4179C15.0783 45.4478 15.0783 46.4328 14.9441 47.4627C14.8098 48.5821 13.8255 49.4328 12.6174 49.4776C12.2148 49.4328 11.8568 49.4328 11.4541 49.4328ZM12.1253 47.6866C12.3937 47.6866 12.7517 47.6866 12.9754 47.4627C13.1991 47.2388 13.1991 46.9254 13.1991 46.4328C13.1991 46.2985 13.1991 46.1194 13.1991 45.9403C13.1991 45.7164 13.1991 45.5373 13.1991 45.403C13.1991 44.9104 13.1991 44.597 12.9754 44.3731C12.7517 44.1493 12.4832 44.1493 12.1253 44.1493H11.4989C11.3199 44.1493 10.783 44.1493 10.783 44.1493C10.5145 44.1493 10.1566 44.1493 9.88814 44.3731C9.66443 44.597 9.66443 44.9552 9.66443 45.403C9.66443 45.5373 9.66443 45.7164 9.66443 45.9403C9.66443 46.1194 9.66443 46.2985 9.66443 46.4328C9.66443 46.9254 9.66443 47.2388 9.88814 47.4627C10.1119 47.6866 10.4251 47.6866 10.783 47.6866H11.4541C11.6331 47.6866 12.1253 47.6866 12.1253 47.6866Z" fill="url(#paint7_radial_483_223)"/>
<path d="M21.9687 49.4328C21.566 49.4328 21.2081 49.4328 20.8054 49.3881C19.5526 49.3433 18.5235 48.3134 18.4787 47.0597C18.434 46.3433 18.434 45.5373 18.4787 44.7313C18.5235 43.4328 19.5526 42.403 20.8949 42.3582C21.0291 42.3582 21.1633 42.3582 21.2975 42.3582H22.0134C22.2371 42.3582 22.4161 42.3134 22.5951 42.3134C23.6242 42.3134 24.3848 42.5821 24.877 43.1194C25.4139 43.7015 25.6376 44.597 25.5481 45.7612C25.5481 45.9851 25.5034 46.2537 25.5034 46.4776C25.5034 46.8358 25.5034 47.194 25.4139 47.5075C25.1902 48.5821 24.2953 49.2985 23.1767 49.3433C22.8188 49.4328 22.4161 49.4328 21.9687 49.4328ZM21.3423 44.1045C20.9843 44.1045 20.7159 44.1045 20.4922 44.3284C20.2685 44.597 20.2685 44.9104 20.2685 45.4478C20.2685 45.5821 20.2685 45.7164 20.2685 45.8507C20.2685 45.9851 20.2685 46.1642 20.2685 46.2537C20.2685 46.791 20.2685 47.1493 20.4922 47.3731C20.7159 47.597 21.0738 47.597 21.387 47.597H22.6398C22.9978 47.597 23.311 47.597 23.5794 47.3731C23.8031 47.1045 23.8031 46.791 23.8031 46.2537C23.8031 46.1194 23.8031 45.9851 23.8031 45.8507C23.8031 45.7164 23.8031 45.5373 23.8031 45.4478C23.8031 44.9104 23.8031 44.5522 23.5794 44.3284C23.3557 44.1045 23.0425 44.1045 22.7293 44.1045C22.7293 44.1045 22.1924 44.1045 22.0582 44.1045C21.8792 44.1045 21.3423 44.1045 21.3423 44.1045Z" fill="url(#paint8_radial_483_223)"/>
<path d="M43.9374 50.5522C43.7136 50.5522 43.4004 50.3731 42.9978 49.9701L42.4608 49.4328C41.566 48.5373 40.6264 47.597 39.7315 46.7015C39.4631 46.4328 39.3289 46.1642 39.3289 45.8955C39.3289 45.6716 39.4183 45.4925 39.5973 45.3134C39.7763 45.1343 39.9553 45.0448 40.1342 45.0448C40.4027 45.0448 40.7159 45.1791 40.9843 45.4478C41.566 46.0299 42.1924 46.6567 42.774 47.2836L43.8926 48.4478L50.2461 42.0448L50.3803 41.9104C50.5145 41.7761 50.604 41.6866 50.7383 41.5522C50.9172 41.3731 51.1409 41.2836 51.3647 41.2836C51.5884 41.2836 51.8121 41.3731 51.9463 41.5522C52.2595 41.8657 52.2595 42.3582 51.9463 42.7612C51.8568 42.8507 51.7673 42.9403 51.7226 43.0299C51.7226 43.0299 46.7114 48.0448 44.7875 49.9701C44.4743 50.3731 44.2058 50.5522 43.9374 50.5522Z" fill="url(#paint9_radial_483_223)"/>
</g>
<defs>
<radialGradient id="paint0_radial_483_223" cx="0" cy="0" r="1" gradientTransform="matrix(40.4372 -8.65385 8.66512 40.3846 26.573 31.7308)" gradientUnits="userSpaceOnUse">
<stop stop-color="#FF6035"/>
<stop offset="0.396225" stop-color="#FF6035"/>
<stop offset="1" stop-color="#FFBDAB"/>
</radialGradient>
<radialGradient id="paint1_radial_483_223" cx="0" cy="0" r="1" gradientTransform="matrix(40.4372 -8.65385 8.66512 40.3846 26.573 31.7308)" gradientUnits="userSpaceOnUse">
<stop stop-color="#FF6035"/>
<stop offset="0.396225" stop-color="#FF6035"/>
<stop offset="1" stop-color="#FFBDAB"/>
</radialGradient>
<radialGradient id="paint2_radial_483_223" cx="0" cy="0" r="1" gradientTransform="matrix(40.4372 -8.65385 8.66512 40.3846 26.573 31.7308)" gradientUnits="userSpaceOnUse">
<stop stop-color="#FF6035"/>
<stop offset="0.396225" stop-color="#FF6035"/>
<stop offset="1" stop-color="#FFBDAB"/>
</radialGradient>
<radialGradient id="paint3_radial_483_223" cx="0" cy="0" r="1" gradientTransform="matrix(40.4372 -8.65385 8.66512 40.3846 26.573 31.7308)" gradientUnits="userSpaceOnUse">
<stop stop-color="#FF6035"/>
<stop offset="0.396225" stop-color="#FF6035"/>
<stop offset="1" stop-color="#FFBDAB"/>
</radialGradient>
<radialGradient id="paint4_radial_483_223" cx="0" cy="0" r="1" gradientTransform="matrix(40.4372 -8.65385 8.66512 40.3846 26.573 31.7308)" gradientUnits="userSpaceOnUse">
<stop stop-color="#FF6035"/>
<stop offset="0.396225" stop-color="#FF6035"/>
<stop offset="1" stop-color="#FFBDAB"/>
</radialGradient>
<radialGradient id="paint5_radial_483_223" cx="0" cy="0" r="1" gradientTransform="matrix(40.4372 -8.65385 8.66512 40.3846 26.573 31.7308)" gradientUnits="userSpaceOnUse">
<stop stop-color="#FF6035"/>
<stop offset="0.396225" stop-color="#FF6035"/>
<stop offset="1" stop-color="#FFBDAB"/>
</radialGradient>
<radialGradient id="paint6_radial_483_223" cx="0" cy="0" r="1" gradientTransform="matrix(40.4372 -8.65385 8.66512 40.3846 26.573 31.7308)" gradientUnits="userSpaceOnUse">
<stop stop-color="#FF6035"/>
<stop offset="0.396225" stop-color="#FF6035"/>
<stop offset="1" stop-color="#FFBDAB"/>
</radialGradient>
<radialGradient id="paint7_radial_483_223" cx="0" cy="0" r="1" gradientTransform="matrix(40.4372 -8.65385 8.66512 40.3846 26.573 31.7308)" gradientUnits="userSpaceOnUse">
<stop stop-color="#FF6035"/>
<stop offset="0.396225" stop-color="#FF6035"/>
<stop offset="1" stop-color="#FFBDAB"/>
</radialGradient>
<radialGradient id="paint8_radial_483_223" cx="0" cy="0" r="1" gradientTransform="matrix(40.4372 -8.65385 8.66512 40.3846 26.573 31.7308)" gradientUnits="userSpaceOnUse">
<stop stop-color="#FF6035"/>
<stop offset="0.396225" stop-color="#FF6035"/>
<stop offset="1" stop-color="#FFBDAB"/>
</radialGradient>
<radialGradient id="paint9_radial_483_223" cx="0" cy="0" r="1" gradientTransform="matrix(40.4372 -8.65385 8.66512 40.3846 26.573 31.7308)" gradientUnits="userSpaceOnUse">
<stop stop-color="#FF6035"/>
<stop offset="0.396225" stop-color="#FF6035"/>
<stop offset="1" stop-color="#FFBDAB"/>
</radialGradient>
<clipPath id="clip0_483_223">
<rect width="60" height="60" fill="white"/>
</clipPath>
</defs>
</svg>
