<svg width="60" height="60" viewBox="0 0 60 60" fill="none" xmlns="http://www.w3.org/2000/svg">
<path d="M57.9988 46.2688C57.677 47.1099 57.0627 47.3902 56.1852 47.3755C54.3424 47.346 52.4997 47.3903 50.6569 47.3607C47.9659 47.3165 45.3772 47.8034 42.847 48.7183C34.5106 51.7729 26.1596 54.7831 17.8086 57.8082C16.5947 58.2509 15.9805 57.941 15.5417 56.7162C13.5088 51.0055 11.4613 45.2801 9.42837 39.5547C9.12124 38.6988 9.22362 38.2709 9.76475 38.0495C10.2913 37.8429 10.6715 38.1381 10.964 38.9792C12.953 44.5423 14.9421 50.1202 16.9165 55.6833C16.9896 55.8751 17.0481 56.0522 17.1359 56.303C23.1615 54.1191 29.1286 51.9499 35.0956 49.7808C35.0956 49.7513 35.081 49.7217 35.081 49.6922C33.7355 49.9283 32.3754 50.1497 31.0298 50.3858C27.3589 51.0203 23.7026 51.6548 20.0463 52.2893C19.1834 52.4369 18.5106 51.9647 18.3644 51.0498C17.6331 46.8 16.9019 42.5354 16.1852 38.2709C15.1761 32.3684 14.1816 26.4511 13.1724 20.5486C12.8945 18.8812 12.602 17.2137 12.3095 15.443C9.42837 16.4464 6.57645 17.4203 3.68066 18.4237C3.75378 18.6598 3.81228 18.8369 3.87078 19.0287C5.72819 24.2377 7.58559 29.4319 9.42837 34.6408C9.47225 34.7736 9.54537 34.9212 9.57462 35.054C9.677 35.5115 9.5015 35.8656 9.07736 36.0279C8.63861 36.1903 8.2876 36.0279 8.06822 35.6295C8.00972 35.541 7.98047 35.4229 7.95122 35.3196C5.99144 29.9041 4.03166 24.459 2.11576 18.9992C1.98413 18.6155 1.94025 18.0696 2.11576 17.7449C2.32051 17.376 2.77389 17.0514 3.1834 16.9038C5.91831 15.9152 8.68248 14.9708 11.4467 14.0116C11.6368 13.9526 11.8123 13.8788 12.017 13.805C11.8708 12.9934 11.7392 12.2113 11.6075 11.4292C11.3882 10.1307 11.7684 9.56996 13.0554 9.34862C16.0097 8.83215 18.9786 8.31568 22.0061 7.79921C22.0061 7.59262 22.0061 7.38603 22.0061 7.1942C22.0061 6.0137 22.0061 4.8332 22.0061 3.6527C22.0207 2.59025 22.5472 2.05903 23.5856 2.01476C23.7172 2.01476 23.8342 2.01476 23.9658 2.01476C32.4339 2.01476 40.9019 2.01476 49.3552 2C50.0865 2 50.6276 2.20659 51.1542 2.72306C53.1724 4.7004 55.22 6.64822 57.2382 8.6108C57.5161 8.87642 57.7355 9.1863 57.9841 9.48142C57.9988 21.7439 57.9988 34.0063 57.9988 46.2688ZM38.2839 47.464C38.2839 47.4345 38.2839 47.405 38.2839 47.3755C38.0646 47.3755 37.8452 47.3755 37.6258 47.3755C32.975 47.3755 28.3242 47.3755 23.6733 47.3755C22.5618 47.3755 21.9914 46.8295 21.9914 45.7375C21.9914 40.4105 21.9914 35.0983 21.9914 29.7713C21.9914 29.1368 22.3132 28.7383 22.8105 28.7383C23.3077 28.7236 23.6148 29.1072 23.6295 29.7565C23.6295 29.9041 23.6295 30.0516 23.6295 30.1992C23.6295 35.1573 23.6295 40.1007 23.6295 45.0588C23.6295 45.2654 23.6295 45.4867 23.6295 45.6785C34.5838 45.6785 45.4503 45.6785 56.3169 45.6785C56.3169 34.0358 56.3169 22.4227 56.3169 10.7505C56.0828 10.7505 55.8635 10.7505 55.6587 10.7505C53.9622 10.7505 52.2657 10.7652 50.5691 10.7209C49.3845 10.6914 48.6971 9.90935 48.6679 8.72885C48.6679 8.44848 48.6679 8.18287 48.6679 7.9025C48.6679 6.53017 48.6679 5.14308 48.6679 3.72648C40.3022 3.72648 31.9951 3.72648 23.6587 3.72648C23.6441 3.90356 23.6295 4.03636 23.6295 4.18393C23.6295 6.32358 23.6295 8.44848 23.6295 10.5881C23.6295 15.5462 23.6295 20.4896 23.6295 25.4477C23.6295 26.1708 23.3662 26.5249 22.8397 26.5397C22.2986 26.5544 22.0061 26.1707 21.9914 25.4329C21.9914 25.3001 21.9914 25.1821 21.9914 25.0493C21.9914 20.0912 21.9914 15.1478 21.9914 10.1897C21.9914 9.96838 21.9914 9.76179 21.9914 9.48142C19.0225 9.99789 16.1267 10.4996 13.2017 11.0013C15.454 24.2377 17.6916 37.4003 19.9439 50.6366C26.0865 49.5742 32.1852 48.5117 38.2839 47.464ZM50.3205 4.24295C50.3205 5.74809 50.3351 7.12042 50.3059 8.49275C50.2913 8.93544 50.4521 9.083 50.8763 9.083C52.2657 9.06825 53.6404 9.083 55.0298 9.083C55.0883 9.083 55.1468 9.03873 55.2638 8.99447C53.6112 7.41555 52.017 5.8809 50.3205 4.24295Z" fill="url(#paint0_radial_482_162)"/>
<path d="M40.2145 25.8314C43.9732 25.8314 47.7318 25.8314 51.4759 25.8314C51.6514 25.8314 51.8415 25.8166 52.017 25.8461C52.4412 25.9347 52.7044 26.215 52.7044 26.643C52.7044 27.1004 52.4412 27.3955 51.9878 27.4693C51.8854 27.4841 51.7684 27.4841 51.666 27.4841C44.0024 27.4841 36.3534 27.4841 28.6898 27.4841C28.5582 27.4841 28.4265 27.4988 28.3095 27.4693C27.8854 27.3808 27.6222 27.1152 27.6222 26.6725C27.6222 26.2298 27.8562 25.9494 28.2949 25.8461C28.4704 25.8018 28.6605 25.8314 28.836 25.8314C32.624 25.8314 36.4119 25.8314 40.2145 25.8314Z" fill="url(#paint1_radial_482_162)"/>
<path d="M40.1999 19.9584C43.9585 19.9584 47.7172 19.9584 51.4613 19.9584C51.6368 19.9584 51.8269 19.9436 52.0024 19.9731C52.4265 20.0321 52.719 20.3125 52.6752 20.6962C52.6459 20.9913 52.3973 21.3012 52.1633 21.5078C52.017 21.6406 51.7099 21.5963 51.4759 21.5963C43.9147 21.5963 36.3388 21.5963 28.7775 21.5963C28.6898 21.5963 28.602 21.5963 28.4997 21.5963C27.9147 21.5668 27.5637 21.2126 27.5783 20.7257C27.6075 20.2535 27.9439 19.9436 28.5143 19.9436C32.4339 19.9584 36.3242 19.9584 40.1999 19.9584Z" fill="url(#paint2_radial_482_162)"/>
<path d="M40.1999 33.3718C36.3827 33.3718 32.5801 33.3718 28.7629 33.3718C28.5874 33.3718 28.3534 33.4308 28.2218 33.3423C27.9878 33.1652 27.7099 32.9144 27.6222 32.6488C27.5051 32.2946 27.7245 31.9552 28.0902 31.8224C28.3095 31.7486 28.5582 31.7339 28.7922 31.7339C36.3534 31.7339 43.9293 31.7339 51.4905 31.7339C51.5783 31.7339 51.666 31.7339 51.7684 31.7339C52.3534 31.7634 52.719 32.1028 52.719 32.5897C52.7044 33.0767 52.3388 33.3866 51.7392 33.3866C47.8927 33.3718 44.0463 33.3718 40.1999 33.3718Z" fill="url(#paint3_radial_482_162)"/>
<path d="M40.1413 14.0706C43.9 14.0706 47.6587 14.0706 51.4028 14.0706C51.6075 14.0706 51.8123 14.0559 52.0024 14.1001C52.4704 14.1739 52.719 14.4838 52.7044 14.9412C52.6898 15.3692 52.4265 15.6495 51.9878 15.7086C51.783 15.7381 51.5929 15.7233 51.3882 15.7233C43.9 15.7233 36.3973 15.7233 28.9092 15.7233C28.6898 15.7233 28.4704 15.7233 28.251 15.6938C27.8269 15.62 27.6222 15.3397 27.6075 14.9265C27.5929 14.5133 27.7977 14.2182 28.2218 14.1296C28.4265 14.0854 28.6605 14.0854 28.8799 14.0854C32.6386 14.0706 36.3973 14.0706 40.1413 14.0706Z" fill="url(#paint4_radial_482_162)"/>
<path d="M40.1413 37.6216C43.9147 37.6216 47.688 37.6216 51.4613 37.6216C51.6368 37.6216 51.8269 37.6216 52.0024 37.6364C52.4412 37.6954 52.6898 37.9905 52.7044 38.4184C52.719 38.8316 52.4997 39.1267 52.0902 39.2153C51.9 39.2596 51.6953 39.2743 51.4905 39.2743C43.9293 39.2743 36.3534 39.2743 28.7922 39.2743C28.5728 39.2743 28.3534 39.2596 28.1487 39.2005C27.7538 39.0677 27.5052 38.7431 27.6368 38.3594C27.7245 38.0791 28.017 37.8429 28.2803 37.6511C28.4119 37.5478 28.6752 37.6216 28.8653 37.6216C32.6386 37.6216 36.3973 37.6216 40.1413 37.6216Z" fill="url(#paint5_radial_482_162)"/>
<defs>
<radialGradient id="paint0_radial_482_162" cx="0" cy="0" r="1" gradientTransform="matrix(37.6915 -8.07686 8.07674 37.692 26.7687 31.6151)" gradientUnits="userSpaceOnUse">
<stop stop-color="#FF6035"/>
<stop offset="0.396225" stop-color="#FF6035"/>
<stop offset="1" stop-color="#FFBDAB"/>
</radialGradient>
<radialGradient id="paint1_radial_482_162" cx="0" cy="0" r="1" gradientTransform="matrix(37.6915 -8.07686 8.07674 37.692 26.7687 31.6151)" gradientUnits="userSpaceOnUse">
<stop stop-color="#FF6035"/>
<stop offset="0.396225" stop-color="#FF6035"/>
<stop offset="1" stop-color="#FFBDAB"/>
</radialGradient>
<radialGradient id="paint2_radial_482_162" cx="0" cy="0" r="1" gradientTransform="matrix(37.6915 -8.07686 8.07674 37.692 26.7687 31.6151)" gradientUnits="userSpaceOnUse">
<stop stop-color="#FF6035"/>
<stop offset="0.396225" stop-color="#FF6035"/>
<stop offset="1" stop-color="#FFBDAB"/>
</radialGradient>
<radialGradient id="paint3_radial_482_162" cx="0" cy="0" r="1" gradientTransform="matrix(37.6915 -8.07686 8.07674 37.692 26.7687 31.6151)" gradientUnits="userSpaceOnUse">
<stop stop-color="#FF6035"/>
<stop offset="0.396225" stop-color="#FF6035"/>
<stop offset="1" stop-color="#FFBDAB"/>
</radialGradient>
<radialGradient id="paint4_radial_482_162" cx="0" cy="0" r="1" gradientTransform="matrix(37.6915 -8.07686 8.07674 37.692 26.7687 31.6151)" gradientUnits="userSpaceOnUse">
<stop stop-color="#FF6035"/>
<stop offset="0.396225" stop-color="#FF6035"/>
<stop offset="1" stop-color="#FFBDAB"/>
</radialGradient>
<radialGradient id="paint5_radial_482_162" cx="0" cy="0" r="1" gradientTransform="matrix(37.6915 -8.07686 8.07674 37.692 26.7687 31.6151)" gradientUnits="userSpaceOnUse">
<stop stop-color="#FF6035"/>
<stop offset="0.396225" stop-color="#FF6035"/>
<stop offset="1" stop-color="#FFBDAB"/>
</radialGradient>
</defs>
</svg>
