<svg width="60" height="60" viewBox="0 0 60 60" fill="none" xmlns="http://www.w3.org/2000/svg">
<path d="M21.8415 58C21.4813 57.8565 21.0922 57.7561 20.7464 57.5695C19.5072 56.8951 18.8588 55.8189 18.8588 54.4127C18.8444 47.8983 18.83 41.3838 18.8588 34.8693C18.8732 32.803 20.3862 31.3538 22.4611 31.3107C23.2392 31.2964 24.0029 31.2964 24.781 31.3107C25.0836 31.3107 25.2421 31.2677 25.3141 30.8946C26.3516 25.3415 30.4582 21.3525 36.049 20.4198C42.5331 19.3436 49.1037 23.8636 50.4294 30.3206C50.6311 31.2964 50.6311 31.2964 51.6254 31.2964C52.2017 31.2964 52.7781 31.282 53.3545 31.2964C55.5447 31.3538 57.0144 32.8461 57.0144 35.0271C57.0144 40.408 57.0144 45.8033 57.0144 51.1842C57.0144 52.1743 57.0144 53.15 57.0144 54.1401C57.0144 56.1203 56.049 57.3686 54.147 57.8996C54.0893 57.9139 54.0461 57.9426 54.0029 57.9713C43.2824 58 32.562 58 21.8415 58ZM41.1499 42.79C43.3256 41.2546 45.4582 39.7623 47.5764 38.2557C47.8213 38.0835 48.0375 37.8109 48.1671 37.5239C49.0893 35.4576 49.3199 33.3052 48.9452 31.0668C47.9654 25.2124 42 20.9937 36.1499 22.0556C29.9251 23.1891 25.9914 28.6418 26.9135 34.8836C27.1729 36.6486 27.7781 38.1409 29.4784 39.131C31.2939 40.1928 32.951 41.5273 34.7089 42.7756C35.487 42.0295 36.3084 41.4268 37.317 41.312C37.2161 40.7668 37.1297 40.2789 37.072 39.9632C36.1931 39.5901 35.3862 39.3032 34.6513 38.887C34.0461 38.557 34.0893 37.6961 34.7233 37.4952C34.9827 37.4091 35.3429 37.5239 35.6167 37.6243C36.0922 37.7965 36.5533 38.0117 37.1297 38.27C37.1297 37.036 37.072 35.9885 37.1441 34.941C37.2161 34.0084 37.0144 33.4057 36.0634 33.0039C34.9395 32.516 34.464 31.4973 34.5648 30.2776C34.6657 29.0579 35.2421 28.1109 36.366 27.623C36.9135 27.3934 37.2017 27.1638 37.1441 26.5325C37.1009 26.0877 37.4179 25.8007 37.8934 25.7863C38.3545 25.772 38.6427 26.0159 38.7147 26.4607C38.7579 26.719 38.7579 26.9916 38.7579 27.1638C39.3919 27.4795 39.9971 27.7235 40.5447 28.0535C41.0202 28.3405 41.1066 28.8714 40.804 29.2588C40.5158 29.6319 40.0836 29.6606 39.6081 29.3592C39.3631 29.2014 39.0893 29.0866 38.7435 28.9144C38.7435 29.9763 38.7867 30.9089 38.7291 31.8273C38.7003 32.3726 38.8732 32.6021 39.3919 32.7743C40.6167 33.1761 41.4524 34.0084 41.6974 35.2998C42.0432 37.1651 40.9914 38.9731 39.1758 39.5901C38.8444 39.7049 38.7291 39.8341 38.7291 40.1785C38.7291 40.5515 38.6138 40.9246 38.5418 41.3407C39.5504 41.4268 40.3718 42.0438 41.1499 42.79ZM53.9741 56.3499C53.3112 55.7615 52.7493 55.2593 52.2017 54.7715C48.0375 51.0694 43.8876 47.3817 39.7233 43.694C38.5562 42.6608 37.3602 42.6178 36.2939 43.5648C31.6398 47.6974 26.9856 51.8299 22.3314 55.9624C22.2161 56.0629 22.0576 56.1059 21.9135 56.1777C21.9568 56.2351 22.0144 56.2925 22.0576 56.3642C32.634 56.3499 43.2248 56.3499 53.9741 56.3499ZM33.4697 43.8805C29.1326 40.8242 24.853 37.8109 20.5158 34.7545C20.487 34.9267 20.4726 34.9984 20.4726 35.0702C20.4726 41.5129 20.4582 47.9557 20.4726 54.3984C20.4726 54.671 20.5591 54.9293 20.6311 55.3024C24.9683 51.4568 29.2046 47.683 33.4697 43.8805ZM55.1844 55.2593C55.415 54.671 55.487 35.6011 55.2997 34.7976C51.0058 37.8252 46.7262 40.8385 42.389 43.8949C46.6686 47.6974 50.9049 51.4568 55.1844 55.2593ZM50.3718 36.2755C51.7695 35.2854 53.1527 34.324 54.6513 33.2622C53.2968 32.7026 52.0144 33.0183 50.804 32.9322C50.6599 34.0801 50.5159 35.1563 50.3718 36.2755ZM21.2219 33.2765C22.706 34.324 24.0749 35.2854 25.4726 36.2755C25.3285 35.1276 25.1988 34.0514 25.0548 32.9178C23.8156 33.047 22.5475 32.6739 21.2219 33.2765ZM38.7867 34.2953C38.7867 35.5294 38.7867 36.7347 38.7867 37.9543C39.6369 37.6243 40.1844 36.7634 40.1412 35.9168C40.098 35.1132 39.6369 34.5393 38.7867 34.2953ZM37.0432 31.6838C37.0432 30.7942 37.0432 29.9476 37.0432 29.0579C35.8617 29.8758 35.8905 31.1385 37.0432 31.6838Z" fill="url(#paint0_radial_478_1473)"/>
<path d="M4.79539 58C4.42075 57.8422 4.01729 57.7274 3.67147 57.5265C2.63401 56.9095 2.10086 55.9768 2.01441 54.8002C2 54.6423 2 54.4701 2 54.3123C2 38.4279 2 22.5578 2 6.67336C2 4.73624 3.06628 3.37308 4.83862 3.0574C5.11239 3 5.38617 3 5.64553 3C14.9251 3 24.2046 3 33.4841 3C34.5504 3 35.4294 3.34438 36.1931 4.10488C38.8588 6.78816 41.5533 9.45708 44.2334 12.126C44.8963 12.7861 45.1988 13.5896 45.1988 14.4936C45.2133 15.9859 45.2133 17.4639 45.1988 18.9562C45.1988 19.5875 44.8674 19.9463 44.3775 19.9463C43.8876 19.9463 43.585 19.5732 43.585 18.9418C43.5706 17.55 43.5706 16.1438 43.585 14.7519C43.585 14.3358 43.4697 14.1923 43.0375 14.2066C41.0202 14.2353 39.0029 14.221 37 14.221C35.1124 14.221 33.9308 13.0444 33.9308 11.1646C33.9308 9.01226 33.9308 6.87425 33.9308 4.62145C33.7147 4.62145 33.5274 4.62145 33.3401 4.62145C24.1037 4.62145 14.853 4.62145 5.61671 4.62145C4.30548 4.62145 3.61383 5.3102 3.61383 6.60162C3.61383 22.5291 3.61383 38.4709 3.61383 54.3984C3.61383 55.7042 4.30548 56.3929 5.60231 56.3929C9.37752 56.3929 13.1527 56.3929 16.928 56.3929C17.6628 56.3929 18.1095 56.7947 17.9366 57.3686C17.8646 57.6126 17.5908 57.7991 17.4179 58.0144C13.2104 58 9.00288 58 4.79539 58ZM35.5591 5.88416C35.5591 7.6491 35.5591 9.38534 35.5591 11.1216C35.5591 12.1404 36.0058 12.5852 37.0432 12.5995C38.6571 12.5995 40.2709 12.5995 41.8991 12.5995C42.0288 12.5995 42.1585 12.5852 42.2738 12.5708C40.0403 10.3467 37.8213 8.13697 35.5591 5.88416Z" fill="url(#paint1_radial_478_1473)"/>
<path d="M19.0317 10.9207C22.2594 10.9207 25.5014 10.9207 28.7291 10.9207C28.9308 10.9207 29.1326 10.9063 29.3199 10.9494C29.7089 11.0068 29.9251 11.2507 29.9539 11.6381C29.9971 12.0399 29.8242 12.3412 29.4207 12.4704C29.2046 12.5421 28.9597 12.5421 28.7291 12.5421C22.245 12.5421 15.7608 12.5421 9.27666 12.5421C8.42651 12.5421 8.00865 12.2695 8.03746 11.7099C8.05187 11.1646 8.42651 10.935 9.27666 10.935C12.5331 10.9207 15.7752 10.9207 19.0317 10.9207Z" fill="url(#paint2_radial_478_1473)"/>
<path d="M18.9885 18.0522C15.7608 18.0522 12.5187 18.0522 9.29107 18.0522C9.11816 18.0522 8.93084 18.0665 8.75793 18.0378C8.32565 17.9661 8.08069 17.7078 8.06628 17.2773C8.05187 16.8469 8.29683 16.5742 8.7147 16.4738C8.88761 16.4307 9.07493 16.4451 9.24784 16.4451C15.7752 16.4451 22.2882 16.4451 28.8156 16.4451C28.9885 16.4451 29.1758 16.4307 29.3487 16.4738C29.7666 16.5742 29.9971 16.8469 29.9827 17.2773C29.9683 17.7078 29.7233 17.9661 29.2911 18.0378C29.1182 18.0665 28.9308 18.0522 28.7579 18.0522C25.487 18.0522 22.2305 18.0522 18.9885 18.0522Z" fill="url(#paint3_radial_478_1473)"/>
<path d="M13.9164 21.9838C15.4726 21.9838 17.0432 21.9838 18.5994 21.9838C18.8012 21.9838 19.0029 21.9838 19.1902 22.0125C19.5648 22.0986 19.853 22.3569 19.781 22.7156C19.7378 23.0026 19.4928 23.2752 19.2767 23.5048C19.1758 23.6053 18.9308 23.5766 18.7579 23.5766C15.5447 23.5766 12.3314 23.5766 9.11816 23.5766C9.01729 23.5766 8.90202 23.5766 8.80115 23.5622C8.32565 23.5048 8.02306 23.1748 8.03746 22.7443C8.05187 22.3282 8.36888 21.9982 8.84438 21.9838C9.79539 21.9551 10.7464 21.9695 11.6974 21.9695C12.4323 21.9838 13.1816 21.9838 13.9164 21.9838Z" fill="url(#paint4_radial_478_1473)"/>
<defs>
<radialGradient id="paint0_radial_478_1473" cx="0" cy="0" r="1" gradientUnits="userSpaceOnUse" gradientTransform="translate(26.3333 32.0941) rotate(-12.0947) scale(37.8695 37.8695)">
<stop stop-color="#FF6035"/>
<stop offset="0.396225" stop-color="#FF6035"/>
<stop offset="1" stop-color="#FFBDAB"/>
</radialGradient>
<radialGradient id="paint1_radial_478_1473" cx="0" cy="0" r="1" gradientUnits="userSpaceOnUse" gradientTransform="translate(26.3333 32.0941) rotate(-12.0947) scale(37.8695 37.8695)">
<stop stop-color="#FF6035"/>
<stop offset="0.396225" stop-color="#FF6035"/>
<stop offset="1" stop-color="#FFBDAB"/>
</radialGradient>
<radialGradient id="paint2_radial_478_1473" cx="0" cy="0" r="1" gradientUnits="userSpaceOnUse" gradientTransform="translate(26.3333 32.0941) rotate(-12.0947) scale(37.8695 37.8695)">
<stop stop-color="#FF6035"/>
<stop offset="0.396225" stop-color="#FF6035"/>
<stop offset="1" stop-color="#FFBDAB"/>
</radialGradient>
<radialGradient id="paint3_radial_478_1473" cx="0" cy="0" r="1" gradientUnits="userSpaceOnUse" gradientTransform="translate(26.3333 32.0941) rotate(-12.0947) scale(37.8695 37.8695)">
<stop stop-color="#FF6035"/>
<stop offset="0.396225" stop-color="#FF6035"/>
<stop offset="1" stop-color="#FFBDAB"/>
</radialGradient>
<radialGradient id="paint4_radial_478_1473" cx="0" cy="0" r="1" gradientUnits="userSpaceOnUse" gradientTransform="translate(26.3333 32.0941) rotate(-12.0947) scale(37.8695 37.8695)">
<stop stop-color="#FF6035"/>
<stop offset="0.396225" stop-color="#FF6035"/>
<stop offset="1" stop-color="#FFBDAB"/>
</radialGradient>
</defs>
</svg>
