<svg width="60" height="60" viewBox="0 0 60 60" fill="none" xmlns="http://www.w3.org/2000/svg">
<path d="M32.1197 57.0003C31.371 56.6272 31.0831 56.0389 31.1407 55.221C31.1839 54.5753 31.1839 53.9296 31.0975 53.2983C30.8816 51.6912 30.0178 50.4858 28.5781 49.711C25.3965 47.9891 22.2005 46.2816 19.0045 44.574C17.6512 43.8566 17.3777 42.8665 18.1407 41.5607C19.5084 39.2218 22.2869 38.3896 24.7199 39.6092C25.4829 39.9967 26.2459 40.4128 26.9945 40.8146C27.5272 41.0872 27.6855 41.0155 27.6855 40.4415C27.6855 38.7626 27.6855 37.0838 27.6855 35.3332C26.9945 35.3332 26.3323 35.3332 25.67 35.3332C24.5759 35.3332 23.9713 34.8597 23.6977 33.7979C23.5538 33.2239 23.381 32.6643 23.2802 32.076C23.2083 31.7173 23.0067 31.5738 22.7044 31.4016C21.9989 30.9998 21.4231 31.1002 20.804 31.5738C20.4441 31.8607 20.0122 32.076 19.6091 32.2912C18.8461 32.7073 18.0975 32.6212 17.4785 32.0329C16.4131 30.9998 15.3478 29.9523 14.3112 28.8761C13.6922 28.2304 13.6058 27.4843 14.0521 26.7094C14.3832 26.1211 14.7719 25.5471 15.0886 24.9445C15.1894 24.7436 15.1894 24.4566 15.1462 24.227C14.9879 23.4235 14.4984 22.993 13.649 22.9213C13.2459 22.8926 12.8428 22.7347 12.4541 22.6343C11.5327 22.3904 11.0001 21.7733 11.0001 20.8263C10.9857 19.3914 10.9857 17.9565 11.0001 16.5359C11.0145 15.5889 11.5183 14.9575 12.4397 14.7136C13.0587 14.5558 13.6922 14.3979 14.3256 14.2544C14.6424 14.1827 14.7719 14.0105 14.9303 13.7379C15.3622 13.0061 15.2758 12.389 14.7431 11.7433C14.4984 11.442 14.3256 11.0833 14.1241 10.7389C13.5914 9.79187 13.7498 8.88787 14.5848 8.19912C14.9447 7.91214 15.4054 7.91214 15.7077 8.19912C16.0244 8.50045 16.0244 8.93092 15.7365 9.31835C15.6357 9.44749 15.5205 9.56228 15.4054 9.70577C15.8373 10.4376 16.2692 11.155 16.7154 11.8725C17.0466 12.389 17.0754 12.8913 16.8162 13.4509C16.6291 13.8527 16.4419 14.2688 16.298 14.6849C16.0964 15.2445 15.7221 15.5602 15.1462 15.7037C14.4408 15.8615 13.7498 16.0624 13.0587 16.2203C12.7564 16.292 12.6125 16.4211 12.6269 16.7655C12.6413 18.0426 12.6556 19.3053 12.6269 20.5824C12.6269 20.9554 12.7708 21.0846 13.1019 21.142C13.7642 21.2855 14.4264 21.4577 15.0886 21.6299C16.3987 21.9742 17.3777 24.3418 16.7011 25.5041C16.2836 26.2072 15.8517 26.9103 15.391 27.6995C16.4563 28.747 17.5073 29.7801 18.587 30.8133C18.659 30.885 18.9181 30.8563 19.0477 30.7846C19.7099 30.4115 20.3434 30.0241 20.9912 29.6366C21.4519 29.3497 21.927 29.321 22.4308 29.5362C22.7188 29.6653 23.0067 29.8375 23.3234 29.9093C24.3024 30.1389 24.7631 30.7559 24.907 31.7029C24.9934 32.2482 25.1662 32.7791 25.2957 33.3244C25.3533 33.6113 25.4829 33.7405 25.7996 33.7261C26.4187 33.6974 27.0521 33.7118 27.7287 33.7118C27.7287 33.4535 27.7287 33.2526 27.7287 33.0374C27.7287 28.8905 27.7287 24.7293 27.7287 20.5824C27.7287 18.9466 28.7221 17.5978 30.1761 17.1673C32.3212 16.5503 34.4663 18.1287 34.4951 20.3815C34.5239 22.6199 34.4951 24.8584 34.5095 27.0969C34.5095 27.2834 34.5095 27.4843 34.5095 27.6421C36.0067 27.6708 37.5039 27.226 38.8572 28.173C39.2171 27.9865 39.5914 27.8 40.0377 27.5704C39.649 26.939 39.2891 26.2646 38.8572 25.6332C38.4253 24.9875 38.3677 24.3562 38.7564 23.6674C38.8572 23.4952 38.9436 23.3087 38.9868 23.1222C39.2171 22.1177 39.865 21.6299 40.8583 21.472C41.5061 21.3716 42.1396 21.1563 42.8306 20.9985C42.8306 19.5062 42.845 18.0426 42.8162 16.579C42.8162 16.4498 42.5715 16.2633 42.4131 16.2059C41.7077 16.005 40.9879 15.8328 40.2824 15.6606C39.7498 15.5315 39.3899 15.2158 39.2171 14.7136C39.1307 14.4553 39.0731 14.1827 38.9292 13.9674C38.3245 13.0204 38.4541 12.1595 39.1163 11.2985C39.4187 10.9111 39.6346 10.4376 39.9081 10.0215C40.0809 9.76317 40.0377 9.59098 39.8218 9.37574C38.9004 8.47175 37.979 7.56776 37.0864 6.63507C36.8705 6.41983 36.7121 6.39114 36.4386 6.54898C35.8771 6.9077 35.3013 7.23773 34.7398 7.58211C34.6534 7.63951 34.5527 7.6969 34.4663 7.73995C33.4729 8.27086 31.0687 7.25208 30.7808 6.16155C30.5936 5.45845 30.4065 4.74099 30.2481 4.02354C30.1761 3.70786 30.061 3.57872 29.7154 3.59307C28.4198 3.60742 27.1241 3.60742 25.8428 3.59307C25.5261 3.59307 25.3965 3.72221 25.3389 3.99484C25.1662 4.72664 24.9646 5.4441 24.7919 6.1759C24.6623 6.69247 24.36 7.02249 23.8705 7.20903C23.381 7.39557 22.9059 7.59646 22.4308 7.79735C21.9702 7.99823 21.5239 7.96953 21.092 7.71125C20.4297 7.30948 19.7819 6.9077 19.1053 6.53463C18.9613 6.46288 18.7022 6.47723 18.5726 6.56332C18.0975 6.86466 17.68 6.86466 17.3777 6.50593C17.0898 6.16155 17.1473 5.68803 17.536 5.31496C18.1551 4.71229 18.9325 4.58315 19.7099 4.99928C20.329 5.3293 20.9048 5.73108 21.5239 6.06111C21.7254 6.16155 22.0133 6.16155 22.2437 6.1185C23.0931 5.97501 23.4674 5.4154 23.5682 4.5688C23.525 4.15268 23.6689 3.69351 23.8129 3.26304C24.0576 2.50254 24.6623 2.02902 25.4541 2.01467C26.9657 2.00032 28.4774 2.00032 29.9746 2.01467C30.824 2.02902 31.443 2.54558 31.6734 3.39218C31.8461 4.05224 31.9901 4.71229 32.1916 5.358C32.2492 5.55889 32.4508 5.74543 32.6379 5.87457C33.3434 6.37679 34.0056 6.27634 34.6678 5.73108C34.9846 5.4728 35.3733 5.30061 35.7188 5.08537C36.5682 4.5975 37.3312 4.6836 38.0222 5.37235C39.03 6.36244 40.0377 7.36687 41.0311 8.37131C41.7077 9.06006 41.8085 9.83491 41.3334 10.6672C41.0023 11.2411 40.6712 11.8151 40.3112 12.3604C40.1529 12.6186 40.1817 12.8195 40.2537 13.0922C40.4696 13.9101 40.9447 14.2975 41.7797 14.3836C42.2548 14.4266 42.7298 14.5988 43.1905 14.7423C43.9535 14.9862 44.4142 15.5745 44.4142 16.3781C44.4286 17.8704 44.4286 19.3484 44.4142 20.8407C44.3998 21.7016 43.9392 22.3043 43.1186 22.5482C42.5859 22.706 42.0532 22.8495 41.5061 22.95C40.9159 23.0504 40.556 23.3087 40.34 23.9257C40.1817 24.3992 40.1241 24.7436 40.4408 25.1454C40.6855 25.4754 40.8871 25.8341 41.0886 26.1929C41.319 26.609 41.5205 27.0395 41.7653 27.5273C43.1329 27.4269 44.2559 27.9004 44.731 29.2492C45.6955 29.2492 46.6025 29.2349 47.5095 29.2492C48.9059 29.2779 49.9857 30.2967 50.0001 31.6886C50.0289 34.1566 50.0145 36.6246 50.0001 39.0927C50.0001 39.6666 49.6545 40.011 49.1651 40.011C48.6756 39.9967 48.3877 39.6666 48.3877 39.0496C48.3877 36.7251 48.3877 34.4005 48.3877 32.0616C48.3877 31.1002 48.1285 30.842 47.1784 30.842C46.7465 30.842 46.3146 30.842 45.8827 30.842C45.1341 30.8563 44.8317 31.1433 44.8317 31.8751C44.8317 33.4391 44.8317 34.9888 44.8317 36.5529C44.8317 36.7107 44.8461 36.8829 44.8173 37.0408C44.7597 37.4856 44.3854 37.8156 43.9679 37.7726C43.5217 37.7295 43.2337 37.4712 43.2193 36.9977C43.2049 36.3664 43.2049 35.7493 43.2049 35.118C43.2049 33.4822 43.2049 31.8607 43.2049 30.2249C43.2049 29.4214 42.9026 29.1344 42.0964 29.1201C41.6069 29.1201 41.1318 29.1057 40.6424 29.1201C39.9801 29.1344 39.6634 29.4501 39.6634 30.1245C39.6634 32.2482 39.6634 34.3862 39.6634 36.5098C39.6634 36.6533 39.6778 36.7968 39.6634 36.9403C39.6202 37.4425 39.2891 37.7726 38.8428 37.7582C38.3965 37.7439 38.0654 37.4138 38.051 36.9116C38.0366 35.9789 38.051 35.0462 38.051 34.1135C38.051 32.7934 38.051 31.459 38.051 30.1389C38.051 29.4358 37.7343 29.1201 37.0289 29.1057C36.5394 29.0914 36.0643 29.1057 35.5748 29.1057C34.7974 29.1057 34.4951 29.4071 34.4951 30.1819C34.4951 32.3056 34.4951 34.4436 34.4951 36.5672C34.4951 36.7251 34.5095 36.8973 34.4807 37.0551C34.3943 37.4999 34.1064 37.7582 33.6601 37.7439C33.2282 37.7295 32.969 37.4712 32.8971 37.0551C32.8683 36.8829 32.8827 36.6964 32.8827 36.5242C32.8827 31.1863 32.8827 25.8628 32.8827 20.525C32.8827 19.5062 32.3068 18.7457 31.443 18.6022C30.4065 18.4157 29.4419 19.1762 29.3411 20.2523C29.3267 20.4532 29.3267 20.6398 29.3267 20.8407C29.3267 27.3551 29.3267 33.8696 29.3267 40.3841C29.3267 41.5464 28.7221 42.3499 27.6568 42.4647C27.2537 42.5078 26.793 42.393 26.4187 42.2208C25.5693 41.8334 24.7775 41.3311 23.9425 40.9294C22.3157 40.1258 20.4729 40.7141 19.5516 42.2638C19.3212 42.6656 19.35 42.8665 19.7819 43.0961C22.9059 44.7462 26.0012 46.4394 29.1252 48.0896C31.587 49.3953 32.7963 51.4185 32.7675 54.1879C32.7675 54.5466 32.7675 54.9054 32.7675 55.2928C36.8273 55.2928 40.8439 55.2928 44.9325 55.2928C44.9325 54.561 44.9469 53.8292 44.9325 53.0974C44.9181 52.1216 45.3212 51.3755 46.1418 50.8446C47.6678 49.8545 48.3877 48.4339 48.3733 46.6403C48.3733 45.478 48.3733 44.3157 48.3733 43.1535C48.3733 42.5508 48.6612 42.2064 49.1507 42.1921C49.6545 42.1777 49.9857 42.5365 49.9857 43.1535C49.9713 44.6745 50.0289 46.1955 49.8849 47.7165C49.7121 49.5675 48.7476 51.0168 47.2215 52.0499C46.7033 52.3943 46.4873 52.7817 46.5305 53.3844C46.5737 53.9583 46.5017 54.5323 46.5449 55.1062C46.6025 55.9385 46.3434 56.5699 45.5803 56.9573C41.103 57.0003 36.6114 57.0003 32.1197 57.0003Z" fill="url(#paint0_radial_478_1509)"/>
<path d="M30.608 10.3658C31.443 10.3371 31.8317 10.5667 31.8749 11.0976C31.9181 11.6429 31.5006 11.9442 30.6512 11.9729C26.3323 12.1451 22.9347 15.5745 22.6612 20.0228C22.6612 20.1088 22.6612 20.1949 22.6468 20.2954C22.6036 20.812 22.2869 21.1276 21.8406 21.1133C21.3943 21.1133 21.02 20.7833 21.0488 20.281C21.092 19.5062 21.164 18.7026 21.3367 17.9421C22.3445 13.6948 26.2459 10.5093 30.608 10.3658Z" fill="url(#paint1_radial_478_1509)"/>
<path d="M30.7376 13.6518C31.0111 13.7235 31.3566 13.7092 31.5294 13.8814C31.7166 14.0535 31.8893 14.441 31.8173 14.6562C31.731 14.9145 31.4142 15.1728 31.1263 15.2876C30.8096 15.4167 30.4209 15.3593 30.0754 15.4167C27.8583 15.8615 26.2747 17.6265 26.0587 19.8649C26.0444 20.0658 26.03 20.2523 26.0012 20.4532C25.9292 20.9124 25.6413 21.1563 25.1806 21.1276C24.7199 21.1133 24.4319 20.812 24.4319 20.3815C24.4319 19.8649 24.4895 19.3484 24.5903 18.8461C25.2094 15.9907 27.8295 13.7953 30.7376 13.6518Z" fill="url(#paint2_radial_478_1509)"/>
<defs>
<radialGradient id="paint0_radial_478_1509" cx="0" cy="0" r="1" gradientTransform="matrix(26.2685 -7.93218 5.62896 37.0168 28.2514 31.0885)" gradientUnits="userSpaceOnUse">
<stop stop-color="#FF6035"/>
<stop offset="0.396225" stop-color="#FF6035"/>
<stop offset="1" stop-color="#FFBDAB"/>
</radialGradient>
<radialGradient id="paint1_radial_478_1509" cx="0" cy="0" r="1" gradientTransform="matrix(26.2685 -7.93218 5.62896 37.0168 28.2514 31.0885)" gradientUnits="userSpaceOnUse">
<stop stop-color="#FF6035"/>
<stop offset="0.396225" stop-color="#FF6035"/>
<stop offset="1" stop-color="#FFBDAB"/>
</radialGradient>
<radialGradient id="paint2_radial_478_1509" cx="0" cy="0" r="1" gradientTransform="matrix(26.2685 -7.93218 5.62896 37.0168 28.2514 31.0885)" gradientUnits="userSpaceOnUse">
<stop stop-color="#FF6035"/>
<stop offset="0.396225" stop-color="#FF6035"/>
<stop offset="1" stop-color="#FFBDAB"/>
</radialGradient>
</defs>
</svg>
