<svg width="60" height="60" viewBox="0 0 60 60" fill="none" xmlns="http://www.w3.org/2000/svg">
<path d="M39.1172 1C41.1355 1.67745 41.426 3.63283 40.7226 5.04932C40.2181 6.0809 39.8053 7.15866 39.3466 8.20564C39.0408 8.92928 39.0408 8.92928 39.7135 9.3142C42.6491 10.977 45.1261 13.1788 46.915 16.0733C49.3154 19.9225 50.2023 24.0642 48.6427 28.4368C46.8079 33.5793 43.0467 36.6741 37.787 37.6748C31.9769 38.7834 26.9619 37.059 23.2771 32.3476C19.6993 27.7902 19.5158 22.7247 22.0233 17.5822C23.7817 13.9486 26.5797 11.285 30.0504 9.3142C30.7232 8.92928 30.7232 8.92928 30.4174 8.22103C29.9587 7.15866 29.5459 6.09629 29.0566 5.06472C28.2921 3.49426 28.7508 1.66206 30.6467 1.0154C30.9525 1.0154 31.2583 1.0154 31.5641 1.0154C32.3898 1.55428 33.2154 2.00078 34.1328 1.15397C34.2092 1.07698 34.3315 1.06159 34.4386 1.0154C34.7444 1.0154 35.0502 1.0154 35.356 1.0154C35.7382 1.21555 36.1051 1.4465 36.5027 1.61587C36.6862 1.69285 36.9461 1.67745 37.1296 1.61587C37.5118 1.4619 37.8482 1.23095 38.2151 1.03079C38.5056 1 38.8114 1 39.1172 1ZM34.8361 36.1198C35.1266 36.1198 35.4171 36.1352 35.6923 36.1198C36.2275 36.0736 36.7626 36.0274 37.2825 35.9196C41.9305 34.9496 45.3248 32.363 46.9303 27.7902C48.3675 23.6793 47.3278 19.8917 44.9426 16.4121C43.1996 13.8716 40.8602 12.024 38.1998 10.5767C38.0469 10.4997 37.8329 10.4843 37.6647 10.5305C36.1816 10.8231 34.6985 10.9001 33.2307 10.5305C32.3745 10.315 31.7476 10.4228 30.9984 10.8847C28.552 12.3473 26.4115 14.118 24.7908 16.489C22.6043 19.6761 21.6105 23.1558 22.6043 27.005C23.9651 32.363 29.0413 36.1198 34.8361 36.1198ZM35.096 8.94468C35.8452 8.86769 36.3957 8.8215 36.9461 8.74452C37.0684 8.72912 37.2519 8.59055 37.2977 8.48278C37.894 7.06628 38.4751 5.64979 39.0561 4.2333C39.1172 4.07933 39.2395 3.89457 39.2243 3.756C39.1784 3.47886 39.0866 3.15553 38.9032 2.95538C38.8267 2.863 38.4445 2.95538 38.261 3.07855C37.2672 3.74061 36.3039 3.74061 35.3407 3.04776C35.0655 2.8476 34.8208 2.78601 34.515 3.00157C33.5059 3.756 32.4815 3.74061 31.4571 3.01696C31.029 2.70903 30.6161 2.90919 30.5703 3.43267C30.5397 3.64823 30.6009 3.89457 30.6926 4.09473C31.2583 5.48043 31.8393 6.85073 32.4356 8.22103C32.4968 8.34421 32.665 8.48278 32.8026 8.49817C33.5976 8.68293 34.4386 8.8215 35.096 8.94468Z" fill="url(#paint0_radial_478_1518)"/>
<path d="M13.5987 55.8429C13.5987 56.3202 13.614 56.7205 13.5987 57.1208C13.5528 58.1986 12.7272 59.0608 11.6569 59.0762C8.75188 59.0916 5.86212 59.107 2.95708 59.0762C1.82564 59.0608 1.01529 58.1524 1.01529 56.9515C1 54.1031 1 51.2701 1 48.4217C1 45.8813 1 43.3562 1 40.8158C1 39.3839 1.81035 38.5525 3.21701 38.5525C5.93857 38.5525 8.67543 38.5525 11.397 38.5525C12.7884 38.5525 13.5834 39.3839 13.5834 40.785C13.5834 41.1237 13.5834 41.4778 13.5834 41.8781C14.562 41.6472 15.4946 41.4624 16.412 41.2161C19.6993 40.3385 22.9101 40.5232 26.1516 41.5394C30.5091 42.9097 34.9126 44.1414 39.2854 45.4655C39.8205 45.6349 40.3557 45.8813 40.8144 46.2046C41.1813 46.4663 41.4718 46.5433 41.8999 46.4355C45.6459 45.5117 49.4072 44.5725 53.1685 43.7257C53.9788 43.541 54.8962 43.5872 55.7065 43.7719C57.5107 44.1722 58.3822 45.8813 57.8012 47.6519C57.3578 48.9914 56.3946 49.8536 55.1255 50.4079C51.93 51.809 48.7344 53.1947 45.5389 54.5958C42.4351 55.9507 39.316 57.3056 36.2122 58.6605C32.6803 60.2155 29.0719 60.3849 25.3871 59.2764C21.6717 58.1524 17.941 57.09 14.2103 55.9969C14.0421 55.9507 13.8586 55.9045 13.5987 55.8429ZM42.1752 48.2831C42.2363 50.0076 41.533 51.2085 39.9734 51.8706C39.0714 52.2401 38.154 52.2093 37.2213 52.0091C32.5732 50.993 27.9099 49.9768 23.2618 48.9606C22.5279 48.8066 22.1609 48.3601 22.2986 47.7904C22.4362 47.2362 22.9254 46.9898 23.6288 47.1438C25.066 47.4517 26.4879 47.7751 27.9252 48.083C31.2583 48.8066 34.5915 49.5611 37.9246 50.2231C38.4445 50.3309 39.0866 50.2231 39.5606 49.9922C40.5697 49.4995 40.585 48.2831 39.6677 47.6673C39.3619 47.4671 38.9796 47.3286 38.628 47.2208C34.2092 45.8967 29.7446 44.7265 25.3871 43.2484C21.3353 41.8781 17.4976 42.7711 13.614 43.8335C13.5987 43.8951 13.5834 43.9567 13.5834 44.0029C13.5834 47.1746 13.5834 50.3463 13.5681 53.5026C13.5681 53.8567 13.721 53.9491 14.0115 54.0261C18.0327 55.1962 22.0539 56.3664 26.0751 57.5519C29.3012 58.5065 32.4356 58.3064 35.5089 56.9515C37.1449 56.2278 38.7961 55.5196 40.4321 54.7959C45.0496 52.779 49.6518 50.7774 54.2693 48.7604C54.9879 48.4525 55.6148 48.0214 55.9512 47.2824C56.3793 46.3278 55.9818 45.5579 54.9574 45.4655C54.4375 45.4194 53.8718 45.4194 53.3672 45.5425C51.1349 46.0506 48.9179 46.6049 46.7009 47.1438C45.2178 47.5441 43.7041 47.9136 42.1752 48.2831ZM2.83476 48.7758C2.83476 51.3933 2.85005 53.9953 2.81947 56.6127C2.81947 57.1054 2.94179 57.2748 3.46164 57.2748C6.01502 57.244 8.5684 57.244 11.1218 57.2748C11.6111 57.2748 11.7792 57.1516 11.7792 56.6435C11.7639 51.4395 11.7639 46.2354 11.7792 41.0313C11.7792 40.5694 11.6569 40.4001 11.1829 40.4001C8.61427 40.4154 6.03031 40.4308 3.46164 40.4001C2.9265 40.4001 2.83476 40.5848 2.83476 41.0621C2.85005 43.618 2.83476 46.1892 2.83476 48.7758Z" fill="url(#paint1_radial_478_1518)"/>
<path d="M31.1819 28.1135C30.3256 28.0981 29.8975 27.4053 30.2033 26.8048C30.2798 26.6508 30.4021 26.5277 30.5244 26.4045C32.9555 23.9564 35.3712 21.5083 37.8023 19.0757C37.9246 18.9525 38.0469 18.8293 38.1998 18.7523C38.5821 18.5522 38.9949 18.5676 39.2395 18.9063C39.423 19.1681 39.4383 19.5684 39.4383 19.8917C39.4383 20.0303 39.2701 20.1842 39.1478 20.3074C36.7014 22.7863 34.2398 25.2497 31.7782 27.7132C31.5794 27.9134 31.2889 28.0365 31.1819 28.1135Z" fill="url(#paint2_radial_478_1518)"/>
<path d="M29.1483 20.2766C29.1483 18.8139 30.3104 17.6438 31.7476 17.6438C33.1848 17.6438 34.3621 18.8293 34.3621 20.2766C34.3621 21.7393 33.2001 22.8941 31.7476 22.8941C30.2951 22.9094 29.1483 21.7547 29.1483 20.2766ZM31.7323 19.4914C31.2889 19.4914 30.9525 19.8763 30.9831 20.3228C30.9984 20.7539 31.3348 21.0618 31.7629 21.0618C32.191 21.0618 32.5121 20.7231 32.5274 20.3074C32.5274 19.8609 32.1757 19.4914 31.7323 19.4914Z" fill="url(#paint3_radial_478_1518)"/>
<path d="M40.6156 26.6046C40.6156 28.0673 39.4536 29.2375 38.0011 29.2375C36.5638 29.2375 35.4018 28.0519 35.4018 26.5892C35.4018 25.142 36.5791 23.9564 38.0164 23.9564C39.4689 23.9564 40.6156 25.142 40.6156 26.6046ZM38.7808 26.62C38.7961 26.1735 38.4445 25.804 38.0164 25.804C37.6035 25.804 37.2672 26.1581 37.2519 26.5739C37.2366 27.0204 37.5883 27.3899 38.0164 27.3899C38.4445 27.3899 38.7656 27.0511 38.7808 26.62Z" fill="url(#paint4_radial_478_1518)"/>
<defs>
<radialGradient id="paint0_radial_478_1518" cx="0" cy="0" r="1" gradientTransform="matrix(38.3519 -8.50803 8.21826 39.7041 26.2027 32.1961)" gradientUnits="userSpaceOnUse">
<stop stop-color="#FF6035"/>
<stop offset="0.396225" stop-color="#FF6035"/>
<stop offset="1" stop-color="#FFBDAB"/>
</radialGradient>
<radialGradient id="paint1_radial_478_1518" cx="0" cy="0" r="1" gradientTransform="matrix(38.3519 -8.50803 8.21826 39.7041 26.2027 32.1961)" gradientUnits="userSpaceOnUse">
<stop stop-color="#FF6035"/>
<stop offset="0.396225" stop-color="#FF6035"/>
<stop offset="1" stop-color="#FFBDAB"/>
</radialGradient>
<radialGradient id="paint2_radial_478_1518" cx="0" cy="0" r="1" gradientTransform="matrix(38.3519 -8.50803 8.21826 39.7041 26.2027 32.1961)" gradientUnits="userSpaceOnUse">
<stop stop-color="#FF6035"/>
<stop offset="0.396225" stop-color="#FF6035"/>
<stop offset="1" stop-color="#FFBDAB"/>
</radialGradient>
<radialGradient id="paint3_radial_478_1518" cx="0" cy="0" r="1" gradientTransform="matrix(38.3519 -8.50803 8.21826 39.7041 26.2027 32.1961)" gradientUnits="userSpaceOnUse">
<stop stop-color="#FF6035"/>
<stop offset="0.396225" stop-color="#FF6035"/>
<stop offset="1" stop-color="#FFBDAB"/>
</radialGradient>
<radialGradient id="paint4_radial_478_1518" cx="0" cy="0" r="1" gradientTransform="matrix(38.3519 -8.50803 8.21826 39.7041 26.2027 32.1961)" gradientUnits="userSpaceOnUse">
<stop stop-color="#FF6035"/>
<stop offset="0.396225" stop-color="#FF6035"/>
<stop offset="1" stop-color="#FFBDAB"/>
</radialGradient>
</defs>
</svg>
