<svg width="60" height="60" viewBox="0 0 60 60" fill="none" xmlns="http://www.w3.org/2000/svg">
<path d="M17.6919 51.3753C14.9802 51.3753 12.2685 51.3753 9.55676 51.3753C7.72793 51.3753 6.37838 50.3143 6.05045 48.6141C6 48.3456 6 48.0644 6 47.7576C6 35.6773 6 23.6097 6 11.5294C6 9.27955 7.37477 7.88616 9.59459 7.88616H11.5874C11.5874 7.88616 11.5874 7.28534 11.5874 7.05523C11.5874 6.55668 11.5874 6.05813 11.5874 5.57236C11.6 4.56247 12.1297 4.01278 13.1261 4.01278C13.5423 4.01278 13.9586 4.01278 14.3748 4.01278C14.8036 4.01278 15.2198 4.01278 15.6486 4.01278C16.6577 4.02557 17.1748 4.5369 17.2 5.55958C17.2126 6.04534 17.2126 6.53111 17.2 7.04245C17.2 7.27255 17.2 7.50265 17.2 7.73275V7.86059H39.1712V7.73275C39.1712 7.48987 39.1712 7.25977 39.1712 7.01688C39.1712 6.50555 39.1712 6.00699 39.1712 5.52123C39.1838 4.58804 39.7387 4.02557 40.6468 4.01278C41.0757 4.01278 41.5045 4 41.9333 4C42.3748 4 42.8288 4 43.2703 4.01278C44.2036 4.02557 44.7459 4.54969 44.7712 5.50844C44.7838 6.00699 44.7838 6.50555 44.7838 7.02967C44.7838 7.27255 44.7838 7.51544 44.7838 7.75832V7.88616H46.1586C46.3982 7.88616 46.6378 7.88616 46.8775 7.88616C48.9333 7.89894 50.3712 9.33068 50.3712 11.3632C50.3838 16.7962 50.3838 22.3186 50.3838 27.6621V31.6122C50.3838 32.2258 50.1063 32.5965 49.627 32.5965C48.9964 32.5965 48.8955 31.9829 48.8829 31.6122C48.8829 31.5099 48.8829 31.4076 48.8829 31.3054V19.2123H7.5009V47.5914C7.5009 49.1766 8.18198 49.8541 9.75856 49.8541H15.964C19.9748 49.8541 23.973 49.8541 27.9838 49.8541H28.0342C28.2486 49.8541 28.4631 49.8541 28.6649 49.9052C29.0432 50.0075 29.2324 50.2759 29.2072 50.6722C29.182 51.0685 28.9676 51.2986 28.5514 51.3497C28.4757 51.3625 28.3874 51.3625 28.2991 51.3625C28.2739 51.3753 19.7099 51.3753 17.6919 51.3753ZM10.2 9.40738C9.94775 9.40738 9.70811 9.40738 9.46847 9.40738C8.25766 9.42016 7.5009 10.1872 7.5009 11.4016C7.5009 12.5137 7.5009 13.6515 7.5009 14.7508C7.5009 15.2238 7.5009 17.6271 7.5009 17.6271H48.8703V17.4993C48.8703 16.8857 48.8703 16.2849 48.8703 15.6712C48.8703 14.2012 48.8829 12.6799 48.8577 11.1843C48.845 10.2894 48.2144 9.548 47.3946 9.45851C47.1045 9.43295 46.8018 9.40738 46.4234 9.40738C46.1712 9.40738 45.9189 9.40738 45.6793 9.42016C45.427 9.42016 45.1622 9.43295 44.9099 9.43295H44.7838V9.56078C44.7838 9.80367 44.7838 10.0338 44.7838 10.2639C44.7838 10.7752 44.7964 11.261 44.7712 11.7595C44.7459 12.7183 44.2036 13.2552 43.2703 13.268C42.8162 13.2808 42.3622 13.2808 41.9333 13.2808C41.4919 13.2808 41.0631 13.2808 40.6468 13.268C39.7009 13.2552 39.1712 12.6927 39.1712 11.7084C39.1712 11.2226 39.1712 10.7496 39.1712 10.2511C39.1712 10.021 39.1712 9.44573 39.1712 9.44573H17.1874V9.57356C17.1874 9.80367 17.1874 10.0338 17.1874 10.2639C17.1874 10.7624 17.1874 11.2354 17.1874 11.7212C17.1622 12.7311 16.6324 13.2552 15.6234 13.268C15.3081 13.268 14.9928 13.268 14.6775 13.268C14.4126 13.268 14.1351 13.268 13.8703 13.268H13.3279C12.0793 13.268 11.5874 12.7694 11.5874 11.5166C11.5874 11.0692 11.5874 10.6218 11.5874 10.1616V9.3946L10.2 9.40738ZM40.6973 11.7084H43.245V5.54679H40.6973V11.7084ZM13.1135 11.7084H15.6613V5.54679H13.1135V11.7084Z" fill="url(#paint0_radial_478_1491)"/>
<path d="M42.6775 57C39.3856 57 36.2829 55.6961 33.9369 53.3184C31.6036 50.9407 30.3171 47.8087 30.3171 44.4723C30.3297 37.582 35.8667 31.9701 42.6649 31.9701C49.4631 31.9701 54.9874 37.582 54.9874 44.4723C54.9874 51.3625 49.4757 56.9872 42.6775 56.9872V57ZM42.6649 33.5041C39.7892 33.5041 37.0649 34.6546 35.009 36.7383C32.9532 38.822 31.818 41.5832 31.818 44.4978C31.818 50.5572 36.6865 55.4916 42.6649 55.4916C48.6432 55.4916 53.4991 50.5572 53.4991 44.4978C53.4991 41.5704 52.3766 38.8092 50.3207 36.7255C48.2649 34.6418 45.5532 33.5041 42.6649 33.5041Z" fill="url(#paint1_radial_478_1491)"/>
<path d="M14.3622 46.9139C13.7946 46.9139 13.2144 46.9011 12.6342 46.8883C11.5748 46.8628 10.818 46.0702 10.7928 44.9836C10.7802 44.0121 10.7802 42.9766 10.7928 41.8261C10.8054 40.7139 11.5369 39.9342 12.5964 39.883C13.1766 39.8575 13.7568 39.8447 14.3495 39.8447C14.9297 39.8447 15.5099 39.8575 16.0901 39.883C17.1748 39.9214 17.8937 40.7012 17.9063 41.8644C17.9063 42.2096 17.9063 42.5675 17.9063 42.9127C17.9063 43.0661 17.9063 43.2067 17.9063 43.3601C17.9063 43.5263 17.9063 43.7053 17.9063 43.8714C17.9063 44.2294 17.9063 44.6001 17.9063 44.958C17.8811 46.0574 17.1369 46.85 16.0775 46.8755C15.5225 46.9011 14.9423 46.9139 14.3622 46.9139ZM12.8613 41.3787C12.6595 41.3787 12.5207 41.4298 12.4324 41.5193C12.3315 41.6216 12.2937 41.7622 12.2937 41.9539C12.3063 42.8743 12.3063 43.8203 12.2937 44.7791C12.2937 44.9836 12.3315 45.1242 12.4324 45.2265C12.5207 45.3288 12.6721 45.3671 12.8613 45.3671C13.3532 45.3671 13.845 45.3543 14.3243 45.3543C14.8288 45.3543 15.3207 45.3543 15.8252 45.3543C15.964 45.3543 16.1532 45.3415 16.2793 45.2137C16.3676 45.1114 16.418 44.9708 16.418 44.7791C16.4054 43.8459 16.4054 42.8871 16.418 41.9539C16.418 41.7494 16.3802 41.596 16.2793 41.5065C16.191 41.4042 16.0523 41.3659 15.8631 41.3659H15.8378C15.636 41.3659 15.4468 41.3659 15.245 41.3659C15.0937 41.3659 14.5009 41.3659 14.3622 41.3659C14.2108 41.3659 13.6306 41.3659 13.4793 41.3659C13.2775 41.3659 13.0757 41.3659 12.8865 41.3659L12.8613 41.3787Z" fill="url(#paint2_radial_478_1491)"/>
<path d="M40.9496 29.2856C40.7477 29.2856 40.5586 29.2856 40.3568 29.2856C39.2468 29.26 38.4901 28.5441 38.4523 27.4576C38.4018 26.3582 38.4018 25.246 38.4523 24.1466C38.4901 23.0601 39.2595 22.3314 40.3568 22.3058C40.9369 22.2931 41.5045 22.2931 42.0468 22.2931C42.6018 22.2931 43.1568 22.2931 43.6991 22.3058C44.809 22.3314 45.5658 23.0984 45.591 24.2233C45.6162 25.2588 45.6162 26.3198 45.591 27.3808C45.5658 28.5058 44.7838 29.2856 43.6486 29.2984C43.4342 29.2984 43.2198 29.2984 43.018 29.2984C42.8414 29.2984 42.6649 29.2984 42.4757 29.2984C42.2991 29.2984 42.1225 29.2984 41.9586 29.2984C41.7946 29.2984 41.6306 29.2984 41.4667 29.2984C41.2775 29.2856 41.1135 29.2856 40.9496 29.2856ZM40.4955 23.8015C40.3063 23.8015 40.1676 23.8526 40.0667 23.9421C39.9658 24.0444 39.9279 24.185 39.9279 24.3895C39.9279 25.2205 39.9405 26.192 39.9279 27.1635C39.9279 27.3681 39.9658 27.5215 40.0667 27.6237C40.1676 27.726 40.3063 27.7644 40.4955 27.7644C40.5081 27.7644 40.5333 27.7644 40.5459 27.7644C40.7225 27.7516 40.9117 27.7516 41.1387 27.7516C41.2775 27.7516 41.4288 27.7516 41.5676 27.7516C41.7063 27.7516 41.8577 27.7516 41.9964 27.7516H42.0216C42.173 27.7516 42.3117 27.7516 42.4631 27.7516C42.6144 27.7516 42.7532 27.7516 42.9045 27.7516C43.1063 27.7516 43.2955 27.7516 43.4973 27.7644H43.5351C43.7243 27.7644 43.8504 27.7132 43.9514 27.6237C44.0523 27.5215 44.0901 27.3808 44.0901 27.1763C44.0775 26.2815 44.0775 25.3611 44.0901 24.4023C44.0901 24.2617 44.0775 24.0699 43.9514 23.9421C43.8631 23.8526 43.7243 23.8015 43.5351 23.8015C43.018 23.8015 42.5135 23.8143 42.009 23.8143C41.5045 23.8143 41 23.8143 40.5207 23.8015H40.4955Z" fill="url(#paint3_radial_478_1491)"/>
<path d="M24.6162 46.9011C24.4396 46.9011 24.2757 46.9011 24.0991 46.9011C23.9225 46.9011 23.7586 46.9011 23.582 46.9011H23.5568C23.4054 46.9011 23.2414 46.9011 23.0901 46.9011C22.9135 46.9011 22.7369 46.9011 22.5604 46.9011C22.3712 46.9011 22.1694 46.9011 21.9802 46.9011C20.7946 46.8755 20.0126 46.0958 20.0126 44.8941C20 43.7947 20 42.7976 20.0126 41.8517C20.0252 40.7139 20.7568 39.9342 21.8541 39.883C22.409 39.8575 22.9892 39.8575 23.5568 39.8575C24.1243 39.8575 24.7171 39.8702 25.2973 39.8958C26.3694 39.9342 27.1135 40.7012 27.1261 41.8133C27.1514 42.951 27.1514 43.9993 27.1261 45.0219C27.1009 46.1085 26.3568 46.8755 25.2721 46.9139C25.0703 46.9011 24.8685 46.9011 24.6162 46.9011ZM22.0559 41.3787C21.8667 41.3787 21.7405 41.4298 21.6396 41.5193C21.5514 41.6216 21.5009 41.7494 21.5009 41.9411C21.5135 42.7721 21.5135 43.7692 21.5009 44.7663C21.5009 44.9708 21.5387 45.1242 21.6396 45.2265C21.7405 45.3288 21.8793 45.3799 22.0811 45.3799H22.1189C22.3081 45.3799 22.4973 45.3671 22.6865 45.3671C22.8252 45.3671 22.9766 45.3671 23.1153 45.3671C23.2541 45.3671 23.4054 45.3671 23.5441 45.3671C23.6955 45.3671 23.8342 45.3671 23.9856 45.3671C24.1369 45.3671 24.2757 45.3671 24.427 45.3671C24.6288 45.3671 24.818 45.3671 25.0198 45.3671H25.0577C25.1838 45.3671 25.373 45.3543 25.4991 45.2265C25.5874 45.137 25.6378 44.9964 25.6378 44.8046C25.6252 43.9609 25.6252 43.0405 25.6378 41.9284C25.6378 41.7494 25.6 41.6216 25.4991 41.5193C25.3982 41.417 25.2595 41.3787 25.0703 41.3787C24.5532 41.3787 24.0487 41.3787 23.5441 41.3787C23.0523 41.3787 22.5477 41.3787 22.0559 41.3787Z" fill="url(#paint4_radial_478_1491)"/>
<path d="M31.7045 29.2856C31.4901 29.2856 31.2757 29.2856 31.0613 29.2728C30.0018 29.2472 29.245 28.493 29.2198 27.432C29.182 26.2943 29.182 25.1693 29.2198 24.1083C29.2577 23.0473 30.0144 22.3058 31.0739 22.2803C31.6288 22.2675 32.1964 22.2675 32.764 22.2675C33.3189 22.2675 33.8865 22.2675 34.4667 22.2803C35.5387 22.2931 36.2829 23.0217 36.3333 24.0955C36.3838 25.246 36.3838 26.3837 36.3333 27.4703C36.2829 28.5441 35.5261 29.26 34.4036 29.2728C34.2018 29.2728 34 29.2728 33.7856 29.2728C33.609 29.2728 33.445 29.2728 33.2685 29.2728C33.1423 29.2728 32.8775 29.2728 32.8775 29.2728H32.7514C32.5748 29.2728 32.3982 29.2728 32.2216 29.2728C32.0577 29.2856 31.8811 29.2856 31.7045 29.2856ZM31.3009 23.8143C31.0991 23.8143 30.9604 23.8654 30.8595 23.9677C30.7586 24.0699 30.7081 24.2233 30.7207 24.4534C30.7333 25.2588 30.7333 26.1281 30.7207 27.1635C30.7207 27.3808 30.7586 27.5343 30.8595 27.6365C30.9604 27.7388 31.0991 27.7899 31.3009 27.7899H31.3261C31.7928 27.7771 32.2721 27.7771 32.764 27.7771C33.2432 27.7771 33.7477 27.7771 34.2775 27.7899H34.2901C34.4919 27.7899 34.6306 27.7388 34.7315 27.6493C34.8198 27.547 34.8703 27.4064 34.8703 27.2147C34.8577 26.3198 34.8703 25.4378 34.8703 24.3895C34.8703 24.1978 34.8324 24.0572 34.7315 23.9677C34.6432 23.8782 34.5171 23.8271 34.3405 23.8271H34.3153C34.1387 23.8271 33.9369 23.8398 33.6973 23.8398C33.5333 23.8398 33.382 23.8398 33.218 23.8398C33.0667 23.8398 32.9279 23.8398 32.7766 23.8398C32.6378 23.8398 32.4865 23.8398 32.3477 23.8398C32.209 23.8398 32.0577 23.8398 31.9189 23.8398C31.7045 23.8398 31.5279 23.8398 31.364 23.8271C31.3387 23.8143 31.3135 23.8143 31.3009 23.8143Z" fill="url(#paint5_radial_478_1491)"/>
<path d="M13.3279 38.1061C13.0883 38.1061 12.8865 38.1061 12.6973 38.0933C11.5369 38.055 10.818 37.3008 10.8054 36.1375C10.7928 35.0637 10.7928 34.0282 10.8054 33.0311C10.818 31.8806 11.5874 31.1008 12.7099 31.088C13.2396 31.0753 13.7946 31.0753 14.3495 31.0753C14.8793 31.0753 15.4342 31.0753 15.9892 31.088C17.1495 31.1008 17.9063 31.8806 17.9189 33.0695C17.9315 34.0794 17.9315 35.102 17.9189 36.1119C17.9063 37.2752 17.1874 38.0422 16.0396 38.0933C15.8631 38.1061 15.6613 38.1061 15.4216 38.1061C15.2577 38.1061 15.0811 38.1061 14.9171 38.1061C14.7532 38.1061 14.5766 38.1061 14.4126 38.1061H14.4C14.2234 38.1061 14.0468 38.1061 13.8829 38.1061C13.6937 38.0933 13.5045 38.1061 13.3279 38.1061ZM12.8486 32.5965C12.6595 32.5965 12.5207 32.6476 12.4324 32.7371C12.3441 32.8394 12.2937 32.98 12.2937 33.1717C12.3063 34.1944 12.3063 35.1148 12.2937 35.9969C12.2937 36.2014 12.3315 36.342 12.4324 36.4443C12.5333 36.5466 12.6721 36.5849 12.8613 36.5849C13.3532 36.5849 13.8324 36.5849 14.2991 36.5849C14.8036 36.5849 15.3081 36.5849 15.8126 36.5849C15.9514 36.5849 16.1405 36.5721 16.2667 36.4443C16.355 36.342 16.4054 36.2142 16.4054 36.0096C16.3928 35.1404 16.3928 34.22 16.4054 33.1845C16.4054 32.98 16.3676 32.8394 16.2667 32.7371C16.1784 32.6476 16.0396 32.5965 15.8505 32.5965H15.8126C15.636 32.5965 15.4342 32.6093 15.1946 32.6093C15.0432 32.6093 14.8919 32.6093 14.7405 32.6093C14.5892 32.6093 14.4378 32.6093 14.2865 32.6093C14.1477 32.6093 14.009 32.6093 13.8577 32.6093C13.7189 32.6093 13.5802 32.6093 13.4288 32.6093C13.2144 32.6093 13.0252 32.6093 12.8613 32.5965H12.8486Z" fill="url(#paint6_radial_478_1491)"/>
<path d="M24.6288 38.1061C24.4523 38.1061 24.2631 38.1061 24.0865 38.1061C23.9099 38.1061 23.7207 38.1061 23.5441 38.1061H23.418C23.2919 38.1061 23.1658 38.1061 23.0523 38.1061C22.8883 38.1061 22.7243 38.1061 22.5604 38.1061C22.3333 38.1061 22.1441 38.1061 21.9676 38.0933C20.7568 38.055 20.0252 37.3008 20.0126 36.0736C20.0126 35.102 20 34.0666 20.0126 33.0311C20.0252 31.8806 20.7946 31.1008 21.9297 31.088C22.4595 31.0753 23.0018 31.0753 23.5441 31.0753C24.0865 31.0753 24.6541 31.0753 25.209 31.088C26.3568 31.1008 27.1009 31.8678 27.1261 33.0311C27.1514 34.1049 27.1514 35.1659 27.1261 36.1886C27.1009 37.288 26.382 38.0422 25.2973 38.0933C25.0955 38.0933 24.8811 38.1061 24.6288 38.1061ZM23.6072 36.5721C24.0739 36.5721 24.5532 36.5721 25.0198 36.5849H25.0324C25.2468 36.5849 25.3856 36.5338 25.4865 36.4315C25.5874 36.3292 25.6252 36.1758 25.6252 35.9713C25.6126 35.102 25.6126 34.1944 25.6252 33.2101C25.6252 33.0055 25.5874 32.8521 25.4865 32.7499C25.3856 32.6476 25.2468 32.6093 25.0577 32.6093C25.045 32.6093 25.0198 32.6093 25.0072 32.6093C24.8432 32.6093 24.6667 32.622 24.4396 32.622C24.3009 32.622 24.1622 32.622 24.0108 32.622C23.8721 32.622 23.7207 32.622 23.582 32.622C23.4306 32.622 23.2919 32.622 23.1405 32.622C22.9892 32.622 22.8505 32.622 22.6991 32.622C22.4721 32.622 22.2829 32.622 22.1063 32.6093C22.0937 32.6093 22.0685 32.6093 22.0559 32.6093C21.8667 32.6093 21.7153 32.6604 21.627 32.7499C21.5261 32.8521 21.4883 33.0055 21.4883 33.2101C21.5009 34.2072 21.5009 35.1148 21.4883 35.9713C21.4883 36.1758 21.5261 36.3292 21.627 36.4315C21.7532 36.5721 21.955 36.5849 22.0937 36.5849H22.1063C22.6108 36.5721 23.1153 36.5721 23.6072 36.5721Z" fill="url(#paint7_radial_478_1491)"/>
<path d="M15.4468 29.2856C15.2577 29.2856 15.0685 29.2856 14.8919 29.2856C14.7027 29.2856 14.5135 29.2856 14.3243 29.2856C14.1477 29.2856 13.9586 29.2856 13.782 29.2856C13.6054 29.2856 13.4162 29.2856 13.2396 29.2856C12.9874 29.2856 12.773 29.2856 12.5838 29.2728C11.6 29.2344 10.8306 28.4674 10.818 27.4831C10.7928 26.307 10.7928 25.1565 10.818 24.0572C10.8432 23.0984 11.6126 22.3314 12.5586 22.3058C13.164 22.2931 13.7694 22.2803 14.3622 22.2803C14.9676 22.2803 15.5604 22.2931 16.1658 22.3058C17.1369 22.3314 17.8937 23.1112 17.9189 24.1211C17.9441 25.3099 17.9441 26.4221 17.9189 27.4959C17.8937 28.4802 17.1369 29.2472 16.1405 29.2856C15.9261 29.2856 15.7117 29.2856 15.4468 29.2856ZM12.8865 23.8015C12.7477 23.8015 12.5586 23.8143 12.4324 23.9549C12.3315 24.0572 12.2937 24.1978 12.2937 24.4151C12.3063 25.3483 12.3063 26.2815 12.2937 27.1763C12.2937 27.3808 12.3315 27.5342 12.4324 27.6365C12.5207 27.7388 12.6595 27.7771 12.8613 27.7771C12.8739 27.7771 12.8991 27.7771 12.9243 27.7771C13.0883 27.7771 13.2649 27.7643 13.4919 27.7643C13.6306 27.7643 13.7694 27.7643 13.9207 27.7643C14.0595 27.7643 14.2108 27.7643 14.3495 27.7643C14.5009 27.7643 14.6396 27.7643 14.791 27.7643C14.9423 27.7643 15.0811 27.7643 15.2324 27.7643C15.4595 27.7643 15.6486 27.7644 15.8126 27.7771C15.8252 27.7771 15.8505 27.7771 15.8631 27.7771C16.0649 27.7771 16.2036 27.726 16.2919 27.6365C16.3928 27.5342 16.4306 27.3936 16.4306 27.1763C16.418 26.2559 16.418 25.3355 16.4306 24.4151C16.4306 24.2106 16.3928 24.0572 16.2919 23.9677C16.1658 23.8398 15.9766 23.8143 15.8252 23.8143H15.8C15.3081 23.8271 14.8162 23.8271 14.3495 23.8271C13.8703 23.8271 13.3784 23.8271 12.9117 23.8143L12.8865 23.8015Z" fill="url(#paint8_radial_478_1491)"/>
<path d="M24.6541 29.2856C24.4649 29.2856 24.2757 29.2856 24.0739 29.2856C23.8847 29.2856 23.7081 29.2856 23.5189 29.2856H23.5063C23.3297 29.2856 23.1532 29.2856 22.9766 29.2856C22.8 29.2856 22.6234 29.2856 22.4468 29.2856C22.1946 29.2856 21.9802 29.2856 21.791 29.2728C20.8072 29.2344 20.0505 28.4674 20.0252 27.4703C20 26.371 20 25.2332 20.0252 24.0955C20.0505 23.1112 20.8198 22.3186 21.791 22.2931C22.3838 22.2803 22.9892 22.2675 23.582 22.2675C24.1874 22.2675 24.7928 22.2803 25.3982 22.2931C26.3315 22.3186 27.0883 23.0728 27.1261 24.006C27.164 25.1821 27.164 26.371 27.1261 27.547C27.0883 28.493 26.3315 29.2344 25.3477 29.2728C25.1333 29.2856 24.9189 29.2856 24.6541 29.2856ZM24.427 27.7644C24.6541 27.7644 24.8432 27.7644 25.0072 27.7771C25.0198 27.7771 25.045 27.7771 25.0577 27.7771C25.2595 27.7771 25.3856 27.726 25.4865 27.6365C25.5874 27.5343 25.6252 27.3808 25.6252 27.1763C25.6126 26.2687 25.6126 25.3355 25.6252 24.4151C25.6252 24.2106 25.5874 24.0572 25.4865 23.9677C25.3604 23.8398 25.1586 23.8143 25.0324 23.8143H25.0072C24.5279 23.8271 24.0486 23.8271 23.5568 23.8271C23.0775 23.8271 22.5982 23.8271 22.1063 23.8143H22.0811C21.9423 23.8143 21.7532 23.8271 21.627 23.9677C21.5261 24.0699 21.4883 24.2106 21.4883 24.4279C21.5009 25.3611 21.5009 26.2815 21.4883 27.1891C21.4883 27.3936 21.5261 27.547 21.627 27.6493C21.7532 27.7771 21.9297 27.7899 22.0559 27.7899C22.0685 27.7899 22.0937 27.7899 22.1063 27.7899C22.2703 27.7899 22.4468 27.7771 22.6739 27.7771C22.8126 27.7771 22.9514 27.7771 23.1027 27.7771C23.2414 27.7771 23.3928 27.7771 23.5315 27.7771C23.6829 27.7771 23.8216 27.7771 23.973 27.7771C24.1369 27.7644 24.2757 27.7644 24.427 27.7644Z" fill="url(#paint9_radial_478_1491)"/>
<path d="M29.964 36.9428C29.4973 36.9428 29.2198 36.6105 29.2198 36.0608C29.2072 35.0892 29.2072 34.041 29.2198 33.0183C29.245 31.8934 30.0396 31.1008 31.1495 31.088C31.6288 31.088 32.1081 31.0753 32.5748 31.0753C33.155 31.0753 33.7351 31.0753 34.3153 31.088C34.8955 31.088 35.2108 31.3565 35.2108 31.8423C35.2108 32.4942 34.6432 32.5965 34.3153 32.5965C34.1261 32.5965 33.9369 32.5965 33.7477 32.5965C33.5964 32.5965 32.991 32.5965 32.8396 32.5965C32.7009 32.5965 32.5748 32.5965 32.436 32.6093C32.2973 32.6093 32.1712 32.622 32.0324 32.622C31.8432 32.622 31.6919 32.6093 31.5405 32.5965C31.4775 32.5965 31.427 32.5837 31.3766 32.5837C31.1495 32.5837 30.9982 32.6348 30.8847 32.7627C30.7586 32.9033 30.6955 33.1206 30.7207 33.4657C30.7459 34.1561 30.7459 34.8719 30.7333 35.5494C30.7333 35.7156 30.7333 35.8946 30.7333 36.0608C30.7333 36.6232 30.4811 36.9428 30.0144 36.9556L29.964 36.9428Z" fill="url(#paint10_radial_478_1491)"/>
<path d="M41.9838 47.9493C41.782 47.9493 41.555 47.8215 41.2901 47.5531C40.1676 46.4281 38.9946 45.2393 37.6955 43.9098C37.4432 43.6541 37.3171 43.4112 37.3171 43.1811C37.3171 43.0022 37.3928 42.836 37.5441 42.6826C37.6829 42.542 37.8468 42.4653 38.0234 42.4653C38.2631 42.4653 38.5153 42.5931 38.755 42.8488C39.4865 43.5774 40.2054 44.3189 40.9748 45.0986L42.0847 46.2364L42.173 46.0958C42.2108 46.0318 42.2486 45.9551 42.2865 45.8912C42.3622 45.7634 42.4126 45.6483 42.5009 45.5716C43.8504 44.191 45.1874 42.836 46.5622 41.4554C46.827 41.1869 47.0919 41.0463 47.3189 41.0463C47.4955 41.0463 47.6595 41.123 47.7982 41.2764C48.1261 41.6216 48.0631 42.069 47.6342 42.5036C46.1712 43.9865 44.4306 45.7506 42.6396 47.5658C42.4 47.8343 42.1856 47.9493 41.9838 47.9493Z" fill="url(#paint11_radial_478_1491)"/>
<defs>
<radialGradient id="paint0_radial_478_1491" cx="0" cy="0" r="1" gradientTransform="matrix(32.9723 -7.64423 7.06549 35.6731 27.6675 32.0288)" gradientUnits="userSpaceOnUse">
<stop stop-color="#FF6035"/>
<stop offset="0.396225" stop-color="#FF6035"/>
<stop offset="1" stop-color="#FFBDAB"/>
</radialGradient>
<radialGradient id="paint1_radial_478_1491" cx="0" cy="0" r="1" gradientTransform="matrix(32.9723 -7.64423 7.06549 35.6731 27.6675 32.0288)" gradientUnits="userSpaceOnUse">
<stop stop-color="#FF6035"/>
<stop offset="0.396225" stop-color="#FF6035"/>
<stop offset="1" stop-color="#FFBDAB"/>
</radialGradient>
<radialGradient id="paint2_radial_478_1491" cx="0" cy="0" r="1" gradientTransform="matrix(32.9723 -7.64423 7.06549 35.6731 27.6675 32.0288)" gradientUnits="userSpaceOnUse">
<stop stop-color="#FF6035"/>
<stop offset="0.396225" stop-color="#FF6035"/>
<stop offset="1" stop-color="#FFBDAB"/>
</radialGradient>
<radialGradient id="paint3_radial_478_1491" cx="0" cy="0" r="1" gradientTransform="matrix(32.9723 -7.64423 7.06549 35.6731 27.6675 32.0288)" gradientUnits="userSpaceOnUse">
<stop stop-color="#FF6035"/>
<stop offset="0.396225" stop-color="#FF6035"/>
<stop offset="1" stop-color="#FFBDAB"/>
</radialGradient>
<radialGradient id="paint4_radial_478_1491" cx="0" cy="0" r="1" gradientTransform="matrix(32.9723 -7.64423 7.06549 35.6731 27.6675 32.0288)" gradientUnits="userSpaceOnUse">
<stop stop-color="#FF6035"/>
<stop offset="0.396225" stop-color="#FF6035"/>
<stop offset="1" stop-color="#FFBDAB"/>
</radialGradient>
<radialGradient id="paint5_radial_478_1491" cx="0" cy="0" r="1" gradientTransform="matrix(32.9723 -7.64423 7.06549 35.6731 27.6675 32.0288)" gradientUnits="userSpaceOnUse">
<stop stop-color="#FF6035"/>
<stop offset="0.396225" stop-color="#FF6035"/>
<stop offset="1" stop-color="#FFBDAB"/>
</radialGradient>
<radialGradient id="paint6_radial_478_1491" cx="0" cy="0" r="1" gradientTransform="matrix(32.9723 -7.64423 7.06549 35.6731 27.6675 32.0288)" gradientUnits="userSpaceOnUse">
<stop stop-color="#FF6035"/>
<stop offset="0.396225" stop-color="#FF6035"/>
<stop offset="1" stop-color="#FFBDAB"/>
</radialGradient>
<radialGradient id="paint7_radial_478_1491" cx="0" cy="0" r="1" gradientTransform="matrix(32.9723 -7.64423 7.06549 35.6731 27.6675 32.0288)" gradientUnits="userSpaceOnUse">
<stop stop-color="#FF6035"/>
<stop offset="0.396225" stop-color="#FF6035"/>
<stop offset="1" stop-color="#FFBDAB"/>
</radialGradient>
<radialGradient id="paint8_radial_478_1491" cx="0" cy="0" r="1" gradientTransform="matrix(32.9723 -7.64423 7.06549 35.6731 27.6675 32.0288)" gradientUnits="userSpaceOnUse">
<stop stop-color="#FF6035"/>
<stop offset="0.396225" stop-color="#FF6035"/>
<stop offset="1" stop-color="#FFBDAB"/>
</radialGradient>
<radialGradient id="paint9_radial_478_1491" cx="0" cy="0" r="1" gradientTransform="matrix(32.9723 -7.64423 7.06549 35.6731 27.6675 32.0288)" gradientUnits="userSpaceOnUse">
<stop stop-color="#FF6035"/>
<stop offset="0.396225" stop-color="#FF6035"/>
<stop offset="1" stop-color="#FFBDAB"/>
</radialGradient>
<radialGradient id="paint10_radial_478_1491" cx="0" cy="0" r="1" gradientTransform="matrix(32.9723 -7.64423 7.06549 35.6731 27.6675 32.0288)" gradientUnits="userSpaceOnUse">
<stop stop-color="#FF6035"/>
<stop offset="0.396225" stop-color="#FF6035"/>
<stop offset="1" stop-color="#FFBDAB"/>
</radialGradient>
<radialGradient id="paint11_radial_478_1491" cx="0" cy="0" r="1" gradientTransform="matrix(32.9723 -7.64423 7.06549 35.6731 27.6675 32.0288)" gradientUnits="userSpaceOnUse">
<stop stop-color="#FF6035"/>
<stop offset="0.396225" stop-color="#FF6035"/>
<stop offset="1" stop-color="#FFBDAB"/>
</radialGradient>
</defs>
</svg>
