<svg width="148" height="30" viewBox="0 0 148 30" fill="none" xmlns="http://www.w3.org/2000/svg">
<g clip-path="url(#clip0_478_173)">
<path d="M144.807 2.36133C144.934 2.36133 145.062 2.42516 145.158 2.5209C145.254 2.42516 145.381 2.36133 145.509 2.36133H145.924V2.55282H145.286V3.98899H145.03V2.55282H144.392V2.36133H144.807Z" fill="#FF6035"/>
<path d="M146.372 2.48899V3.98899H146.116V2.36133H146.436C146.531 2.36133 146.595 2.42516 146.659 2.48899C146.914 2.99963 146.787 2.74431 147.074 3.25495L147.489 2.48899C147.521 2.42516 147.617 2.36133 147.713 2.36133H148.032V4.0209H147.777V2.48899L147.138 3.70175H147.074L146.372 2.48899Z" fill="#FF6035"/>
<path d="M15.0076 4.02148H10.0263C4.50227 4.02148 0 8.48957 0 14.0428V30.0002H4.0233V8.01085H15.0076C18.8712 8.01085 22.0004 11.1385 22.0004 15.0002C22.0004 18.8619 18.8712 21.9896 15.0076 21.9896H6.03495L10.0583 26.0108H15.0076C21.0744 25.9789 25.9918 21.064 25.9918 15.0002C25.9918 8.93638 21.0744 4.02148 15.0076 4.02148Z" fill="#FF6035"/>
<path d="M34.0379 0H30.0146V25.9787H34.0379V0Z" fill="#FF6035"/>
<path d="M60.03 6.98957V4.02148H49.0458C42.9789 4.02148 38.0615 8.93638 38.0615 15.0002C38.0615 21.064 42.9789 25.9789 49.0458 25.9789H60.03V21.9896H49.0458C45.1821 21.9896 42.0529 18.8619 42.0529 15.0002C42.0529 11.1385 45.1821 8.01085 49.0458 8.01085H56.0387V12.9896H46.0762L48.2794 17.0108H50.0356C55.5278 17.0108 60.03 12.5108 60.03 6.98957Z" fill="#FF6035"/>
<path d="M75.9956 4.02148H64.0215V26.0108H68.0448V8.01085H81.9986V25.9789H86.0219V14.0428C86.0538 8.48957 81.5516 4.02148 75.9956 4.02148Z" fill="#FF6035"/>
<path d="M100.071 25.9789H112.013V4.02148H107.99V21.9896H94.0363V4.02148H90.0449V15.9577C90.0449 21.5108 94.5472 25.9789 100.071 25.9789Z" fill="#FF6035"/>
<path d="M137.974 4.02148H108.022V8.04276H126V26.0108H130.023V8.01085H143.977V25.9789H148V14.0428C148 8.48957 143.498 4.02148 137.974 4.02148Z" fill="#FF6035"/>
</g>
<defs>
<clipPath id="clip0_478_173">
<rect width="148" height="30" fill="white"/>
</clipPath>
</defs>
</svg>
