<svg width="16" height="12" viewBox="0 0 16 12" fill="none" xmlns="http://www.w3.org/2000/svg">
<path d="M9.40337 1.72301C9.31863 1.64404 9.25066 1.54882 9.20352 1.44303C9.15638 1.33723 9.13103 1.22302 9.12899 1.10721C9.12694 0.991399 9.14825 0.876365 9.19163 0.768969C9.23501 0.661573 9.29957 0.564014 9.38147 0.482112C9.46338 0.400211 9.56093 0.335645 9.66833 0.292265C9.77573 0.248886 9.89076 0.227583 10.0066 0.229626C10.1224 0.23167 10.2366 0.257017 10.3424 0.304158C10.4482 0.351299 10.5434 0.419266 10.6224 0.504006L15.2224 5.10401C15.3839 5.26573 15.4746 5.48494 15.4746 5.71351C15.4746 5.94207 15.3839 6.16129 15.2224 6.32301L10.6224 10.923C10.5434 11.0077 10.4482 11.0757 10.3424 11.1229C10.2366 11.17 10.1224 11.1953 10.0066 11.1974C9.89076 11.1994 9.77573 11.1781 9.66833 11.1347C9.56093 11.0914 9.46338 11.0268 9.38147 10.9449C9.29957 10.863 9.23501 10.7654 9.19163 10.658C9.14825 10.5506 9.12694 10.4356 9.12899 10.3198C9.13103 10.204 9.15638 10.0898 9.20352 9.98399C9.25066 9.87819 9.31863 9.78297 9.40337 9.70401L12.5314 6.57601L1.38787 6.57601C1.15912 6.57601 0.939738 6.48514 0.777988 6.32339C0.616239 6.16164 0.525369 5.94226 0.525369 5.71351C0.525369 5.48476 0.616239 5.26538 0.777988 5.10363C0.939738 4.94188 1.15912 4.85101 1.38787 4.85101L12.5314 4.85101L9.40337 1.72301Z" fill="black"/>
</svg>
