<svg width="16" height="12" viewBox="0 0 16 12" fill="none" xmlns="http://www.w3.org/2000/svg">
<path d="M6.59663 1.72301C6.68137 1.64404 6.74934 1.54882 6.79648 1.44303C6.84362 1.33723 6.86897 1.22302 6.87101 1.10721C6.87306 0.991399 6.85175 0.876365 6.80837 0.768969C6.76499 0.661573 6.70043 0.564014 6.61853 0.482112C6.53662 0.400211 6.43907 0.335645 6.33167 0.292265C6.22427 0.248886 6.10924 0.227583 5.99343 0.229626C5.87762 0.23167 5.76341 0.257017 5.65761 0.304158C5.55181 0.351299 5.45659 0.419266 5.37763 0.504006L0.777631 5.10401C0.616113 5.26573 0.525391 5.48494 0.525391 5.71351C0.525391 5.94207 0.616113 6.16129 0.777631 6.32301L5.37763 10.923C5.45659 11.0077 5.55181 11.0757 5.65761 11.1229C5.76341 11.17 5.87762 11.1953 5.99343 11.1974C6.10924 11.1994 6.22427 11.1781 6.33167 11.1347C6.43907 11.0914 6.53662 11.0268 6.61853 10.9449C6.70043 10.863 6.76499 10.7654 6.80837 10.658C6.85175 10.5506 6.87306 10.4356 6.87101 10.3198C6.86897 10.204 6.84362 10.0898 6.79648 9.98399C6.74934 9.87819 6.68137 9.78297 6.59663 9.70401L3.46863 6.57601L14.6121 6.57601C14.8409 6.57601 15.0603 6.48514 15.222 6.32339C15.3838 6.16164 15.4746 5.94226 15.4746 5.71351C15.4746 5.48476 15.3838 5.26538 15.222 5.10363C15.0603 4.94188 14.8409 4.85101 14.6121 4.85101L3.46863 4.85101L6.59663 1.72301Z" fill="black"/>
</svg>
