<svg width="25" height="25" viewBox="0 0 25 25" fill="none" xmlns="http://www.w3.org/2000/svg">
<g clip-path="url(#clip0_478_1346)">
<path d="M12.5 24.25C14.0761 24.2519 15.6371 23.9424 17.0933 23.3392C18.5495 22.7361 19.8721 21.8511 20.9852 20.7352C22.1011 19.6221 22.9861 18.2995 23.5892 16.8433C24.1924 15.3871 24.5019 13.8261 24.5 12.25C24.5019 10.6739 24.1924 9.11286 23.5892 7.6567C22.9861 6.20054 22.1011 4.87791 20.9852 3.76481C19.8721 2.6489 18.5495 1.76394 17.0933 1.16076C15.6371 0.557576 14.0761 0.248066 12.5 0.250009C10.9239 0.248066 9.36286 0.557576 7.9067 1.16076C6.45054 1.76394 5.12791 2.6489 4.01481 3.76481C2.8989 4.87791 2.01394 6.20054 1.41076 7.6567C0.807576 9.11286 0.498066 10.6739 0.500009 12.25C0.498066 13.8261 0.807576 15.3871 1.41076 16.8433C2.01394 18.2995 2.8989 19.6221 4.01481 20.7352C5.12791 21.8511 6.45054 22.7361 7.9067 23.3392C9.36286 23.9424 10.9239 24.2519 12.5 24.25Z" fill="#FF6035"/>
<path d="M8.5 12.25L11.5 15.25L17.5 9.25" stroke="white" stroke-width="2" stroke-linecap="round" stroke-linejoin="round"/>
</g>
<defs>
<clipPath id="clip0_478_1346">
<rect width="24" height="24" fill="white" transform="translate(0.5 0.25)"/>
</clipPath>
</defs>
</svg>
